<svg width="1728" height="1117" viewBox="0 0 1728 1117" fill="none" xmlns="http://www.w3.org/2000/svg">
<path fill-rule="evenodd" clip-rule="evenodd" d="M316.673 124.506H172.506V268.679H301.738L316.673 253.742V124.506ZM332.007 268.679L317.264 253.935V124.506H461.431V268.679H332.007ZM317.264 283.794L331.788 269.27H461.431V413.442H317.264V283.794ZM301.957 269.27L316.673 283.986V413.442H172.506V269.27H301.957ZM172 124V268.763V269.185V413.526V413.948V558.289V558.711V703.052V703.474V847.815V848.237V993H316.758H317.18H461.515H461.938H606.273H606.695H751.031H751.453H895.789H896.211H1040.55H1040.97H1185.3H1185.73H1330.06H1330.48H1474.82H1475.24H1620L1620 848.237V703.474V703.052V558.289V413.948V269.185V268.763V124H1475.24H1474.82H1330.48H1330.06H1185.73H1185.3H1040.97H1040.55H896.211H895.789H751.453H751.031H606.695H606.273H461.938H461.515H317.18H316.758H172ZM462.022 124.506H606.189V268.679H462.022V124.506ZM750.947 124.506H606.78V268.679H750.947V124.506ZM751.538 124.506H895.705V268.679H751.538V124.506ZM1040.46 124.506H896.295V268.679H1040.46V124.506ZM1041.05 124.506H1185.22V268.679H1041.05V124.506ZM1329.98 124.506H1185.81V268.679H1329.98V124.506ZM1330.57 124.506H1474.74V268.679H1330.57V124.506ZM1619.49 124.506H1475.33V268.679H1619.49V124.506ZM462.022 269.27H606.189V413.442H462.022V269.27ZM750.947 269.27H606.78V413.442H736.445L750.947 398.94V269.27ZM765.807 413.442L751.538 399.172V269.27H895.705V413.442H765.807ZM751.538 428.991L766.447 414.082L766.397 414.032H895.705V558.204H751.538V428.991ZM735.855 414.032L735.805 414.082L750.947 429.223V558.204H606.78V414.032H735.855ZM1040.46 269.27H896.295V413.442H1040.46V269.27ZM1041.05 269.27H1185.22V413.442H1041.05V269.27ZM1329.98 269.27H1185.81V413.442H1329.98V269.27ZM1330.57 269.27H1474.74V373.444L1474.49 373.688L1434.74 413.442H1330.57V269.27ZM1434.15 414.032H1330.57V544.001L1331.05 543.517L1345.74 558.204H1474.74V454.72L1474.49 454.475L1434.49 414.473L1434.1 414.082L1434.15 414.032ZM1474.74 453.938L1434.88 414.082L1434.93 414.032H1459.61L1459.56 414.082L1474.74 429.256V453.938ZM1475.33 454.422V558.204H1619.49V414.032H1515.62L1515.66 414.082L1515.27 414.473L1475.33 454.422ZM1514.83 414.032L1514.88 414.082L1475.33 453.639V428.958L1490.2 414.082L1490.15 414.032H1514.83ZM1515.02 413.442H1619.49V269.27H1475.33V373.742L1515.02 413.442ZM1475.33 374.524L1514.24 413.442H1489.56L1475.33 399.205V374.524ZM1474.74 374.226L1435.52 413.442H1460.2L1474.74 398.907V374.226ZM1330.57 573.675L1331.05 574.159L1346.37 558.838L1346.33 558.795H1474.74V702.967H1330.57V573.675ZM1315.77 558.795L1315.73 558.838L1329.98 573.084V702.967H1185.81V558.795H1315.77ZM1329.98 544.592L1316.37 558.204H1185.81V414.032H1329.98V544.592ZM172.506 414.032H316.673V558.204H172.506V414.032ZM461.431 414.032H317.264V558.204H461.431V414.032ZM462.022 414.032H606.189V558.204H462.022V414.032ZM1040.46 414.032H896.295V558.204H1040.46V414.032ZM1041.05 414.032H1185.22V558.204H1041.05V414.032ZM172.506 558.795H316.673V702.967H172.506V558.795ZM461.431 558.795H317.264V702.967H421.597L421.41 702.78L421.801 702.389L461.431 662.757V558.795ZM461.431 663.539L422.192 702.78L422.379 702.967H447.06L446.872 702.78L461.431 688.22V663.539ZM462.022 687.63V662.949L462.193 662.778L502.193 702.78L502.006 702.967H477.326L477.513 702.78L462.193 687.459L462.022 687.63ZM462.022 717.93L462.193 718.101L476.735 703.558H501.415L462.193 742.782L462.022 742.611V717.93ZM447.651 703.558L461.431 717.339V742.021L422.97 703.558H447.651ZM422.188 703.558H317.264V847.73H461.431V742.803L422.188 703.558ZM462.022 743.393V847.73H606.189V703.558H502.197L462.584 743.173L462.193 743.564L462.022 743.393ZM502.788 702.967H606.189V558.795H462.022V662.166L462.193 661.995L462.584 662.387L502.584 702.389L502.976 702.78L502.788 702.967ZM750.947 558.795H606.78V702.967H750.947V558.795ZM751.538 558.795H895.705V702.967H751.538V558.795ZM1040.46 558.795H896.295V702.967H1040.46V558.795ZM1041.05 558.795H1185.22V702.967H1041.05V558.795ZM1619.49 558.795H1475.33V702.967H1619.49V558.795ZM172.506 703.558H316.673V847.73H172.506V703.558ZM750.947 703.558H606.78V847.73H750.947V703.558ZM751.538 703.558H895.705V847.73H751.538V703.558ZM1040.46 703.558H896.295V847.73H1040.46V703.558ZM1041.05 703.558H1185.22V847.73H1041.05V703.558ZM1329.98 703.558H1185.81V847.73H1329.98V703.558ZM1330.57 703.558H1474.74V847.73H1330.57V703.558ZM1619.49 703.558H1475.33V847.73H1619.49V703.558ZM172.506 848.321H316.673V992.494H172.506V848.321ZM461.431 848.321H317.264V992.494H461.431V848.321ZM462.022 848.321H606.189V992.494H462.022V848.321ZM750.947 848.321H606.78V992.494H750.947V848.321ZM751.538 848.321H895.705V992.494H751.538V848.321ZM1040.46 848.321H896.295V992.494H1040.46V848.321ZM1041.05 848.321H1185.22V992.494H1041.05V848.321ZM1329.98 848.321H1185.81V992.494H1329.98V848.321ZM1330.57 848.321H1474.74V992.494H1330.57V848.321ZM1619.49 848.321H1475.33V992.494H1619.49V848.321Z" fill="url(#paint0_radial_1703_35)" fill-opacity="0.6"/>
<defs>
<radialGradient id="paint0_radial_1703_35" cx="0" cy="0" r="1" gradientUnits="userSpaceOnUse" gradientTransform="translate(896 467.75) rotate(90) scale(343.75 724)">
<stop stop-opacity="0.6"/>
<stop offset="1" stop-opacity="0"/>
</radialGradient>
</defs>
</svg>
