<svg width="1728" height="1117" viewBox="0 0 1728 1117" fill="none" xmlns="http://www.w3.org/2000/svg">
<g clip-path="url(#clip0_1703_36)">
<path fill-rule="evenodd" clip-rule="evenodd" d="M-320.537 1195.38C-326.793 1205.36 -327.117 1217.95 -321.34 1228.22C-318.722 1232.86 -314.935 1236.82 -310.397 1239.66L-288.93 1253.08C-289.342 1259.39 -287.958 1265.81 -284.781 1271.46C-281.846 1276.65 -277.559 1280.95 -272.338 1283.93L-252.532 1295.18C-253.098 1301.86 -251.67 1308.66 -248.268 1314.71L-248.279 1314.7C-245.033 1320.46 -240.207 1325.13 -234.306 1328.19L-216.147 1337.58C-216.799 1344.58 -215.341 1351.72 -211.808 1358L-211.825 1358.01C-208.251 1364.34 -202.878 1369.34 -196.264 1372.46L-179.883 1380.18C-180.59 1387.41 -179.074 1394.74 -175.392 1401.28C-171.486 1408.23 -165.55 1413.56 -158.215 1416.71L-143.625 1422.98C-144.319 1430.4 -142.759 1437.93 -139.001 1444.61C-134.82 1452.04 -128.15 1457.84 -120.184 1460.97L-107.434 1465.96C-108.08 1473.53 -106.462 1481.19 -102.656 1487.94C-98.1526 1495.96 -90.8738 1502.09 -82.1636 1505.21L-71.2677 1509.1C-71.8204 1516.75 -70.1351 1524.49 -66.3169 1531.3C-61.4532 1539.94 -53.5762 1546.37 -44.126 1549.44L-35.1583 1552.35C-35.633 1560.06 -33.8857 1567.74 -30.0059 1574.65L-30.0167 1574.63C-24.8096 1583.9 -16.313 1590.67 -6.10535 1593.68L0.938999 1595.76C0.596625 1603.47 2.40413 1611.13 6.27054 1618.02C11.8383 1627.91 20.9504 1634.97 31.9155 1637.92L37.0153 1639.29C36.8294 1646.97 38.7006 1654.58 42.5288 1661.4C48.3708 1671.78 58.3582 1679.36 69.9355 1682.16L73.0885 1682.93C73.0545 1690.54 74.9828 1698.07 78.7703 1704.8C84.9665 1715.82 95.6149 1723.69 107.945 1726.39L109.172 1726.66C109.298 1734.18 111.279 1741.6 115.005 1748.22L115.023 1748.21C121.444 1759.65 132.449 1767.73 145.26 1770.48C145.55 1777.87 147.575 1785.13 151.229 1791.63C157.696 1803.12 168.564 1811.28 181.315 1814.29C181.722 1821.54 183.772 1828.58 187.418 1835.05C193.94 1846.63 204.689 1854.86 217.398 1858.13C217.946 1865.24 220.034 1872.14 223.607 1878.48L223.579 1878.47C230.149 1890.14 240.82 1898.45 253.47 1901.96C254.134 1908.94 256.254 1915.7 259.762 1921.93L259.779 1921.92C266.269 1933.48 277.058 1941.99 289.58 1945.76C290.364 1952.62 292.505 1959.25 295.934 1965.37L295.916 1965.38C302.467 1976.99 313.181 1985.6 325.677 1989.59C326.555 1996.32 328.713 2002.82 332.088 2008.82C338.672 2020.53 349.309 2029.2 361.77 2033.4C362.736 2040 364.909 2046.39 368.225 2052.27L368.207 2052.29C374.845 2064.08 385.442 2072.84 397.881 2077.23C398.931 2083.71 401.111 2089.96 404.362 2095.73C411.042 2107.61 421.573 2116.47 433.974 2121.05C435.1 2127.4 437.287 2133.55 440.475 2139.23L440.464 2139.21C450.267 2156.62 468.018 2167.62 487.963 2168.65L2253.49 2260.16C2268.96 2260.96 2283.84 2255.71 2295.38 2245.34C2306.92 2234.98 2313.73 2220.77 2314.56 2205.32L2410.21 442.032C2410.8 431.037 2408.27 420.174 2402.91 410.613C2393.13 393.213 2375.37 382.198 2355.43 381.167L589.898 289.662C580.992 289.2 572.283 290.75 564.292 294.125C558.218 294.617 552.315 296.078 546.768 298.445C540.622 298.926 534.721 300.426 529.253 302.787C523.162 303.218 517.234 304.677 511.677 307.098C505.611 307.502 499.704 308.95 494.172 311.383C488.049 311.766 482.159 313.248 476.73 315.652C470.595 315.979 464.602 317.438 459.01 319.967C453.001 320.271 447.124 321.697 441.635 324.185C435.533 324.442 429.557 325.888 423.99 328.459C417.952 328.689 412.027 330.119 406.506 332.69C400.347 332.883 394.391 334.359 388.969 336.909C382.814 337.055 376.85 338.523 371.434 341.095C365.371 341.185 359.385 342.595 353.824 345.283C347.696 345.344 341.735 346.796 336.352 349.415C330.301 349.397 324.288 350.78 318.712 353.542C312.987 353.492 307.278 354.738 301.949 357.26C301.667 357.393 301.387 357.53 301.109 357.669C294.98 357.577 288.964 359.007 283.588 361.733C277.442 361.574 271.389 362.993 266.001 365.762C259.858 365.541 253.784 366.946 248.397 369.755C242.273 369.477 236.19 370.864 230.814 373.704C224.704 373.363 218.606 374.727 213.234 377.597C201.759 376.825 190.215 382.221 183.682 392.618L-320.537 1195.38ZM206.244 382.594C198.812 383.899 191.931 388.221 187.608 395.095L-316.577 1197.83C-321.946 1206.37 -322.217 1217.15 -317.267 1225.93C-315.043 1229.9 -311.806 1233.28 -307.913 1235.71L-288.208 1248.02C-287.502 1244.85 -286.324 1241.75 -284.674 1238.86L200.096 390.372C201.788 387.412 203.871 384.809 206.244 382.594ZM-284.027 1250.64C-283.48 1247.36 -282.347 1244.16 -280.629 1241.14L204.096 392.659C206.613 388.264 210.131 384.789 214.2 382.357C215.949 382.559 217.691 382.931 219.4 383.478C218.327 384.92 217.355 386.465 216.5 388.109L-244.993 1275.03L-284.027 1250.64ZM-284.402 1255.91C-284.294 1260.47 -283.069 1265.01 -280.726 1269.19C-278.217 1273.65 -274.518 1277.35 -270.034 1279.92L-251.756 1290.3C-251.114 1287.57 -250.127 1284.9 -248.793 1282.34L-247.153 1279.19L-284.402 1255.91ZM-243.217 1281.64L-244.68 1284.46C-246.053 1287.09 -247.002 1289.87 -247.527 1292.7L-207.892 1315.23L-203.683 1306.35L-243.217 1281.64ZM-199.742 1308.81L-203.867 1317.51L-164.364 1339.96L-161.288 1332.85L-199.742 1308.81ZM-159.416 1328.52L-197.73 1304.57L235.009 392.244L243.325 397.441L-159.416 1328.52ZM-157.313 1335.33L-160.311 1342.26L-121.968 1364.05L-119.87 1358.73L-157.313 1335.33ZM-118.132 1354.32L-155.442 1331L247.309 399.931L256.201 405.489L-118.132 1354.32ZM-115.87 1361.23L-117.894 1366.36L-80.5983 1387.55L-79.3413 1384.06L-115.87 1361.23ZM-77.7289 1379.57L-114.131 1356.82L260.201 407.989L269.638 413.887L-77.7289 1379.57ZM-75.322 1386.57L-76.5108 1389.87L-40.1901 1410.51L-39.6497 1408.86L-75.322 1386.57ZM-38.157 1404.31L-73.7097 1382.09L273.658 416.399L283.574 422.597L-38.157 1404.31ZM-35.6015 1411.39L-36.0784 1412.85L-5.18599 1430.4L-35.6015 1411.39ZM0.656185 1428.57L-34.1088 1406.84L287.633 425.133L297.995 431.61L0.656185 1428.57ZM38.7462 1452.37L4.72343 1431.11L302.051 434.145L312.855 440.897L38.7462 1452.37ZM76.1572 1475.75L42.8415 1454.93L316.972 443.47L328.11 450.431L76.1572 1475.75ZM91.3548 1485.25L80.3065 1478.35L332.27 453.031L343.773 460.221L113.218 1497.67L91.3548 1485.25ZM205.702 1556.72L196.944 1551.25L210.062 1558.03L217.73 1562.39L205.702 1556.72ZM203.722 1560.95L219.308 1570.69L218.842 1573.59L186.733 1559.8L187.869 1553.48L203.722 1560.95ZM152.452 1528.91L170.1 1539.94L151.956 1531.39L152.452 1528.91ZM146.136 1524.97L148.24 1526.28L147.625 1529.35L114.415 1513.7L115.44 1509.09L146.136 1524.97ZM88.7 1489.07L97.6514 1494.67L78.7045 1484.87L79.0222 1483.57L88.7 1489.07ZM223.571 1573.36L235.179 1580.61L223.23 1575.48L223.571 1573.36ZM254.813 1587.41L239.307 1577.72L255.132 1585.18L254.813 1587.41ZM263.159 1592.63L259.118 1590.1L259.525 1587.25L271.016 1592.67L289.779 1603.33L289.691 1604.03L263.159 1592.63ZM261.106 1596.81L258.331 1595.62L257.175 1603.73L288.201 1615.87L288.449 1613.9L261.106 1596.81ZM292.787 1616.61L292.661 1617.62L297.312 1619.44L292.787 1616.61ZM320.717 1628.6L293.424 1611.55L293.526 1610.74L323.627 1623.67L322.987 1629.49L320.717 1628.6ZM318.692 1632.8L322.371 1635.1L321.369 1644.23L290.691 1633.29L292.063 1622.38L318.692 1632.8ZM326.758 1637.84L355.917 1656.07L355.872 1656.54L325.88 1645.84L326.758 1637.84ZM356.405 1650.91L342.094 1641.96L356.71 1647.69L356.405 1650.91ZM378.104 1664.47L360.812 1653.66L361.211 1649.45L390.36 1660.86L389.735 1668.62L378.104 1664.47ZM376.122 1668.69L389.078 1676.79L388.412 1685.07L358.75 1675.43L359.935 1662.92L376.122 1668.69ZM393.508 1679.56L417.379 1694.48L392.947 1686.54L393.508 1679.56ZM422.234 1692.05L396.473 1675.95L422.686 1685.3L422.234 1692.05ZM435.557 1700.38L426.693 1694.84L427.224 1686.92L453.22 1696.2L455.433 1697.45L454.933 1706.67L435.557 1700.38ZM433.589 1704.61L426.2 1702.21L425.259 1716.25L453.954 1724.72L454.341 1717.57L433.589 1704.61ZM454.628 1712.3L451.764 1710.51L454.673 1711.45L454.628 1712.3ZM458.848 1720.39L458.54 1726.08L476.375 1731.34L458.848 1720.39ZM492.917 1736.23L459.134 1715.12L459.252 1712.94L513.971 1730.71L524.805 1736.87C520.65 1739.66 515.821 1741.26 510.88 1741.53L492.917 1736.23ZM491.057 1740.52L492.337 1741.32C497.904 1744.81 504.14 1746.37 510.264 1746.19L574.709 1765.23L576.213 1766.08C581.266 1768.95 586.764 1770.34 592.204 1770.39L658.471 1789.97L660.125 1790.82C664.611 1793.14 669.384 1794.37 674.134 1794.59L742.123 1814.67L743.981 1815.55C747.878 1817.39 751.949 1818.44 756.013 1818.77L826.007 1839.45L827.899 1840.26C831.146 1841.66 834.489 1842.54 837.836 1842.94L909.349 1864.06L911.737 1865C914.386 1866.03 917.084 1866.74 919.788 1867.15L993.333 1888.87L995.645 1889.69C997.556 1890.37 999.487 1890.89 1001.42 1891.26L1068.3 1911.01L457.394 1747.2L458.281 1730.84L491.057 1740.52ZM520.263 1744.31C523.464 1743.16 526.496 1741.51 529.227 1739.38L556.974 1755.15L520.263 1744.31ZM535.524 1732.85L569.173 1743.78L538.654 1727.99L536.698 1731.11C536.323 1731.7 535.931 1732.28 535.524 1732.85ZM541.859 1722.89L564.485 1730.96L543.115 1720.89L541.859 1722.89ZM538.835 1718.99L537.39 1721.3L532.312 1719.48L508.105 1706.96L538.835 1718.99ZM547.077 1714.58L616.616 1744.45L620.458 1745.96L1102.11 902.908C1107.12 894.133 1107.15 883.677 1102.21 874.867L1102.19 874.878C1099.68 870.412 1095.98 866.709 1091.51 864.163L522.833 541.031L521.49 565.782L1030.79 884.081C1035.33 886.924 1039.11 890.885 1041.72 895.507C1047.5 905.775 1047.2 918.37 1040.9 928.359L547.077 1714.58ZM521.201 571.111L1028.28 888.027C1032.17 890.453 1035.42 893.829 1037.65 897.797L1037.68 897.803C1042.61 906.596 1042.34 917.368 1036.98 925.927L542.769 1712.73L474.868 1683.57L461.196 1677.12L521.201 571.111ZM516.976 562.96L518.305 538.458L504.703 530.729L503.123 554.303L516.976 562.96ZM502.769 559.591L516.686 568.29L456.652 1674.98L428.9 1661.9L502.769 559.591ZM498.664 551.516L500.227 528.186L486.793 520.552L484.988 542.969L498.664 551.516ZM484.566 548.215L498.31 556.804L424.397 1659.78L396.171 1646.48L484.566 548.215ZM480.558 540.2L482.343 518.024L469.094 510.495L467.078 531.776L480.558 540.2ZM466.585 536.977L480.136 545.446L391.687 1644.37L362.974 1630.84L466.585 536.977ZM462.658 529.013L464.651 507.971L451.586 500.547L449.373 520.71L462.658 529.013ZM448.807 525.866L462.165 534.214L358.506 1628.73L339.86 1619.94L329.321 1614.49L448.807 525.866ZM445.003 517.979L447.191 498.05L434.325 490.739L431.928 509.808L445.003 517.979ZM431.286 514.915L444.437 523.134L324.886 1612.2L295.268 1596.88L431.286 514.915ZM427.587 507.095L429.956 488.256L417.335 481.085L414.768 499.083L427.587 507.095ZM414.046 504.14L426.945 512.202L290.875 1594.61L260.702 1579L414.046 504.14ZM410.443 496.38L412.978 478.609L400.576 471.562L397.853 488.512L410.443 496.38ZM397.049 493.518L409.722 501.438L256.336 1576.74L225.583 1560.84L397.049 493.518ZM393.58 485.841L396.267 469.113L384.101 462.201L381.237 478.127L393.58 485.841ZM380.347 483.079L392.775 490.847L221.251 1558.6L212.183 1553.9L190.054 1541.33L380.347 483.079ZM377.013 475.487L379.838 459.778L367.953 453.025L364.963 467.956L377.013 475.487ZM363.982 472.851L376.122 480.439L185.781 1538.9L154.061 1520.88L363.982 472.851ZM360.761 465.33L363.709 450.614L352.118 444.027L349.015 457.989L360.761 465.33ZM347.941 462.825L359.781 470.225L149.806 1518.46L117.443 1500.07L347.941 462.825ZM344.848 455.385L347.904 441.633L336.643 435.234L333.443 448.257L344.848 455.385ZM329.283 445.657L332.432 432.841L321.531 426.647L318.248 438.761L329.283 445.657ZM314.131 436.188L317.359 424.276L306.786 418.268L303.435 429.503L314.131 436.188ZM299.379 426.968L302.671 415.931L292.536 410.172L289.131 420.563L299.379 426.968ZM285.072 418.026L288.414 407.829L278.721 402.322L275.275 411.903L285.072 418.026ZM271.255 409.391L274.634 399.999L265.419 394.763L261.944 403.572L271.255 409.391ZM257.943 401.072L261.346 392.448L252.676 387.522L249.184 395.597L257.943 401.072ZM245.199 393.107L248.614 385.214L242.944 381.992C242.43 381.7 241.911 381.426 241.386 381.169C239.714 383.144 238.27 385.365 237.112 387.809L237.023 387.997L245.199 393.107ZM233.06 385.52C234.131 383.319 235.404 381.278 236.846 379.411C235.191 378.929 233.512 378.605 231.829 378.432C230.168 379.405 228.595 380.545 227.138 381.841C227.448 382.02 227.755 382.205 228.061 382.396L233.06 385.52ZM223.812 385.333C222.607 386.828 221.532 388.462 220.612 390.229L-241.057 1277.49L-201.671 1302.11L231.044 389.766L225.577 386.349C224.997 385.986 224.408 385.648 223.812 385.333ZM222.673 379.695C222.985 379.384 223.303 379.08 223.626 378.782C222.912 378.917 222.204 379.078 221.502 379.267C221.894 379.402 222.285 379.544 222.673 379.695ZM534.526 1725.86L532.766 1728.66C532.175 1729.6 531.536 1730.49 530.855 1731.33L515.91 1726.48L478.46 1705.2L530.432 1723.74L534.526 1725.86ZM-244.231 1312.45C-246.803 1307.88 -248.068 1302.81 -248.017 1297.75L-209.88 1319.42L-212.912 1325.81C-213.981 1328.06 -214.796 1330.39 -215.358 1332.77L-232.158 1324.08C-237.266 1321.45 -241.425 1317.43 -244.231 1312.45ZM-208.731 1327.77L-205.855 1321.7L-166.212 1344.23L-171.146 1355.64L-211.096 1334.97C-210.617 1332.51 -209.83 1330.09 -208.731 1327.77ZM-167.021 1357.77L-162.159 1346.53L-123.683 1368.39L-127.547 1378.19L-167.021 1357.77ZM-123.405 1380.33L-119.61 1370.71L-82.1884 1391.97L-85.123 1400.13L-123.405 1380.33ZM-80.9725 1402.28L-78.101 1394.29L-41.6613 1415L-43.7939 1421.51L-80.9725 1402.28ZM-39.6235 1423.66L-37.5496 1417.34L-2.01641 1437.53L-3.46056 1442.37L-39.6235 1423.66ZM0.720122 1444.53L2.10987 1439.87L36.7932 1459.58L35.9351 1462.74L0.720122 1444.53ZM40.1352 1464.92L40.9431 1461.94L74.8222 1481.19L74.4577 1482.67L40.1352 1464.92ZM328.704 1620.11L333.564 1622.87L344.516 1627.58L338.563 1624.5L328.732 1619.86L328.704 1620.11ZM357.279 1641.68L331.622 1627.1L328.103 1625.59L327.482 1631.25L357.166 1642.87L357.279 1641.68ZM295.099 1606.35L294.146 1605.81L294.13 1605.93L295.099 1606.35ZM364.285 1645.66L361.708 1644.2L361.667 1644.64L364.285 1645.66ZM370.089 1643.62L390.8 1655.39L391.023 1652.62L370.089 1643.62ZM394.259 1670.23L394.839 1663.02L423.103 1679.08L423.009 1680.49L394.259 1670.23ZM422.743 1673.54L423.448 1673.94L423.456 1673.82L422.743 1673.54ZM427.546 1682.11L427.579 1681.63L429.921 1682.96L427.546 1682.11ZM427.923 1676.48L455.16 1691.96L455.72 1692.16L456.023 1686.57L427.983 1675.59L427.923 1676.48ZM493.978 1719.35L459.953 1700.02L459.512 1708.16L493.978 1719.35ZM535.906 1737.84L576.545 1760.93L592.891 1765.76C597.31 1765.7 601.667 1764.62 605.595 1762.62L594.466 1756.86L535.906 1737.84ZM610.484 1765.14C608.119 1766.66 605.58 1767.86 602.936 1768.72L636.662 1778.68L610.484 1765.14ZM641.597 1767.3L617.259 1759.4C617.994 1758.58 618.692 1757.72 619.351 1756.82L641.597 1767.3ZM700.123 1777.15L624.82 1747.66L1106.14 905.201C1111.85 895.165 1111.9 882.676 1106.24 872.599C1103.33 867.399 1099.04 863.098 1093.82 860.125L523.114 535.847L524.29 514.177L1154.72 840.264C1159.82 842.899 1163.99 846.935 1166.79 851.898L1166.78 851.881C1171.67 860.575 1171.85 871.021 1167.24 879.86L701.952 1774.09C701.397 1775.16 700.786 1776.18 700.123 1777.15ZM519.749 511.829L518.586 533.274L505.048 525.582L506.431 504.94L519.749 511.829ZM501.941 502.617L500.572 523.039L487.204 515.442L488.784 495.812L501.941 502.617ZM484.316 493.501L482.754 512.914L469.574 505.425L471.339 486.789L484.316 493.501ZM466.876 484.48L465.131 502.9L452.138 495.518L454.076 477.86L466.876 484.48ZM449.658 475.574L447.743 493.02L434.952 485.752L437.051 469.053L449.658 475.574ZM432.656 466.78L430.583 483.27L418.04 476.143L420.289 460.383L432.656 466.78ZM415.902 458.114L413.683 473.667L401.363 466.667L403.747 451.827L415.902 458.114ZM399.404 449.581L397.053 464.218L384.973 457.354L387.48 443.413L399.404 449.581ZM383.181 441.189L380.709 454.931L368.914 448.229L371.531 435.163L383.181 441.189ZM367.248 432.948L364.67 445.818L353.172 439.284L355.886 427.071L367.248 432.948ZM351.63 424.869L348.958 436.89L337.795 430.547L340.593 419.161L351.63 424.869ZM336.335 416.958L333.584 428.154L322.785 422.019L325.654 411.434L336.335 416.958ZM321.431 409.249L318.613 419.648L308.148 413.701L311.073 403.891L321.431 409.249ZM306.905 401.736L304.033 411.364L294.012 405.669L296.983 396.603L306.905 401.736ZM292.802 394.441L289.89 403.327L280.316 397.887L283.32 389.536L292.802 394.441ZM279.17 387.389L276.229 395.565L267.14 390.4L270.058 383.003C270.094 382.913 270.13 382.823 270.167 382.733L279.17 387.389ZM265.745 381.297L263.067 388.086L254.607 383.279C255.817 380.967 257.283 378.86 258.955 376.978C259.411 377.185 259.863 377.404 260.312 377.636L266.031 380.593C265.933 380.827 265.838 381.061 265.745 381.297ZM254.287 375.318C252.891 377.06 251.642 378.952 250.567 380.983L245.266 377.971C245.117 377.887 244.968 377.803 244.818 377.721C246.255 376.492 247.798 375.405 249.421 374.469C251.049 374.613 252.677 374.894 254.287 375.318ZM240.962 374.946C240.713 375.172 240.468 375.402 240.225 375.636C239.928 375.528 239.629 375.424 239.329 375.324C239.87 375.183 240.414 375.057 240.962 374.946ZM612.36 1757.8C613.324 1756.88 614.231 1755.87 615.07 1754.8L607.492 1751.23L563.002 1735.36L596.34 1752.6L612.36 1757.8ZM-211.644 1339.91C-211.803 1345.36 -210.501 1350.83 -207.763 1355.7C-204.662 1361.2 -199.995 1365.53 -194.265 1368.23L-179.083 1375.39C-178.591 1373.31 -177.911 1371.27 -177.042 1369.27L-172.991 1359.9L-211.644 1339.91ZM-168.865 1362.03L-172.789 1371.11C-173.68 1373.17 -174.342 1375.28 -174.777 1377.42L-134.694 1396.3L-129.257 1382.52L-168.865 1362.03ZM-125.115 1384.66L-130.49 1398.29L-91.1316 1416.83L-86.706 1404.53L-125.115 1384.66ZM-82.5554 1406.68L-86.9223 1418.82L-48.8003 1436.78L-45.2566 1425.97L-82.5554 1406.68ZM-41.0863 1428.13L-44.5757 1438.77L-7.58733 1456.21L-4.80938 1446.89L-41.0863 1428.13ZM-0.628731 1449.05L-3.35627 1458.2L32.5778 1475.13L34.6941 1467.32L-0.628731 1449.05ZM38.8942 1469.5L36.824 1477.13L71.771 1493.6L73.3194 1487.3L38.8942 1469.5ZM77.5661 1489.5L76.0606 1495.62L110.108 1511.67L111.172 1506.88L77.5661 1489.5ZM468.374 1686.41L461.828 1683.03L472.442 1687.59L477.705 1690.07L468.374 1686.41ZM402.249 1657.44L423.807 1668.59L423.782 1668.96L395.261 1657.79L395.521 1654.55L402.249 1657.44ZM466.524 1690.68L499.742 1707.86L460.291 1693.79L460.586 1688.36L466.524 1690.68ZM660.229 1785.65L621.638 1765.69L674.842 1782.97L685.899 1788.18C682.383 1789.46 678.629 1790.08 674.849 1789.96L660.229 1785.65ZM685.659 1793.16C687.661 1792.55 689.607 1791.76 691.471 1790.8L714.611 1801.71L685.659 1793.16ZM698.668 1785.84L709.004 1789.19L699.465 1785.1C699.32 1785.23 699.174 1785.37 699.027 1785.51C698.908 1785.62 698.789 1785.73 698.668 1785.84ZM704.561 1778.88L763.503 1801.96L778.371 1807.26C781.738 1804.5 784.562 1800.97 786.548 1796.79L1232.39 856.829C1236.61 847.916 1236.25 837.486 1231.42 828.896L1231.43 828.914C1228.35 823.407 1223.68 819.077 1217.93 816.365L525.596 490.098L524.565 509.102L1156.86 836.158C1162.76 839.216 1167.61 843.87 1170.85 849.637C1176.49 859.679 1176.69 871.795 1171.38 882.014L706.086 1776.24C705.613 1777.15 705.103 1778.03 704.561 1778.88ZM520.025 506.754L521.044 487.954L507.982 481.798L506.769 499.898L520.025 506.754ZM502.279 497.575L503.478 479.675L490.572 473.593L489.187 490.803L502.279 497.575ZM484.719 488.493L486.089 471.48L473.358 465.481L471.81 481.815L484.719 488.493ZM467.347 479.506L468.875 463.368L456.316 457.45L454.618 472.923L467.347 479.506ZM450.2 470.637L451.877 455.358L439.506 449.528L437.667 464.155L450.2 470.637ZM433.271 461.881L435.086 447.445L422.95 441.726L420.982 455.524L433.271 461.881ZM416.595 453.255L418.536 439.646L406.607 434.024L404.521 447.01L416.595 453.255ZM400.178 444.764L402.234 431.963L390.53 426.447L388.338 438.639L400.178 444.764ZM384.039 436.416L386.199 424.406L374.765 419.018L372.478 430.436L384.039 436.416ZM368.195 428.22L370.446 416.983L359.296 411.728L356.926 422.392L368.195 428.22ZM352.669 420.19L355 409.704L344.171 404.6L341.731 414.532L352.669 420.19ZM337.473 412.329L339.87 402.574L329.394 397.636L326.894 406.858L337.473 412.329ZM322.672 404.673L325.124 395.624L314.966 390.837L312.421 399.372L322.672 404.673ZM308.253 397.216L310.748 388.85L301.026 384.268L298.445 392.142L308.253 397.216ZM294.264 389.98L296.79 382.272L287.613 377.947C287.224 378.8 286.868 379.674 286.547 380.567L284.903 385.138L294.264 389.98ZM280.752 382.991L282.183 379.013C282.556 377.976 282.97 376.962 283.423 375.972L277.67 373.261C277.29 373.082 276.907 372.911 276.524 372.749C274.894 374.498 273.441 376.445 272.206 378.57L280.752 382.991ZM268.08 376.436C269.155 374.559 270.379 372.803 271.73 371.177C270.179 370.809 268.616 370.567 267.054 370.448C265.459 371.347 263.939 372.386 262.513 373.557L268.08 376.436ZM257.793 371.535C257.97 371.369 258.149 371.205 258.33 371.043C257.933 371.128 257.539 371.221 257.147 371.321C257.362 371.39 257.578 371.461 257.793 371.535ZM694.752 1783.07C694.315 1783.44 693.868 1783.79 693.413 1784.13L676.835 1778.74L652.559 1767.3L684.919 1778.85L694.752 1783.07ZM-171.338 1399C-174.261 1393.81 -175.618 1388.05 -175.375 1382.31L-136.415 1400.67L-141.172 1412.72C-141.883 1414.53 -142.449 1416.37 -142.869 1418.23L-156.368 1412.43C-162.773 1409.68 -167.947 1405.04 -171.338 1399ZM-136.858 1414.43L-132.21 1402.65L-92.722 1421.26L-98.4898 1437.29L-138.524 1420.09C-138.144 1418.18 -137.589 1416.28 -136.858 1414.43ZM-94.2258 1439.12L-88.5127 1423.24L-50.268 1441.26L-55.0776 1455.94L-94.2258 1439.12ZM-50.8026 1457.77L-46.0435 1443.25L-8.93917 1460.74L-12.9095 1474.05L-50.8026 1457.77ZM-8.63149 1475.89L-4.70806 1462.73L31.3356 1479.72L28.098 1491.66L-8.63149 1475.89ZM32.3869 1493.51L35.5817 1481.72L70.6327 1498.24L68.0326 1508.82L32.3869 1493.51ZM72.3618 1510.68L74.9223 1500.26L109.068 1516.35L107.021 1525.56L72.3618 1510.68ZM111.364 1527.43L113.376 1518.38L146.68 1534.07L145.107 1541.92L111.364 1527.43ZM149.471 1543.8L151.01 1536.11L183.527 1551.44L182.361 1557.92L149.471 1543.8ZM605.11 1744.94L609.564 1747.04L617.267 1749.79L614.974 1748.81L605.11 1744.94ZM710.081 1794.41L743.947 1810.37L756.751 1814.15C759.731 1814.37 762.705 1814.13 765.578 1813.49L755.509 1809.17L710.081 1794.41ZM772.13 1816.31C770.903 1816.8 769.649 1817.23 768.375 1817.59L789.938 1823.96L772.13 1816.31ZM856.456 1835.12L783.355 1809.04C786.336 1806.18 788.858 1802.74 790.733 1798.79L1236.57 858.814C1241.44 848.553 1241.03 836.52 1235.46 826.629C1231.9 820.283 1226.51 815.294 1219.9 812.173L525.866 485.113L526.771 468.438L1281.15 792.455C1287.53 795.193 1292.71 799.852 1296.1 805.891L1296.09 805.874C1300.96 814.516 1301.49 824.69 1297.56 833.788L871.173 1819.49C868.128 1826.53 862.814 1831.9 856.456 1835.12ZM522.209 466.478L521.315 482.968L508.314 476.842L509.378 460.967L522.209 466.478ZM504.862 459.027L503.81 474.719L490.969 468.668L492.183 453.581L504.862 459.027ZM487.685 451.649L486.485 466.555L473.821 460.587L475.176 446.277L487.685 451.649ZM470.677 444.344L469.339 458.475L456.85 452.589L458.337 439.044L470.677 444.344ZM453.878 437.129L452.411 450.497L440.112 444.702L441.721 431.907L453.878 437.129ZM437.279 429.999L435.693 442.619L423.634 436.936L425.354 424.877L437.279 429.999ZM420.915 422.971L419.219 434.856L407.37 429.272L409.192 417.935L420.915 422.971ZM404.791 416.045L402.998 427.212L391.377 421.736L393.289 411.105L404.791 416.045ZM388.927 409.232L387.046 419.695L375.7 414.348L377.692 404.406L388.927 409.232ZM373.34 402.537L371.381 412.313L360.324 407.102L362.384 397.831L373.34 402.537ZM358.052 395.97L356.028 405.077L345.297 400.02L347.415 391.401L358.052 395.97ZM343.074 389.537L340.996 397.994L330.622 393.105L332.786 385.118L343.074 389.537ZM328.473 383.266L326.352 391.093L316.303 386.357L318.502 378.983L328.473 383.266ZM314.237 377.151L312.084 384.369L302.477 379.842L303.028 378.158C303.589 376.444 304.273 374.793 305.071 373.214L314.237 377.151ZM298.603 376.738L298.241 377.845L289.817 373.876C291.046 371.939 292.465 370.14 294.055 368.501C294.383 368.63 294.711 368.764 295.038 368.905L300.805 371.382C299.951 373.097 299.214 374.886 298.603 376.738ZM289.13 367.025C287.83 368.545 286.649 370.17 285.597 371.887L280.216 369.351C281.616 368.249 283.1 367.265 284.651 366.408C286.144 366.504 287.641 366.708 289.13 367.025ZM275.653 367.128C275.608 367.168 275.563 367.208 275.518 367.248C275.464 367.297 275.41 367.345 275.356 367.394L275.26 367.363L275.164 367.333C275.11 367.316 275.056 367.299 275.002 367.283C275.143 367.248 275.284 367.213 275.425 367.18C275.501 367.163 275.577 367.145 275.653 367.128ZM-139.112 1424.92C-139.391 1430.92 -137.995 1436.95 -134.964 1442.34C-131.309 1448.84 -125.462 1453.91 -118.478 1456.65L-106.735 1461.25C-106.372 1459.55 -105.891 1457.86 -105.291 1456.2L-100.07 1441.68L-139.112 1424.92ZM-95.8063 1443.52L-100.927 1457.75C-101.543 1459.46 -102.015 1461.21 -102.345 1462.97L-62.4958 1478.57L-56.5347 1460.38L-95.8063 1443.52ZM-52.2597 1462.22L-58.1738 1480.26L-19.3019 1495.48L-14.2502 1478.55L-52.2597 1462.22ZM-9.97216 1480.38L-14.9803 1497.18L22.6155 1511.89L26.8672 1496.21L-9.97216 1480.38ZM31.156 1498.05L26.9439 1513.59L63.3568 1527.85L66.9057 1513.4L31.156 1498.05ZM71.2349 1515.26L67.7227 1529.55L103.059 1543.39L105.992 1530.19L71.2349 1515.26ZM110.336 1532.06L107.437 1545.1L141.777 1558.55L144.172 1546.59L110.336 1532.06ZM148.536 1548.46L146.172 1560.27L179.587 1573.35L181.515 1562.63L148.536 1548.46ZM185.887 1564.51L183.987 1575.07L216.556 1587.82L218.081 1578.33L185.887 1564.51ZM222.469 1580.22L220.97 1589.55L252.734 1601.99L253.913 1593.72L222.469 1580.22ZM757.294 1804.88L754.394 1803.63L761.251 1806.08L762.521 1806.58L757.294 1804.88ZM827.621 1835.09L803.798 1824.85L835.512 1835.15L844.043 1838.49C842.285 1838.6 840.509 1838.56 838.734 1838.37L827.621 1835.09ZM851.184 1842.04C851.563 1841.95 851.941 1841.84 852.316 1841.73L859.035 1844.36L851.184 1842.04ZM862.18 1837.16L917.963 1857.06L933.115 1861.98C943.075 1859.54 951.753 1852.47 955.791 1842.23L1362.71 810.775C1366.32 801.615 1365.62 791.447 1360.8 782.875L1360.82 782.864C1357.17 776.362 1351.31 771.278 1344.35 768.538L527.832 448.887L527.039 463.51L1282.99 788.203C1290.33 791.358 1296.26 796.683 1300.16 803.613C1305.74 813.522 1306.34 825.197 1301.84 835.635L875.436 1821.35C872.543 1828.04 867.856 1833.42 862.18 1837.16ZM522.477 461.55L523.261 447.098L510.638 442.156L509.706 456.065L522.477 461.55ZM505.19 454.125L506.111 440.384L493.638 435.501L492.575 448.707L505.19 454.125ZM488.077 446.775L489.127 433.735L476.821 428.917L475.635 441.431L488.077 446.775ZM471.136 439.498L472.305 427.15L460.164 422.397L458.865 434.228L471.136 439.498ZM454.407 432.313L455.688 420.644L443.725 415.961L442.322 427.123L454.407 432.313ZM437.881 425.215L439.264 414.215L427.531 409.621L426.032 420.126L437.881 425.215ZM421.593 418.219L423.068 407.874L411.533 403.359L409.95 413.218L421.593 418.219ZM405.549 411.328L407.108 401.626L395.79 397.196L394.131 406.424L405.549 411.328ZM389.769 404.55L391.401 395.477L380.347 391.15L378.622 399.762L389.769 404.55ZM374.27 397.893L375.964 389.434L365.187 385.215L363.407 393.227L374.27 397.893ZM359.075 391.367L360.822 383.506L350.361 379.411L348.536 386.84L359.075 391.367ZM344.195 384.975L345.983 377.697L335.871 373.738L334.011 380.601L344.195 384.975ZM329.697 378.749L331.48 372.168L331.517 372.034L322.519 368.511C321.466 370.401 320.571 372.408 319.857 374.522L329.697 378.749ZM315.609 372.697C316.323 370.644 317.189 368.681 318.19 366.817L312.377 364.541C312.116 364.439 311.854 364.34 311.592 364.245C310.061 365.763 308.677 367.418 307.454 369.195L315.609 372.697ZM303.124 367.335C304.154 365.76 305.292 364.265 306.532 362.858C305.084 362.584 303.633 362.413 302.186 362.338C300.682 363.157 299.253 364.078 297.909 365.095L303.124 367.335ZM292.89 363.209L292.897 363.203L292.883 363.207L292.89 363.209ZM-98.6007 1485.66C-101.707 1480.13 -103.154 1473.93 -102.89 1467.74L-63.943 1482.99L-69.4102 1499.67C-69.9201 1501.22 -70.3297 1502.8 -70.64 1504.39L-80.592 1500.83C-88.2465 1498.1 -94.629 1492.71 -98.6007 1485.66ZM-65.0027 1501.1L-59.621 1484.68L-20.6329 1499.95L-26.6385 1520.08L-66.2107 1505.97C-65.9271 1504.33 -65.5249 1502.7 -65.0027 1501.1ZM-22.2761 1521.64L-16.3112 1501.64L21.3943 1516.4L16.2503 1535.38L-22.2761 1521.64ZM20.6153 1536.94L25.7225 1518.1L62.2392 1532.39L57.8572 1550.23L20.6153 1536.94ZM62.2572 1551.8L66.6051 1534.1L102.04 1547.98L98.3311 1564.66L62.2572 1551.8ZM102.74 1566.24L106.418 1549.69L140.851 1563.17L137.736 1578.72L102.74 1566.24ZM142.16 1580.3L145.246 1564.89L178.749 1578.01L176.156 1592.43L142.16 1580.3ZM180.582 1594.01L183.149 1579.73L215.802 1592.52L213.667 1605.81L180.582 1594.01ZM218.104 1607.39L220.216 1594.25L252.06 1606.71L250.324 1618.89L218.104 1607.39ZM254.785 1620.48L256.5 1608.45L287.603 1620.63L286.213 1631.69L254.785 1620.48ZM910.5 1859.51L911.057 1859.73L912.32 1860.1L910.5 1859.51ZM1010.8 1887.22L940.39 1864.35C949.075 1860.51 956.319 1853.4 960.065 1843.91L1367 812.474C1371.12 802.007 1370.34 790.394 1364.83 780.589C1360.68 773.168 1353.98 767.353 1346.02 764.247L528.096 444.017L528.793 431.177L1407.51 744.644C1415.16 747.365 1421.55 752.768 1425.52 759.819L1425.54 759.808C1430.33 768.329 1431.18 778.501 1427.87 787.716L1040.39 1864.9C1035.72 1877.93 1023.81 1886.33 1010.8 1887.22ZM524.213 429.543L523.525 442.227L510.963 437.309L511.781 425.108L524.213 429.543ZM507.243 423.49L506.436 435.536L494.026 430.678L494.958 419.107L507.243 423.49ZM490.434 417.493L489.515 428.912L477.275 424.12L478.312 413.169L490.434 417.493ZM473.782 411.553L472.76 422.352L460.687 417.625L461.822 407.286L473.782 411.553ZM457.33 405.684L456.212 415.873L444.322 411.218L445.546 401.48L457.33 405.684ZM441.065 399.882L439.86 409.471L428.203 404.907L429.508 395.759L441.065 399.882ZM425.025 394.16L423.741 403.16L412.286 398.675L413.662 390.106L425.025 394.16ZM409.213 388.519L407.86 396.943L396.627 392.544L398.065 384.543L409.213 388.519ZM393.65 382.968L392.237 390.826L381.272 386.533L382.764 379.084L393.65 382.968ZM378.353 377.51L376.889 384.817L366.205 380.634L367.741 373.725L378.353 377.51ZM363.344 372.156L361.84 378.925L351.478 374.868L352.439 370.954C352.642 370.127 352.871 369.312 353.123 368.51L363.344 372.156ZM347.907 369.866L347.099 373.154L337.311 369.322C338.067 367.41 338.972 365.577 340.018 363.835L348.734 366.944C348.427 367.901 348.151 368.876 347.907 369.866ZM335.574 362.25C334.591 363.97 333.727 365.767 332.99 367.63L325.09 364.537C326.317 362.89 327.675 361.362 329.145 359.963C329.342 360.029 329.538 360.097 329.735 360.167L335.574 362.25ZM323.97 358.661C322.783 359.961 321.676 361.343 320.658 362.802L315.611 360.826C316.924 359.869 318.312 358.997 319.769 358.218C321.173 358.277 322.575 358.425 323.97 358.661ZM-66.7008 1510.73C-66.9169 1517.06 -65.4131 1523.41 -62.262 1529.02C-57.9793 1536.65 -51.0269 1542.33 -42.6845 1545.05L-34.5961 1547.68C-34.3216 1546.15 -33.9582 1544.62 -33.5052 1543.11L-27.9687 1524.54L-66.7008 1510.73ZM-23.6062 1526.1L-29.0713 1544.42C-29.5352 1545.98 -29.8926 1547.55 -30.1444 1549.12L9.07482 1561.86L15.0311 1539.88L-23.6062 1526.1ZM19.396 1541.44L13.4739 1563.29L51.6038 1575.67L56.7427 1554.76L19.396 1541.44ZM61.1427 1556.33L56.0355 1577.11L92.9035 1589.09L97.3154 1569.23L61.1427 1556.33ZM101.725 1570.81L97.3423 1590.53L133.048 1602.13L136.814 1583.32L101.725 1570.81ZM141.238 1584.9L137.498 1603.57L172.129 1614.82L175.323 1597.06L141.238 1584.9ZM179.749 1598.64L176.58 1616.27L210.232 1627.19L212.918 1610.47L179.749 1598.64ZM217.354 1612.06L214.69 1628.64L247.416 1639.27L249.655 1623.58L217.354 1612.06ZM254.115 1625.17L251.896 1640.73L283.775 1651.08L285.62 1636.41L254.115 1625.17ZM290.098 1638.01L288.271 1652.54L319.349 1662.64L320.849 1648.97L290.098 1638.01ZM325.36 1650.58L323.876 1664.11L354.222 1673.96L355.42 1661.31L325.36 1650.58ZM1019.92 1890.18C1031.07 1886.71 1040.53 1878.25 1044.77 1866.47L1432.25 789.26C1436.01 778.798 1435.04 767.23 1429.6 757.53C1425.09 749.507 1417.81 743.378 1409.11 740.276L529.055 426.335L529.666 415.08L1470.72 720.744C1479.06 723.448 1486.02 729.147 1490.3 736.776L1490.31 736.794C1495.1 745.269 1496.09 755.446 1493.05 764.71L1125.03 1887.62C1119.42 1904.75 1101.72 1914.64 1084.47 1910.95L1077.81 1908.98L1019.92 1890.18ZM524.476 424.701L525.078 413.59L512.819 409.608L512.104 420.288L524.476 424.701ZM507.566 418.669L508.272 408.131L496.158 404.196L495.344 414.309L507.566 418.669ZM490.82 412.695L491.623 402.723L479.67 398.841L478.765 408.395L490.82 412.695ZM474.235 406.779L475.126 397.365L463.332 393.534L462.343 402.537L474.235 406.779ZM457.852 400.934L458.825 392.07L447.203 388.296L446.14 396.757L457.852 400.934ZM441.659 395.158L442.706 386.835L431.31 383.133L430.178 391.063L441.659 395.158ZM425.694 389.463L426.806 381.67L415.602 378.031L414.412 385.439L425.694 389.463ZM409.963 383.851L411.131 376.579L400.139 373.009L398.899 379.905L409.963 383.851ZM394.484 378.33L395.701 371.567L384.968 368.081L383.686 374.478L394.484 378.33ZM379.275 372.904L380.53 366.64L370.423 363.357C369.801 365.035 369.286 366.774 368.887 368.568L368.757 369.152L379.275 372.904ZM364.36 367.584L364.363 367.571C364.795 365.629 365.348 363.745 366.013 361.925L357.527 359.168C356.5 360.75 355.582 362.42 354.787 364.169L364.36 367.584ZM350.391 362.601C351.15 360.895 352.013 359.255 352.97 357.688L347.081 355.775C347.031 355.759 346.981 355.743 346.931 355.726C346.851 355.701 346.772 355.676 346.693 355.651C345.27 356.959 343.956 358.372 342.76 359.878L350.391 362.601ZM338.177 358.243C339.158 356.909 340.217 355.634 341.352 354.424C340.032 354.227 338.707 354.108 337.382 354.065C335.987 354.795 334.639 355.616 333.348 356.521L338.177 358.243ZM-25.951 1572.37C-29.1912 1566.61 -30.7541 1560.25 -30.5834 1553.84L7.86455 1566.33L2.37601 1586.58C1.97276 1588.07 1.65262 1589.56 1.41482 1591.06L-4.77004 1589.24C-13.8069 1586.56 -21.3399 1580.57 -25.951 1572.37ZM6.84278 1587.76L12.2635 1567.76L50.4979 1580.17L44.682 1603.84L5.89203 1592.39C6.11011 1590.84 6.42672 1589.29 6.84278 1587.76ZM49.1433 1605.16L54.9296 1581.61L91.8961 1593.62L86.8564 1616.3L49.1433 1605.16ZM91.3227 1617.62L96.3349 1595.06L132.133 1606.69L127.787 1628.39L91.3227 1617.62ZM132.263 1629.71L136.584 1608.14L171.303 1619.41L167.576 1640.14L132.263 1629.71ZM172.049 1641.46L175.754 1620.86L209.489 1631.82L206.314 1651.58L172.049 1641.46ZM210.792 1652.9L213.947 1633.26L246.753 1643.92L244.07 1662.73L210.792 1652.9ZM248.567 1664.06L251.233 1645.37L283.188 1655.75L280.942 1673.62L248.567 1664.06ZM285.453 1674.95L287.683 1657.21L318.833 1667.33L316.975 1684.26L285.453 1674.95ZM321.516 1685.61L323.36 1668.8L353.775 1678.68L352.259 1694.69L321.516 1685.61ZM356.799 1696.03L358.303 1680.15L388.03 1689.81L386.816 1704.89L356.799 1696.03ZM391.361 1706.23L392.565 1691.28L421.653 1700.73L420.703 1714.9L391.361 1706.23ZM1164.73 1934.65L1099.85 1915.49C1113.26 1912.66 1124.86 1902.96 1129.43 1889.04L1497.45 766.123C1500.88 755.628 1499.76 744.083 1494.35 734.481C1489.49 725.856 1481.61 719.406 1472.15 716.337L529.926 410.292L530.46 400.438L1533.91 696.81C1542.97 699.475 1550.47 705.464 1555.09 713.678L1555.11 713.667C1559.95 722.229 1561.04 732.176 1558.23 741.612L1209.67 1910.28C1203.96 1929.37 1183.83 1940.29 1164.73 1934.65ZM525.866 399.081L525.338 408.802L513.139 404.84L513.764 395.507L525.866 399.081ZM509.209 394.161L508.592 403.363L496.54 399.448L497.25 390.629L509.209 394.161ZM492.704 389.286L492.005 397.975L480.117 394.114L480.905 385.801L492.704 389.286ZM476.349 384.456L475.574 392.638L463.848 388.83L464.705 381.017L476.349 384.456ZM460.185 379.682L459.341 387.366L447.792 383.615L448.712 376.293L460.185 379.682ZM444.198 374.96L443.294 382.154L431.974 378.477L432.95 371.638L444.198 374.96ZM428.428 370.302L427.47 377.014L416.346 373.401L417.369 367.036L428.428 370.302ZM412.878 365.709L411.875 371.949L400.967 368.406L401.798 363.783C401.875 363.357 401.958 362.933 402.047 362.511L412.878 365.709ZM397.246 362.972L396.528 366.964L385.969 363.534C386.453 361.737 387.054 359.987 387.764 358.292L397.599 361.197C397.471 361.785 397.353 362.377 397.246 362.972ZM383.291 356.971C382.616 358.636 382.036 360.348 381.555 362.1L372.294 359.092C373.107 357.501 374.022 355.978 375.027 354.53L383.291 356.971ZM370.373 353.155C369.447 354.592 368.6 356.09 367.838 357.645L360.446 355.244C361.625 353.853 362.898 352.552 364.251 351.348C364.304 351.363 364.357 351.379 364.41 351.394L370.373 353.155ZM358.755 350.204C357.684 351.313 356.67 352.483 355.718 353.708L351.065 352.197C351.833 351.678 352.623 351.185 353.435 350.719C353.919 350.441 354.407 350.175 354.899 349.92C356.179 349.945 357.466 350.039 358.755 350.204ZM5.53119 1597.12C5.45394 1603.58 7.07591 1609.96 10.3254 1615.74C15.2756 1624.52 23.3611 1630.83 33.1272 1633.43L37.3883 1634.58C37.5937 1633.05 37.8814 1631.52 38.2523 1630.01L43.5734 1608.35L5.53119 1597.12ZM48.0346 1609.67L42.767 1631.11C42.385 1632.66 42.1015 1634.22 41.9151 1635.79L80.2409 1646.07L85.8472 1620.84L48.0346 1609.67ZM90.3137 1622.16L84.7331 1647.27L122.003 1657.26L126.872 1632.96L90.3137 1622.16ZM131.348 1634.28L126.502 1658.47L162.542 1668.14L166.75 1644.73L131.348 1634.28ZM171.223 1646.06L167.036 1669.34L201.957 1678.7L205.572 1656.2L171.223 1646.06ZM210.05 1657.52L206.454 1679.91L240.324 1688.99L243.407 1667.38L210.05 1657.52ZM247.905 1668.7L244.838 1690.2L277.748 1699.03L280.355 1678.29L247.905 1668.7ZM284.867 1679.62L282.274 1700.24L314.279 1708.82L316.46 1688.95L284.867 1679.62ZM321.001 1690.29L318.834 1710.04L350.013 1718.4L351.813 1699.39L321.001 1690.29ZM356.353 1700.73L354.564 1719.62L384.974 1727.78L386.436 1709.62L356.353 1700.73ZM390.981 1710.96L389.529 1729L419.225 1736.96L420.385 1719.65L390.981 1710.96ZM424.941 1720.99L423.788 1738.19L452.801 1745.97L453.695 1729.48L424.941 1720.99ZM1178.64 1940.6L1248.48 1959.32C1268.35 1964.65 1288.88 1952.83 1294.28 1932.96L1623.39 718.553C1625.96 709.076 1624.72 699.141 1619.91 690.586L1619.91 690.614C1614.95 681.815 1606.87 675.53 1597.09 672.904L531.185 387.085L530.719 395.675L1535.25 692.366C1545.44 695.385 1553.94 702.127 1559.15 711.399C1564.59 721.083 1565.84 732.284 1562.66 742.93L1214.11 1911.61C1209.21 1928.04 1194.78 1939.11 1178.64 1940.6ZM526.124 394.318L526.583 385.852L514.626 382.645L514.082 390.761L526.124 394.318ZM509.527 389.416L510.062 381.422L498.246 378.253L497.63 385.902L509.527 389.416ZM493.085 384.56L493.691 377.032L482.032 373.905L481.351 381.094L493.085 384.56ZM476.794 379.748L477.464 372.68L465.959 369.595L465.22 376.33L476.794 379.748ZM460.699 374.995L461.425 368.38L450.089 365.34L449.299 371.627L460.699 374.995ZM444.785 370.294L445.56 364.126L434.446 361.145L433.612 366.994L444.785 370.294ZM429.09 365.659L429.907 359.928L419.194 357.056C418.817 358.479 418.51 359.929 418.274 361.403L418.111 362.416L429.09 365.659ZM413.62 361.089L413.684 360.688C413.948 359.05 414.292 357.437 414.714 355.854L405.125 353.283C404.408 354.818 403.781 356.402 403.25 358.027L413.62 361.089ZM398.81 356.715C399.323 355.129 399.918 353.578 400.591 352.067L392.519 349.903C391.54 351.234 390.643 352.623 389.832 354.064L398.81 356.715ZM385.278 352.719C386.027 351.309 386.85 349.942 387.742 348.622L381.796 347.028C380.503 348.139 379.279 349.335 378.134 350.609L385.278 352.719ZM373.266 349.171C374.178 348.05 375.143 346.978 376.155 345.956C374.933 345.82 373.711 345.744 372.49 345.729C371.227 346.371 370.001 347.081 368.816 347.857L373.266 349.171ZM46.5837 1659.13C43.3548 1653.38 41.6816 1647 41.6466 1640.53L79.2312 1650.61L74.1507 1673.47C73.8019 1675.04 73.5395 1676.62 73.3628 1678.2L71.0519 1677.64C60.7149 1675.12 51.7973 1668.37 46.5837 1659.13ZM78.6918 1674.46L83.7235 1651.81L121.087 1661.83L115.747 1688.5L77.922 1679.31C78.0777 1677.68 78.3338 1676.07 78.6918 1674.46ZM120.268 1689.59L125.587 1663.04L161.716 1672.73L157.075 1698.53L120.268 1689.59ZM161.589 1699.63L166.21 1673.93L201.215 1683.32L197.205 1708.28L161.589 1699.63ZM201.719 1709.38L205.712 1684.53L239.662 1693.63L236.22 1717.76L201.719 1709.38ZM240.749 1718.86L244.176 1694.84L277.162 1703.69L274.232 1727L240.749 1718.86ZM278.772 1728.1L281.689 1704.9L313.765 1713.5L311.295 1736L278.772 1728.1ZM315.863 1737.11L318.32 1714.72L349.568 1723.1L347.513 1744.8L315.863 1737.11ZM352.075 1745.91L354.119 1724.32L384.594 1732.49L382.912 1753.4L352.075 1745.91ZM387.476 1754.51L389.15 1733.72L418.907 1741.7L417.559 1761.81L387.476 1754.51ZM422.131 1762.92L423.471 1742.92L452.543 1750.72L451.494 1770.06L422.131 1762.92ZM456.093 1771.17L457.136 1751.95L1229.25 1958.99L456.093 1771.17ZM1332.24 1984.01L1254.35 1965.09C1274.29 1966.91 1293.36 1954.16 1298.76 1934.2L1627.87 719.793C1630.76 709.127 1629.37 697.966 1623.96 688.335C1618.39 678.444 1609.3 671.37 1598.32 668.433L531.442 382.343L531.848 374.857L1660.28 648.971C1670.62 651.489 1679.53 658.221 1684.73 667.494L1684.75 667.483C1689.55 676.021 1690.91 685.971 1688.57 695.501L1378.91 1955.64C1373.85 1976.31 1352.9 1989.03 1332.24 1984.01ZM527.24 373.738L526.841 381.109L514.943 377.919L515.416 370.865L527.24 373.738ZM510.844 369.755L510.379 376.695L498.625 373.543L499.158 366.916L510.844 369.755ZM494.594 365.807L494.07 372.321L482.476 369.212L483.064 363.007L494.594 365.807ZM478.485 361.894L477.908 367.987L466.472 364.921L467.108 359.13L478.485 361.894ZM462.562 358.026L461.938 363.705L450.674 360.685L451.186 356.618C451.241 356.179 451.302 355.742 451.369 355.307L462.562 358.026ZM446.574 356.061L446.146 359.47L435.175 356.528C435.502 354.879 435.918 353.26 436.419 351.676L446.841 354.207C446.741 354.821 446.652 355.439 446.574 356.061ZM431.882 350.574C431.401 352.126 430.993 353.709 430.662 355.318L420.623 352.626C421.188 351.148 421.832 349.707 422.551 348.307L431.882 350.574ZM417.934 347.186C417.265 348.564 416.661 349.976 416.125 351.42L407.388 349.077C408.197 347.759 409.078 346.487 410.028 345.265L417.934 347.186ZM405.141 344.078C404.282 345.29 403.481 346.542 402.742 347.831L395.81 345.972C396.915 344.809 398.092 343.706 399.339 342.668L405.141 344.078ZM393.525 341.68C392.565 342.623 391.65 343.605 390.782 344.624L386.574 343.495C387.71 342.778 388.883 342.118 390.086 341.517C391.227 341.519 392.374 341.573 393.525 341.68ZM77.752 1684.06C77.9083 1690.49 79.6283 1696.83 82.8252 1702.52C88.3822 1712.39 97.8871 1719.43 108.96 1721.85L109.336 1721.94C109.482 1720.25 109.722 1718.57 110.056 1716.91L114.831 1693.07L77.752 1684.06ZM119.352 1694.17L114.617 1717.81C114.274 1719.51 114.042 1721.22 113.918 1722.94L151.214 1731.13L156.249 1703.13L119.352 1694.17ZM160.763 1704.23L155.747 1732.12L192.095 1740.1L196.464 1712.9L160.763 1704.23ZM200.978 1713.99L196.625 1741.09L231.791 1748.81L235.559 1722.39L200.978 1713.99ZM240.088 1723.49L236.334 1749.81L270.424 1757.29L273.648 1731.65L240.088 1723.49ZM278.188 1732.75L274.977 1758.29L308.052 1765.54L310.783 1740.67L278.188 1732.75ZM315.351 1741.78L312.632 1766.55L344.785 1773.61L347.07 1749.48L315.351 1741.78ZM351.631 1750.59L349.356 1774.61L380.652 1781.48L382.534 1758.09L351.631 1750.59ZM387.098 1759.2L385.225 1782.48L415.726 1789.17L417.244 1766.53L387.098 1759.2ZM421.815 1767.64L420.304 1790.18L450.049 1796.71L451.238 1774.78L421.815 1767.64ZM455.837 1775.9L454.653 1797.72L1415.99 2008.69C1437.44 2013.38 1458.77 1999.77 1463.54 1978.35L1753.73 672.46C1755.86 662.895 1754.39 652.918 1749.59 644.38L1749.58 644.408C1744.03 634.552 1734.52 627.498 1723.46 625.065L532.454 363.692L532.103 370.167L1661.4 644.491C1672.98 647.299 1682.96 654.861 1688.8 665.233C1694.19 674.801 1695.7 685.96 1693.07 696.629L1383.42 1956.77C1377.74 1979.89 1354.27 1994.14 1331.13 1988.51L455.837 1775.9ZM527.495 369.048L527.84 362.68L516.136 360.111L515.729 366.19L527.495 369.048ZM511.158 365.079L511.558 359.106L499.991 356.568L499.533 362.255L511.158 365.079ZM494.969 361.147L495.418 355.564L484.006 353.06L483.504 358.362L494.969 361.147ZM478.925 357.249L479.417 352.053L468.378 349.63C468.061 351.148 467.816 352.688 467.643 354.248L467.616 354.502L478.925 357.249ZM463.071 353.398C463.259 351.79 463.517 350.202 463.845 348.636L453.666 346.402C453.142 347.827 452.686 349.289 452.3 350.782L463.071 353.398ZM447.787 349.685C448.161 348.228 448.598 346.798 449.093 345.398L439.986 343.4C439.277 344.672 438.631 345.98 438.049 347.32L447.787 349.685ZM433.464 346.206C434.008 344.898 434.608 343.616 435.261 342.363L427.556 340.672C426.642 341.789 425.786 342.949 424.99 344.148L433.464 346.206ZM420.234 342.992C420.955 341.821 421.727 340.68 422.548 339.573L416.846 338.321C415.665 339.277 414.543 340.289 413.481 341.352L420.234 342.992ZM408.305 340.095C409.125 339.171 409.983 338.277 410.879 337.416C409.773 337.332 408.672 337.296 407.577 337.304C406.461 337.857 405.365 338.462 404.291 339.12L408.305 340.095ZM119.06 1745.94C115.895 1740.31 114.131 1734.05 113.852 1727.68L150.391 1735.7L145.961 1760.34C145.639 1762.13 145.423 1763.94 145.312 1765.74C134.193 1763.09 124.693 1755.94 119.06 1745.94ZM150.524 1761.17L154.924 1736.7L191.357 1744.69L186.658 1773.94L149.904 1766.68C149.989 1764.84 150.195 1763 150.524 1761.17ZM191.203 1774.84L195.887 1745.69L231.133 1753.42L227.067 1781.93L191.203 1774.84ZM231.623 1782.83L235.676 1754.42L269.842 1761.91L266.351 1789.69L231.623 1782.83ZM270.916 1790.59L274.396 1762.91L307.543 1770.19L304.573 1797.24L270.916 1790.59ZM309.164 1798.15L312.122 1771.19L344.344 1778.26L341.849 1804.6L309.164 1798.15ZM346.429 1805.51L348.915 1779.27L380.276 1786.15L378.212 1811.79L346.429 1805.51ZM382.793 1812.69L384.849 1787.15L415.412 1793.86L413.74 1818.81L382.793 1812.69ZM418.325 1819.71L419.99 1794.86L449.794 1801.4L448.477 1825.67L418.325 1819.71ZM453.087 1826.58L454.398 1802.41L1415.02 2013.22C1438.97 2018.48 1462.78 2003.28 1468.09 1979.35L1758.28 673.464C1760.66 662.781 1759.01 651.635 1753.65 642.119C1747.46 631.1 1736.82 623.249 1724.48 620.531L532.708 359.004L533.009 353.457L1786.65 601.131C1798.44 603.469 1808.57 610.814 1814.47 621.273C1819.27 629.811 1820.85 639.796 1818.91 649.408L1548.18 2001.05C1543.73 2023.26 1522 2037.77 1499.77 2033.37L453.087 1826.58ZM528.39 352.545L528.095 357.992L516.45 355.436L516.797 350.254L528.39 352.545ZM512.212 349.348L511.871 354.432L500.366 351.907L500.559 349.509C500.625 348.699 500.709 347.894 500.812 347.096L512.212 349.348ZM495.936 349.128L495.794 350.903L484.563 348.439C484.806 346.962 485.115 345.504 485.487 344.069L496.251 346.195C496.121 347.164 496.016 348.142 495.936 349.128ZM480.912 343.165C480.554 344.571 480.252 345.996 480.006 347.439L469.544 345.143C469.961 343.805 470.436 342.49 470.967 341.2L480.912 343.165ZM466.334 340.285C465.838 341.55 465.392 342.838 464.995 344.145L455.516 342.065C456.108 340.854 456.751 339.674 457.44 338.528L466.334 340.285ZM452.631 337.577C452 338.706 451.411 339.862 450.865 341.044L442.618 339.234C443.39 338.151 444.211 337.101 445.081 336.086L452.631 337.577ZM439.924 335.067C439.15 336.071 438.416 337.103 437.724 338.16L431.207 336.73C432.216 335.767 433.276 334.846 434.383 333.972L439.924 335.067ZM428.277 333.138C427.445 333.919 426.644 334.727 425.874 335.56L422.03 334.716C423.034 334.121 424.058 333.569 425.098 333.061C426.155 333.046 427.215 333.071 428.277 333.138ZM149.95 1771.42C150.361 1777.69 152.163 1783.84 155.267 1789.36C160.916 1799.4 170.274 1806.6 181.284 1809.52C181.365 1807.62 181.558 1805.7 181.865 1803.78L185.922 1778.52L149.95 1771.42ZM190.467 1779.42L186.438 1804.5C186.118 1806.51 185.935 1808.51 185.888 1810.49L222.078 1816.9L226.412 1786.52L190.467 1779.42ZM230.968 1787.42L226.646 1817.71L262.04 1823.98L265.772 1794.3L230.968 1787.42ZM270.337 1795.2L266.616 1824.79L300.882 1830.86L304.065 1801.86L270.337 1795.2ZM308.656 1802.77L305.483 1831.68L338.727 1837.57L341.41 1809.24L308.656 1802.77ZM345.99 1810.15L343.315 1838.38L375.612 1844.1L377.838 1816.44L345.99 1810.15ZM382.419 1817.34L380.2 1844.91L411.618 1850.48L413.428 1823.47L382.419 1817.34ZM418.013 1824.37L416.209 1851.29L446.794 1856.71L448.224 1830.34L418.013 1824.37ZM452.833 1831.25L451.408 1857.53L1583.53 2058.06C1594.68 2060.02 1605.94 2057.55 1615.26 2051.06C1624.56 2044.59 1630.8 2034.88 1632.81 2023.72L1884.1 626.356C1885.83 616.698 1884.16 606.676 1879.35 598.166L1879.36 598.138C1873.12 587.049 1862.36 579.421 1849.84 577.197L533.523 344.054C533.508 344.283 533.494 344.512 533.482 344.742L533.263 348.784L1787.56 596.587C1800.69 599.178 1811.96 607.338 1818.52 618.995C1823.86 628.476 1825.62 639.603 1823.47 650.31L1552.73 2001.93C1547.77 2026.65 1523.61 2042.8 1498.86 2037.91L452.833 1831.25ZM528.644 347.871L528.826 344.502C528.849 344.079 528.876 343.657 528.908 343.236L517.73 341.256C517.471 342.687 517.271 344.135 517.131 345.597L528.644 347.871ZM512.562 344.694C512.711 343.265 512.912 341.849 513.165 340.448L502.665 338.588C502.264 339.88 501.913 341.195 501.615 342.531L512.562 344.694ZM497.059 341.631C497.347 340.326 497.681 339.039 498.06 337.772L488.33 336.049C487.797 337.217 487.31 338.408 486.87 339.618L497.059 341.631ZM482.254 338.706C482.667 337.525 483.12 336.36 483.613 335.214L474.892 333.669C474.222 334.715 473.593 335.785 473.007 336.879L482.254 338.706ZM468.267 335.943C468.802 334.875 469.374 333.827 469.982 332.799L462.631 331.497C461.806 332.419 461.017 333.375 460.266 334.362L468.267 335.943ZM455.258 333.373C455.926 332.411 456.626 331.474 457.356 330.563L451.93 329.602C450.886 330.404 449.883 331.244 448.923 332.121L455.258 333.373ZM443.397 331.029C444.117 330.278 444.863 329.546 445.633 328.837C444.64 328.788 443.649 328.775 442.662 328.796C441.687 329.265 440.726 329.772 439.782 330.315L443.397 331.029ZM191.473 1832.78C188.378 1827.28 186.549 1821.33 186.03 1815.2L221.426 1821.47L217.753 1847.22C217.467 1849.25 217.304 1851.27 217.263 1853.29C206.357 1850.12 197.135 1842.85 191.473 1832.78ZM222.345 1847.86L225.995 1822.28L261.464 1828.56L257.512 1860L222.711 1854.5C222.435 1854.46 222.16 1854.41 221.885 1854.37C221.884 1852.21 222.036 1850.04 222.345 1847.86ZM262.099 1860.73L266.041 1829.37L300.378 1835.46L296.998 1866.24L262.099 1860.73ZM301.61 1866.97L304.979 1836.27L338.291 1842.17L335.436 1872.31L301.61 1866.97ZM340.032 1873.04L342.879 1842.99L375.24 1848.72L372.865 1878.23L340.032 1873.04ZM377.46 1878.95L379.828 1849.53L411.307 1855.11L409.371 1884L377.46 1878.95ZM413.969 1884.72L415.899 1855.92L446.542 1861.35L445.008 1889.63L413.969 1884.72ZM449.627 1890.36L451.156 1862.17L1582.7 2062.62C1595.08 2064.81 1607.58 2062.05 1617.91 2054.86C1628.25 2047.65 1635.15 2036.88 1637.38 2024.52L1888.66 627.156C1890.59 616.442 1888.72 605.334 1883.4 595.87C1876.47 583.566 1864.54 575.101 1850.65 572.645L534.031 339.422C534.232 338.115 534.48 336.821 534.774 335.542L1913.02 553.292C1926.28 555.392 1937.68 563.301 1944.26 575.02L1944.25 575.049C1949.13 583.68 1950.86 593.477 1949.28 603.304L1717.45 2046.42C1715.58 2057.95 1709.36 2068.08 1699.88 2074.93C1690.4 2081.78 1678.83 2084.56 1667.29 2082.75L449.627 1890.36ZM530.16 334.813C529.879 336.066 529.639 337.332 529.44 338.608L518.762 336.717C519.089 335.525 519.459 334.348 519.87 333.188L530.16 334.813ZM515.221 332.453C514.837 333.59 514.49 334.741 514.179 335.905L504.276 334.151C504.729 333.065 505.218 332 505.742 330.956L515.221 332.453ZM500.947 330.198C500.467 331.222 500.017 332.264 499.599 333.322L490.573 331.723C491.144 330.744 491.75 329.785 492.39 328.846L500.947 330.198ZM487.362 328.052C486.786 328.973 486.24 329.911 485.723 330.864L477.914 329.481C478.625 328.601 479.369 327.744 480.145 326.912L487.362 328.052ZM474.73 326.056C474.05 326.875 473.397 327.714 472.77 328.57L466.68 327.491C467.583 326.701 468.515 325.945 469.476 325.226L474.73 326.056ZM463.04 324.536C462.342 325.167 461.66 325.816 460.997 326.484L457.59 325.881C458.456 325.399 459.334 324.948 460.224 324.526C461.16 324.499 462.099 324.503 463.04 324.536ZM222.14 1859.1C222.779 1865.07 224.623 1870.85 227.634 1876.19C233.323 1886.3 242.433 1893.64 253.243 1897.03C253.249 1894.92 253.387 1892.79 253.658 1890.66L256.934 1864.6L222.14 1859.1ZM261.521 1865.32L258.263 1891.24C257.97 1893.58 257.852 1895.91 257.908 1898.23C258.805 1898.41 259.711 1898.56 260.626 1898.69L292.94 1903.21L296.493 1870.85L261.521 1865.32ZM301.104 1871.58L297.56 1903.86L331.992 1908.68L334.999 1876.93L301.104 1871.58ZM339.595 1877.66L336.595 1909.33L369.985 1914L372.492 1882.86L339.595 1877.66ZM377.087 1883.58L374.587 1914.65L407.013 1919.19L409.061 1888.64L377.087 1883.58ZM413.658 1889.36L411.616 1919.83L443.13 1924.25L444.756 1894.28L413.658 1889.36ZM449.375 1895.01L447.753 1924.89L1751.07 2107.4C1775.7 2110.84 1798.56 2093.65 1802.08 2069.05L2014.45 580.206C2015.87 570.339 2014.04 560.533 2009.15 551.856L2009.17 551.873C2002.22 539.535 1990.21 531.334 1976.19 529.368L537.17 327.862C536.749 328.921 536.362 329.994 536.009 331.08L1913.71 548.741C1928.41 551.058 1940.99 559.823 1948.28 572.763C1953.65 582.342 1955.59 593.14 1953.85 604.03L1722 2047.14C1719.97 2059.9 1713.05 2071.11 1702.59 2078.7C1692.11 2086.27 1679.3 2089.36 1666.55 2087.33L449.375 1895.01ZM531.354 330.344C531.683 329.284 532.042 328.235 532.431 327.199L523.109 325.893C522.591 326.85 522.104 327.823 521.649 328.811L531.354 330.344ZM516.909 328.062C517.327 327.1 517.771 326.149 518.242 325.212L509.932 324.048C509.313 324.905 508.721 325.782 508.155 326.679L516.909 328.062ZM503.2 325.896C503.707 325.024 504.237 324.168 504.789 323.328L497.7 322.335C496.96 323.099 496.247 323.885 495.562 324.69L503.2 325.896ZM490.272 323.854C490.871 323.073 491.492 322.306 492.136 321.556L486.99 320.836C486.405 321.265 485.827 321.71 485.258 322.168C484.951 322.415 484.647 322.665 484.347 322.918L490.272 323.854ZM478.484 321.992C479.102 321.39 479.735 320.802 480.385 320.228C479.52 320.209 478.657 320.215 477.797 320.245C476.957 320.636 476.13 321.052 475.316 321.491L478.484 321.992ZM263.817 1919.65C260.889 1914.45 259.029 1908.84 258.276 1903.04C258.84 1903.14 259.408 1903.23 259.978 1903.31L292.43 1907.85L289.552 1934.07C289.308 1936.32 289.208 1938.56 289.25 1940.79C278.579 1937.13 269.435 1929.63 263.817 1919.65ZM294.188 1934.59L297.051 1908.5L331.551 1913.33L328.399 1946.61L298.555 1942.94C297.001 1942.75 295.465 1942.48 293.952 1942.13C293.833 1939.64 293.911 1937.12 294.188 1934.59ZM333.009 1947.18L336.155 1913.98L369.61 1918.66L366.978 1951.36L333.009 1947.18ZM371.586 1951.93L374.212 1919.3L406.701 1923.85L404.547 1955.99L371.586 1951.93ZM409.155 1956.56L411.303 1924.5L442.876 1928.92L441.163 1960.5L409.155 1956.56ZM445.79 1961.07L447.5 1929.57L1750.41 2112C1777.56 2115.78 1802.8 2096.82 1806.67 2069.69L2019.05 580.847C2020.61 569.946 2018.6 559.145 2013.21 549.577C2005.55 535.972 1992.29 526.93 1976.82 524.759L539.161 323.459C539.604 322.587 540.071 321.728 540.563 320.881L2039.33 505.438C2053.9 507.234 2066.88 515.943 2074.07 528.727C2078.96 537.405 2080.88 547.248 2079.64 557.154L1886.7 2091.76C1885.17 2104.04 1878.91 2115.02 1869.12 2122.64C1859.34 2130.26 1847.17 2133.63 1834.84 2132.1L445.79 1961.07ZM535.575 320.267C535.131 321.094 534.708 321.931 534.306 322.779L525.725 321.578C526.257 320.791 526.811 320.017 527.387 319.258L535.575 320.267ZM522.145 318.613C521.635 319.354 521.144 320.107 520.671 320.87L513.321 319.841C513.957 319.131 514.613 318.44 515.287 317.768L522.145 318.613ZM509.575 317.065C508.995 317.722 508.429 318.394 507.88 319.079L502.137 318.275C502.922 317.638 503.723 317.028 504.538 316.445L509.575 317.065ZM497.747 315.914C497.178 316.408 496.621 316.912 496.076 317.426L493.11 317.011C493.813 316.642 494.524 316.292 495.241 315.96C496.072 315.922 496.908 315.906 497.747 315.914ZM294.43 1946.97C295.282 1952.6 297.153 1958.05 299.999 1963.11C305.628 1973.12 314.665 1980.67 325.26 1984.54C325.179 1982.21 325.25 1979.86 325.474 1977.5L327.963 1951.22L297.988 1947.53C296.792 1947.39 295.605 1947.2 294.43 1946.97ZM332.573 1951.79L330.095 1977.95C329.842 1980.65 329.807 1983.34 329.988 1986C332.121 1986.53 334.303 1986.93 336.519 1987.17L363.861 1990.1L366.607 1955.98L332.573 1951.79ZM371.214 1956.55L368.474 1990.59L401.987 1994.19L404.237 1960.62L371.214 1956.55ZM408.845 1961.18L406.6 1994.68L439.12 1998.17L440.912 1965.13L408.845 1961.18ZM445.539 1965.7L443.751 1998.66L1918.65 2156.79C1931.34 2158.13 1943.82 2154.48 1953.77 2146.49C1963.74 2138.48 1969.99 2127.09 1971.39 2114.41L2144.85 534.08C2145.95 524.124 2143.94 514.261 2139.04 505.566L2139.01 505.56C2131.46 492.128 2117.81 483.142 2102.49 481.498L544.924 314.496C544.386 315.173 543.865 315.862 543.362 316.561L2039.92 500.833C2055.93 502.789 2070.21 512.381 2078.12 526.432C2083.5 535.982 2085.61 546.791 2084.24 557.693L1891.29 2092.28C1889.6 2105.82 1882.71 2117.88 1871.94 2126.26C1861.15 2134.65 1847.77 2138.36 1834.24 2136.67L445.539 1965.7ZM538.159 315.921C538.603 315.244 539.061 314.577 539.534 313.918L532.783 313.195C532.16 313.795 531.553 314.408 530.963 315.034L538.159 315.921ZM525.387 314.348C525.891 313.745 526.41 313.152 526.941 312.568L522.121 312.051C521.374 312.573 520.641 313.115 519.923 313.675L525.387 314.348ZM513.658 312.904C514.146 312.456 514.642 312.016 515.145 311.586C514.377 311.587 513.61 311.606 512.847 311.643C512.2 311.936 511.558 312.245 510.923 312.567L513.658 312.904ZM336.136 2006.57C333.371 2001.65 331.505 1996.37 330.571 1990.9C332.348 1991.28 334.153 1991.57 335.98 1991.77L363.489 1994.72L361.379 2020.93C361.177 2023.4 361.141 2025.86 361.267 2028.3C350.743 2024.24 341.801 2016.63 336.136 2006.57ZM366.002 2021.31L368.103 1995.21L401.677 1998.81L399.341 2033.68L374.427 2031.38C371.562 2031.12 368.753 2030.61 366.027 2029.86C365.779 2027.04 365.769 2024.18 366.002 2021.31ZM403.958 2034.11L406.29 1999.31L438.869 2002.8L437.005 2037.15L403.958 2034.11ZM441.639 2037.58L443.499 2003.3L1918.12 2161.41C1932.04 2162.9 1945.72 2158.89 1956.64 2150.1C1967.58 2141.33 1974.44 2128.82 1975.97 2114.91L2149.43 534.585C2150.62 523.654 2148.42 512.825 2143.05 503.292C2134.77 488.576 2119.81 478.718 2103 476.918L548.67 310.265C549.21 309.716 549.763 309.177 550.329 308.648L2165.68 457.564C2181.74 459.056 2196.06 468.331 2203.97 482.382L2203.97 482.41C2208.86 491.133 2210.95 501.015 2210.01 511.022L2056 2137.1C2053.45 2164.06 2029.4 2183.96 2002.41 2181.48L441.639 2037.58ZM544.32 308.094C543.842 308.605 543.374 309.123 542.916 309.648L537.603 309.078C538.252 308.588 538.91 308.114 539.577 307.657L544.32 308.094ZM531.598 308.004C531.452 308.131 531.308 308.259 531.164 308.388L528.755 308.129C529.303 307.859 529.857 307.598 530.416 307.347C531.09 307.311 531.765 307.288 532.442 307.279C532.159 307.517 531.877 307.759 531.598 308.004ZM366.709 2034.8C367.715 2040.12 369.583 2045.25 372.273 2050.02C377.96 2060.14 386.825 2067.82 397.286 2072.05C397.113 2069.51 397.111 2066.94 397.284 2064.37L399.032 2038.29L373.979 2035.97C371.513 2035.75 369.085 2035.35 366.709 2034.8ZM403.649 2038.71L401.91 2064.68C401.706 2067.71 401.768 2070.74 402.089 2073.72C405.399 2074.68 408.835 2075.31 412.352 2075.59L434.825 2077.34L436.755 2041.76L403.649 2038.71ZM441.389 2042.19L439.463 2077.7L2086.17 2206.17C2099.64 2207.22 2112.71 2202.96 2123 2194.2C2133.3 2185.44 2139.55 2173.2 2140.64 2159.75L2275.2 487.941C2275.99 477.902 2273.84 467.988 2268.92 459.231C2260.66 444.532 2245.67 434.952 2228.85 433.641L557.117 303.249C556.527 303.645 555.944 304.054 555.368 304.475L2166.11 452.983C2183.7 454.609 2199.36 464.761 2208 480.142C2213.35 489.686 2215.66 500.496 2214.62 511.46L2060.61 2137.53C2057.81 2167.04 2031.5 2188.85 2001.97 2186.12L441.389 2042.19ZM548.714 303.861L546.497 303.657C546.948 303.441 547.401 303.232 547.857 303.029C548.5 302.989 549.146 302.96 549.794 302.945C549.431 303.245 549.071 303.551 548.714 303.861ZM408.4 2093.47C405.803 2088.84 403.949 2083.87 402.878 2078.73C405.835 2079.47 408.875 2079.97 411.971 2080.21L434.574 2081.97L433.172 2107.81C433.028 2110.48 433.069 2113.15 433.29 2115.78C422.9 2111.38 414.111 2103.63 408.4 2093.47ZM437.817 2108.04L439.211 2082.33L2085.83 2210.74C2100.52 2211.88 2114.8 2207.25 2126.03 2197.67C2137.27 2188.11 2144.1 2174.75 2145.29 2160.06L2279.85 488.255C2280.73 477.298 2278.35 466.458 2272.99 456.924C2263.95 440.872 2247.6 430.425 2229.22 429L564.391 299.147C564.716 298.996 565.041 298.849 565.369 298.705C567.668 298.55 569.992 298.547 572.328 298.699L2291.99 409.711C2309.6 410.849 2325.25 420.689 2333.88 436.052L2333.89 436.07C2338.82 444.817 2341.06 454.778 2340.38 464.861L2225.29 2182.41C2223.38 2210.95 2198.55 2232.67 2169.97 2230.84L450.278 2119.79C446.103 2119.52 442.036 2118.77 438.147 2117.56C437.755 2114.42 437.642 2111.24 437.817 2108.04ZM439.036 2122.65C442.577 2123.59 446.239 2124.19 449.981 2124.43L2169.69 2235.47C2200.82 2237.48 2227.87 2213.8 2229.95 2182.7L2345.04 465.147C2345.78 454.156 2343.31 443.307 2337.96 433.763C2328.54 417.057 2311.48 406.325 2292.33 405.092L580.619 294.577C583.587 294.235 586.605 294.139 589.647 294.3L2355.16 385.816C2373.5 386.756 2389.85 396.891 2398.85 412.891L2398.87 412.881C2403.81 421.644 2406.14 431.643 2405.59 441.77L2309.94 2205.05C2309.16 2219.27 2302.9 2232.35 2292.29 2241.88C2281.66 2251.42 2267.99 2256.26 2253.74 2255.52L488.224 2164.03C469.885 2163.06 453.549 2152.94 444.537 2136.93C442.005 2132.43 440.16 2127.63 439.036 2122.65Z" fill="url(#paint0_linear_1703_36)" fill-opacity="0.2"/>
</g>
<defs>
<linearGradient id="paint0_linear_1703_36" x1="679" y1="-450" x2="562" y2="993.5" gradientUnits="userSpaceOnUse">
<stop stop-opacity="0.73"/>
<stop offset="1" stop-color="#666666" stop-opacity="0"/>
</linearGradient>
<clipPath id="clip0_1703_36">
<rect width="1728" height="1117" fill="white"/>
</clipPath>
</defs>
</svg>
