<svg xmlns="http://www.w3.org/2000/svg" version="1.1" xmlns:xlink="http://www.w3.org/1999/xlink" xmlns:svgjs="http://svgjs.dev/svgjs" viewBox="0 0 800 800" opacity="0.6"><defs><linearGradient x1="50%" y1="0%" x2="50%" y2="100%" id="gggyrate-grad"><stop stop-color="hsl(212, 72%, 59%)" stop-opacity="1" offset="0%"></stop><stop stop-color="hsl(0, 0%, 100%)" stop-opacity="1" offset="100%"></stop></linearGradient></defs><g stroke-width="4.5" stroke="url(#gggyrate-grad)" fill="none"><path d="M399.9998779296875 -2015.052734375L2491.500011575188 -807.5263300809634V1607.52647850711L399.9998779296875 2815.0528828011466L-1691.500255715813 1607.52647850711V-807.5263300809634L399.9998779296875 -2015.052734375Z " transform="rotate(94, 400, 400)" opacity="1.00"></path><path d="M400 -1963.668701171875L2447.000130801979 -781.8343480330307V1581.8343582446578L400 2763.6687113835023L-1647.0001308019791 1581.8343582446578V-781.8343480330307L400 -1963.668701171875Z " transform="rotate(92, 400, 400)" opacity="0.98"></path><path d="M400 -1912.28466796875L2402.5001279584576 -756.142365985098V1556.142237982206L400 2712.284539965858L-1602.5001279584578 1556.142237982206V-756.142365985098L400 -1912.28466796875Z " transform="rotate(90, 400, 400)" opacity="0.96"></path><path d="M400 -1860.900390625L2358.000125114937 -730.45013979654V1530.4503618603799L400 2660.90061268884L-1558.0001251149365 1530.4503618603799V-730.45013979654L400 -1860.900390625Z " transform="rotate(88, 400, 400)" opacity="0.94"></path><path d="M400 -1809.516357421875L2313.5001222714154 -704.7581577486073V1504.7582415979277L400 2609.5164412711956L-1513.5001222714152 1504.7582415979277V-704.7581577486073L400 -1809.516357421875Z " transform="rotate(86, 400, 400)" opacity="0.92"></path><path d="M400 -1758.13232421875L2269.000119427894 -679.0661757006746V1479.066121335476L400 2558.1322698535514L-1469.0001194278939 1479.066121335476V-679.0661757006746L400 -1758.13232421875Z " transform="rotate(84, 400, 400)" opacity="0.90"></path><path d="M400 -1706.748291015625L2224.500116584373 -653.374193652742V1453.3740010730244L400 2506.748098435907L-1424.5001165843728 1453.3740010730244V-653.374193652742L400 -1706.748291015625Z " transform="rotate(82, 400, 400)" opacity="0.88"></path><path d="M400 -1655.364013671875L2180.0001137408512 -627.6819674641843V1427.6821249511972L400 2455.364171158888L-1380.0001137408515 1427.6821249511972V-627.6819674641843L400 -1655.364013671875Z " transform="rotate(80, 400, 400)" opacity="0.86"></path><path d="M400 -1603.97998046875L2135.50011089733 -601.9899854162516V1401.9900046887456L400 2403.979999741244L-1335.5001108973302 1401.9900046887456V-601.9899854162516L400 -1603.97998046875Z " transform="rotate(78, 400, 400)" opacity="0.83"></path><path d="M400 -1552.595947265625L2091.0001080538086 -576.2980033683189V1376.2978844262939L400 2352.5958283235996L-1291.0001080538088 1376.2978844262939V-576.2980033683189L400 -1552.595947265625Z " transform="rotate(76, 400, 400)" opacity="0.81"></path><path d="M399.9999694824219 -1501.2117919921875L2046.5000746927094 -550.6058992500734V1350.6058862341542L399.9999694824219 2301.2117789762683L-1246.5001357278657 1350.6058862341542V-550.6058992500734L399.9999694824219 -1501.2117919921875Z " transform="rotate(74, 400, 400)" opacity="0.79"></path><path d="M399.9999694824219 -1449.82763671875L2002.0000718491879 -524.9137951318285V1324.913888042015L399.9999694824219 2249.8277296289366L-1202.0001328843443 1324.913888042015V-524.9137951318285L399.9999694824219 -1449.82763671875Z " transform="rotate(72, 400, 400)" opacity="0.77"></path><path d="M399.9999694824219 -1398.443603515625L1957.5000690056668 -499.22181308389554V1299.2217677795634L399.9999694824219 2198.4435582112924L-1157.500130040823 1299.2217677795634V-499.22181308389554L399.9999694824219 -1398.443603515625Z " transform="rotate(70, 400, 400)" opacity="0.75"></path><path d="M399.9999694824219 -1347.0594482421875L1913.0000661621452 -473.52970896565034V1273.5297695874242L399.9999694824219 2147.059508863961L-1113.000127197302 1273.5297695874242V-473.52970896565034L399.9999694824219 -1347.0594482421875Z " transform="rotate(68, 400, 400)" opacity="0.73"></path><path d="M399.9999694824219 -1295.6754150390625L1868.5000633186241 -447.83772691771765V1247.837649324972L399.9999694824219 2095.675337446317L-1068.5001243537806 1247.837649324972V-447.83772691771765L399.9999694824219 -1295.6754150390625Z " transform="rotate(66, 400, 400)" opacity="0.71"></path><path d="M399.9999694824219 -1244.291259765625L1824.000060475103 -422.1456227994722V1222.1456511328329L399.9999694824219 2044.2912880989857L-1024.0001215102593 1222.1456511328329V-422.1456227994722L399.9999694824219 -1244.291259765625Z " transform="rotate(64, 400, 400)" opacity="0.69"></path><path d="M399.9999694824219 -1192.9072265625L1779.5000576315815 -396.45364075153975V1196.4535308703812L399.9999694824219 1992.9071166813414L-979.500118666738 1196.4535308703812V-396.45364075153975L399.9999694824219 -1192.9072265625Z " transform="rotate(62, 400, 400)" opacity="0.67"></path><path d="M399.9999694824219 -1141.5230712890625L1735.0000547880604 -370.76153663329444V1170.7615326782416L399.9999694824219 1941.5230673340097L-935.0001158232167 1170.7615326782416V-370.76153663329444L399.9999694824219 -1141.5230712890625Z " transform="rotate(60, 400, 400)" opacity="0.65"></path><path d="M399.9999694824219 -1090.138916015625L1690.5000519445393 -345.06943251504924V1145.0695344861024L399.9999694824219 1890.139017986678L-890.5001129796954 1145.0695344861024V-345.06943251504924L399.9999694824219 -1090.138916015625Z " transform="rotate(58, 400, 400)" opacity="0.63"></path><path d="M399.9999694824219 -1038.7548828125L1646.0000491010182 -319.37745046711643V1119.3774142236507L399.9999694824219 1838.7548465690343L-846.000110136174 1119.3774142236507V-319.37745046711643L399.9999694824219 -1038.7548828125Z " transform="rotate(56, 400, 400)" opacity="0.61"></path><path d="M399.9999694824219 -987.3707275390625L1601.5000462574967 -293.68534634887124V1093.685416031511L399.9999694824219 1787.3707972217026L-801.5001072926528 1093.685416031511V-293.68534634887124L399.9999694824219 -987.3707275390625Z " transform="rotate(54, 400, 400)" opacity="0.59"></path><path d="M399.99993896484375 -935.9866943359375L1557.0000128963975 -267.99336430093854V1067.9932957690594L399.99993896484375 1735.9866258040583L-757.0001349667097 1067.9932957690594V-267.99336430093854L399.99993896484375 -935.9866943359375Z " transform="rotate(52, 400, 400)" opacity="0.57"></path><path d="M399.99993896484375 -884.6025390625L1512.500010052876 -242.30126018269323V1042.3012975769202L399.99993896484375 1684.602576456727L-712.5001321231885 1042.3012975769202V-242.30126018269323L399.99993896484375 -884.6025390625Z " transform="rotate(50, 400, 400)" opacity="0.55"></path><path d="M399.99993896484375 -833.218505859375L1468.0000072093549 -216.60927813476053V1016.6091773144681L399.99993896484375 1633.2184050390829L-668.0001292796671 1016.6091773144681V-216.60927813476053L399.99993896484375 -833.218505859375Z " transform="rotate(48, 400, 400)" opacity="0.53"></path><path d="M399.99993896484375 -781.8343505859375L1423.5000043658333 -190.91717401651533V990.9171791223289L399.99993896484375 1581.8343556917512L-623.5001264361458 990.9171791223289V-190.91717401651533L399.99993896484375 -781.8343505859375Z " transform="rotate(46, 400, 400)" opacity="0.50"></path><path d="M399.99993896484375 -730.4501953125L1379.0000015223122 -165.22506989827002V965.2251809301899L399.99993896484375 1530.45030634442L-579.0001235926245 965.2251809301899V-165.22506989827002L399.99993896484375 -730.4501953125Z " transform="rotate(44, 400, 400)" opacity="0.48"></path><path d="M400.00006103515625 -679.066162109375L1334.5001207491032 -139.53308785033732V939.533060667738L400.00006103515625 1479.0661349267757L-534.4999986787907 939.533060667738V-139.53308785033732L400.00006103515625 -679.066162109375Z " transform="rotate(42, 400, 400)" opacity="0.46"></path><path d="M400.00006103515625 -627.6820068359375L1290.0001179055816 -113.84098373209213V913.8410624755986L400.00006103515625 1427.682085579444L-489.9999958352695 913.8410624755986V-113.84098373209213L400.00006103515625 -627.6820068359375Z " transform="rotate(40, 400, 400)" opacity="0.44"></path><path d="M400 -576.2979736328125L1245.5000540269043 -88.14900168415943V888.1489422131469L400 1376.2979141617998L-445.5000540269044 888.1489422131469V-88.14900168415943L400 -576.2979736328125Z " transform="rotate(38, 400, 400)" opacity="0.42"></path><path d="M400 -524.913818359375L1201.000051183383 -62.45689756591423V862.4569440210075L400 1324.913864814468L-401.00005118338316 862.4569440210075V-62.45689756591423L400 -524.913818359375Z " transform="rotate(36, 400, 400)" opacity="0.40"></path><path d="M400 -473.52972412109375L1156.5000483398617 -36.76485448282517V836.7648847937121L400 1273.5297544319806L-356.50004833986185 836.7648847937121V-36.76485448282517L400 -473.52972412109375Z " transform="rotate(34, 400, 400)" opacity="0.38"></path><path d="M399.9999694824219 -422.1456298828125L1112.0000149787625 -11.07281139973611V811.0728255664164L399.9999694824219 1222.1456440494928L-312.0000760139187 811.0728255664164V-11.07281139973611L399.9999694824219 -422.1456298828125Z " transform="rotate(32, 400, 400)" opacity="0.36"></path><path d="M399.9999694824219 -370.76153564453125L1067.5000121352411 14.619231683352837V785.3807663391208L399.9999694824219 1170.7615336670049L-267.5000731703974 785.3807663391208V14.619231683352837L399.9999694824219 -370.76153564453125Z " transform="rotate(30, 400, 400)" opacity="0.34"></path><path d="M399.9999694824219 -319.37744140625L1023.0000092917201 40.311274766441784V759.6887071118254L399.9999694824219 1119.3774232845171L-223.00007032687614 759.6887071118254V40.311274766441784L399.9999694824219 -319.37744140625Z " transform="rotate(28, 400, 400)" opacity="0.32"></path><path d="M399.9999694824219 -267.99334716796875L978.5000064481987 66.00331784953073V733.9966478845297L399.9999694824219 1067.9933129020292L-178.50006748335483 733.9966478845297V66.00331784953073L399.9999694824219 -267.99334716796875Z " transform="rotate(26, 400, 400)" opacity="0.30"></path><path d="M399.9999694824219 -216.6092529296875L934.0000036046774 91.69536093261968V708.304588657234L399.9999694824219 1016.6092025195414L-134.00006463983357 708.304588657234V91.69536093261968L399.9999694824219 -216.6092529296875Z " transform="rotate(24, 400, 400)" opacity="0.28"></path><path d="M399.9999694824219 -165.22509765625L889.5000007611561 117.38746505086499V682.6125904650949L399.9999694824219 965.22515317221L-89.50006179631225 682.6125904650949V117.38746505086499L399.9999694824219 -165.22509765625Z " transform="rotate(22, 400, 400)" opacity="0.26"></path><path d="M399.9999694824219 -113.84100341796875L844.9999979176346 143.07950813395394V656.9205312377993L399.9999694824219 913.841042789722L-45.000058952790994 656.9205312377993V143.07950813395394L399.9999694824219 -113.84100341796875Z " transform="rotate(20, 400, 400)" opacity="0.24"></path><path d="M399.9999694824219 -62.4569091796875L800.4999950741135 168.77155121704288V631.2284720105038L399.9999694824219 862.456932407234L-0.5000561092696785 631.2284720105038V168.77155121704288L399.9999694824219 -62.4569091796875Z " transform="rotate(18, 400, 400)" opacity="0.22"></path><path d="M400.0000305175781 -11.07281494140625L756.0000532657484 194.46359430013194V605.5364127832082L400.0000305175781 811.0728220247465L44.00000776940783 605.5364127832082V194.46359430013194L400.0000305175781 -11.07281494140625Z " transform="rotate(16, 400, 400)" opacity="0.19"></path><path d="M400.0000305175781 40.311279296875L711.5000504222272 220.1556373832209V579.8443535559127L400.0000305175781 759.6887116422586L88.50001061292915 579.8443535559127V220.1556373832209L400.0000305175781 40.311279296875Z " transform="rotate(14, 400, 400)" opacity="0.17"></path><path d="M400.0000305175781 91.69537353515625L667.0000475787059 245.84768046630984V554.152294328617L400.0000305175781 708.3046012597707L133.0000134564504 554.152294328617V245.84768046630984L400.0000305175781 91.69537353515625Z " transform="rotate(12, 400, 400)" opacity="0.15"></path><path d="M400 143.07949829101562L622.5000142176063 271.53975406697697V528.4602656188997L400 656.920521394861L177.4999857823936 528.4602656188997V271.53975406697697L400 143.07949829101562Z " transform="rotate(10, 400, 400)" opacity="0.13"></path><path d="M400 194.46359252929688L578.0000113740851 297.231797150066V502.76820639160405L400 605.5364110123733L221.99998862591485 502.76820639160405V297.231797150066L400 194.46359252929688Z " transform="rotate(8, 400, 400)" opacity="0.11"></path><path d="M400 245.84768676757812L533.500008530564 322.9238402331549V477.0761471643085L400 554.1523006298853L266.49999146943617 477.0761471643085V322.9238402331549L400 245.84768676757812Z " transform="rotate(6, 400, 400)" opacity="0.09"></path><path d="M400 297.23179626464844L489.0000056870426 348.615898575033V451.384103195802L400 502.76820550618663L310.9999943129574 451.384103195802V348.615898575033L400 297.23179626464844Z " transform="rotate(4, 400, 400)" opacity="0.07"></path><path d="M400 348.6158905029297L444.5000028435213 374.30794165812193V425.6920439685065L400 451.3840951236988L355.49999715647874 425.6920439685065V374.30794165812193L400 348.6158905029297Z " transform="rotate(2, 400, 400)" opacity="0.05"></path></g></svg>