<svg width="1448" height="869" viewBox="0 0 1448 869" fill="none" xmlns="http://www.w3.org/2000/svg">
<path fill-rule="evenodd" clip-rule="evenodd" d="M144.673 0.506459H0.506441V144.679H129.738L144.673 129.742V0.506459ZM160.007 144.679L145.264 129.935V0.506459H289.431V144.679H160.007ZM145.264 159.794L159.788 145.27H289.431V289.442H145.264V159.794ZM129.957 145.27L144.673 159.986V289.442H0.506441V145.27H129.957ZM0 0V144.763V145.185V289.526V289.948V434.289V434.711V579.052V579.474V723.815V724.237V869H144.758H145.18H289.515H289.938H434.273H434.695H579.031H579.453H723.789H724.211H868.547H868.968H1013.3H1013.73H1158.06H1158.48H1302.82H1303.24H1448L1448 724.237V579.474V579.052V434.289V289.948V145.185V144.763V0H1303.24H1302.82H1158.48H1158.06H1013.73H1013.3H868.968H868.547H724.211H723.789H579.453H579.031H434.695H434.273H289.938H289.515H145.18H144.758H0ZM290.022 0.506459H434.189V144.679H290.022V0.506459ZM578.947 0.506459H434.78V144.679H578.947V0.506459ZM579.538 0.506459H723.705V144.679H579.538V0.506459ZM868.462 0.506459H724.295V144.679H868.462V0.506459ZM869.053 0.506459H1013.22V144.679H869.053V0.506459ZM1157.98 0.506459H1013.81V144.679H1157.98V0.506459ZM1158.57 0.506459H1302.74V144.679H1158.57V0.506459ZM1447.49 0.506459H1303.33V144.679H1447.49V0.506459ZM290.022 145.27H434.189V289.442H290.022V145.27ZM578.947 145.27H434.78V289.442H564.445L578.947 274.94V145.27ZM593.807 289.442L579.538 275.172V145.27H723.705V289.442H593.807ZM579.538 304.991L594.447 290.082L594.397 290.032H723.705V434.204H579.538V304.991ZM563.855 290.032L563.805 290.082L578.947 305.223V434.204H434.78V290.032H563.855ZM868.462 145.27H724.295V289.442H868.462V145.27ZM869.053 145.27H1013.22V289.442H869.053V145.27ZM1157.98 145.27H1013.81V289.442H1157.98V145.27ZM1158.57 145.27H1302.74V249.444L1302.49 249.688L1262.74 289.442H1158.57V145.27ZM1262.15 290.032H1158.57V420.001L1159.05 419.517L1173.74 434.204H1302.74V330.72L1302.49 330.475L1262.49 290.473L1262.1 290.082L1262.15 290.032ZM1302.74 329.938L1262.88 290.082L1262.93 290.032H1287.61L1287.56 290.082L1302.74 305.256V329.938ZM1303.33 330.422V434.204H1447.49V290.032H1343.62L1343.66 290.082L1343.27 290.473L1303.33 330.422ZM1342.83 290.032L1342.88 290.082L1303.33 329.639V304.958L1318.2 290.082L1318.15 290.032H1342.83ZM1343.02 289.442H1447.49V145.27H1303.33V249.742L1343.02 289.442ZM1303.33 250.524L1342.24 289.442H1317.56L1303.33 275.205V250.524ZM1302.74 250.226L1263.52 289.442H1288.2L1302.74 274.907V250.226ZM1158.57 449.675L1159.05 450.159L1174.37 434.838L1174.33 434.795H1302.74V578.967H1158.57V449.675ZM1143.77 434.795L1143.73 434.838L1157.98 449.084V578.967H1013.81V434.795H1143.77ZM1157.98 420.592L1144.37 434.204H1013.81V290.032H1157.98V420.592ZM0.506441 290.032H144.673V434.204H0.506441V290.032ZM289.431 290.032H145.264V434.204H289.431V290.032ZM290.022 290.032H434.189V434.204H290.022V290.032ZM868.462 290.032H724.295V434.204H868.462V290.032ZM869.053 290.032H1013.22V434.204H869.053V290.032ZM0.506441 434.795H144.673V578.967H0.506441V434.795ZM289.431 434.795H145.264V578.967H249.597L249.41 578.78L249.801 578.389L289.431 538.757V434.795ZM289.431 539.539L250.192 578.78L250.379 578.967H275.06L274.872 578.78L289.431 564.22V539.539ZM290.022 563.63V538.949L290.193 538.778L330.193 578.78L330.006 578.967H305.326L305.513 578.78L290.193 563.459L290.022 563.63ZM290.022 593.93L290.193 594.101L304.735 579.558H329.415L290.193 618.782L290.022 618.611V593.93ZM275.651 579.558L289.431 593.339V618.021L250.97 579.558H275.651ZM250.188 579.558H145.264V723.73H289.431V618.803L250.188 579.558ZM290.022 619.393V723.73H434.189V579.558H330.197L290.584 619.173L290.193 619.564L290.022 619.393ZM330.788 578.967H434.189V434.795H290.022V538.166L290.193 537.995L290.584 538.387L330.584 578.389L330.976 578.78L330.788 578.967ZM578.947 434.795H434.78V578.967H578.947V434.795ZM579.538 434.795H723.705V578.967H579.538V434.795ZM868.462 434.795H724.295V578.967H868.462V434.795ZM869.053 434.795H1013.22V578.967H869.053V434.795ZM1447.49 434.795H1303.33V578.967H1447.49V434.795ZM0.506441 579.558H144.673V723.73H0.506441V579.558ZM578.947 579.558H434.78V723.73H578.947V579.558ZM579.538 579.558H723.705V723.73H579.538V579.558ZM868.462 579.558H724.295V723.73H868.462V579.558ZM869.053 579.558H1013.22V723.73H869.053V579.558ZM1157.98 579.558H1013.81V723.73H1157.98V579.558ZM1158.57 579.558H1302.74V723.73H1158.57V579.558ZM1447.49 579.558H1303.33V723.73H1447.49V579.558ZM0.506441 724.321H144.673V868.494H0.506441V724.321ZM289.431 724.321H145.264V868.494H289.431V724.321ZM290.022 724.321H434.189V868.494H290.022V724.321ZM578.947 724.321H434.78V868.494H578.947V724.321ZM579.538 724.321H723.705V868.494H579.538V724.321ZM868.462 724.321H724.295V868.494H868.462V724.321ZM869.053 724.321H1013.22V868.494H869.053V724.321ZM1157.98 724.321H1013.81V868.494H1157.98V724.321ZM1158.57 724.321H1302.74V868.494H1158.57V724.321ZM1447.49 724.321H1303.33V868.494H1447.49V724.321Z" fill="black" fill-opacity="0.51"/>
</svg>
