<svg width="256" height="256" viewBox="0 0 256 256" fill="none" xmlns="http://www.w3.org/2000/svg">
<path d="M178.672 53.328V40C178.672 35.584 175.088 32 170.672 32C166.256 32 162.672 35.584 162.672 40V53.328H178.672Z" fill="#0085FF"/>
<path d="M101.264 228.176C105.648 227.008 109.488 225.04 111.696 222.416C116.432 216.8 123.824 213.584 132.016 213.584C140.192 213.584 147.6 216.8 152.32 222.416C155.856 226.624 163.072 229.344 170.688 229.344C178.192 229.344 185.568 226.56 189.04 222.432C193.776 216.816 201.168 213.6 209.36 213.6C217.552 213.6 224.944 216.816 229.664 222.432C231.904 225.104 235.712 227.072 240.096 228.224L255.44 169.952C256.432 166.16 254.544 162.208 250.96 160.608L173.92 126.24C171.84 125.312 169.472 125.312 167.392 126.24L90.3843 160.592C86.8003 162.192 84.9123 166.144 85.9043 169.936L101.264 228.176Z" fill="#0085FF"/>
<path d="M248 256C232.368 256 217.872 249.856 209.232 239.568C200.8 249.856 186.304 256 170.672 256C155.04 256 140.544 249.856 131.904 239.568C123.456 249.856 108.96 256 93.3281 256C88.9121 256 85.3281 252.416 85.3281 248C85.3281 243.584 88.9121 240 93.3281 240C104.128 240 114.288 235.888 119.856 229.28C125.52 222.56 138.496 222.56 144.144 229.28C149.712 235.888 159.872 240 170.672 240C181.472 240 191.632 235.888 197.2 229.28C202.864 222.56 215.84 222.56 221.488 229.28C227.04 235.888 237.2 240 248 240C252.416 240 256 243.584 256 248C256 252.416 252.416 256 248 256Z" fill="#0085FF"/>
<path d="M162.672 106.672V116.704L136.432 128.432C136.32 126.832 136.112 125.12 135.68 123.424L131.408 106.672H162.672Z" fill="#0085FF"/>
<path d="M226.672 106.672H178.672V116.672L234.672 141.648V114.656C234.672 110.256 231.088 106.672 226.672 106.672Z" fill="#0085FF"/>
<path d="M202.672 72V96H138.672V86.608L149.664 77.216C153.92 73.6 156.912 69.008 158.512 64H194.672C199.04 64 202.672 67.632 202.672 72Z" fill="#0085FF"/>
<path d="M107.248 138.672C105.68 138.672 104.112 138.208 102.752 137.28L69.344 114.544L35.936 137.28C33.184 139.136 29.568 139.136 26.848 137.216C24.128 135.312 22.864 131.92 23.68 128.704L34.08 87.648L2.81596 60.944C0.335956 58.832 -0.608031 55.408 0.431969 52.304C1.47197 49.216 4.30396 47.056 7.56796 46.864L47.408 44.608L61.84 5.248C62.976 2.096 65.984 0 69.328 0C72.672 0 75.68 2.096 76.832 5.248L91.264 44.608L131.104 46.864C134.368 47.056 137.184 49.2 138.24 52.304C139.28 55.408 138.336 58.832 135.856 60.944L104.592 87.648L114.992 128.704C115.808 131.92 114.544 135.312 111.824 137.216C110.448 138.176 108.848 138.672 107.248 138.672Z" fill="#FFD200"/>
</svg>
