<svg width="256" height="256" viewBox="0 0 256 256" fill="none" xmlns="http://www.w3.org/2000/svg">
<path d="M101.264 228.176C105.648 227.008 109.488 225.04 111.696 222.416C116.432 216.8 123.824 213.584 132.016 213.584C140.192 213.584 147.6 216.8 152.32 222.416C155.856 226.624 163.072 229.344 170.688 229.344C178.192 229.344 185.568 226.56 189.04 222.432C193.776 216.816 201.168 213.6 209.36 213.6C217.552 213.6 224.944 216.816 229.664 222.432C231.904 225.104 235.712 227.072 240.096 228.224L255.44 169.952C256.432 166.16 254.544 162.208 250.96 160.608L173.92 126.24C171.84 125.312 169.472 125.312 167.392 126.24L90.3843 160.592C86.8003 162.192 84.9123 166.144 85.9043 169.936L101.264 228.176Z" fill="#0085FF"/>
<path d="M248 256C232.368 256 217.872 249.856 209.232 239.568C200.8 249.856 186.304 256 170.672 256C155.04 256 140.544 249.856 131.904 239.568C123.456 249.856 108.96 256 93.3281 256C88.9121 256 85.3281 252.416 85.3281 248C85.3281 243.584 88.9121 240 93.3281 240C104.128 240 114.288 235.888 119.856 229.28C125.52 222.56 138.496 222.56 144.144 229.28C149.712 235.888 159.872 240 170.672 240C181.472 240 191.632 235.888 197.2 229.28C202.864 222.56 215.84 222.56 221.488 229.28C227.04 235.888 237.2 240 248 240C252.416 240 256 243.584 256 248C256 252.416 252.416 256 248 256Z" fill="#0085FF"/>
<path d="M162.672 106.672V116.704L106.672 141.664V133.344L137.504 118.192C142.416 115.744 146.032 111.584 147.856 106.672H162.672Z" fill="#0085FF"/>
<path d="M226.672 106.672H178.672V116.672L234.672 141.648V114.656C234.672 110.256 231.088 106.672 226.672 106.672Z" fill="#0085FF"/>
<path d="M178.672 53.328V40C178.672 35.584 175.088 32 170.672 32C166.256 32 162.672 35.584 162.672 40V53.328H178.672Z" fill="#0085FF"/>
<path d="M202.672 72V96H149.344V64H194.672C199.04 64 202.672 67.632 202.672 72Z" fill="#0085FF"/>
<path d="M0 99.024L58.624 128V71.312L0 43.104V99.024Z" fill="#FFD200"/>
<path d="M102.256 39.44C102.56 39.6 102.816 39.84 103.104 40.032L122.288 30.352L64.0477 0L45.0557 9.888L102.256 39.44Z" fill="#FFD200"/>
<path d="M27.3121 19.1199L5.74414 30.3519L64.0481 59.7599L85.2481 49.0559L27.3121 19.1199Z" fill="#FFD200"/>
<path d="M106.672 53.3761V75.9521C106.672 80.4961 103.088 84.1761 98.672 84.1761C94.256 84.1761 90.672 80.4961 90.672 75.9521V61.0721L69.376 71.3121V128L128 99.0241V43.1201L106.672 53.3761Z" fill="#FFD200"/>
</svg>
