<svg width="204" height="256" viewBox="0 0 204 256" fill="none" xmlns="http://www.w3.org/2000/svg">
<path d="M38 227.792L96.624 256V200.816L38 173.36V227.792Z" fill="#0085FF"/>
<path d="M140.256 169.792C140.56 169.952 140.816 170.176 141.104 170.368L160.288 160.944L102.048 131.392L83.0557 141.024L140.256 169.792Z" fill="#0085FF"/>
<path d="M65.3121 150.016L43.7441 160.944L102.048 189.584L123.248 179.152L65.3121 150.016Z" fill="#0085FF"/>
<path d="M144.672 183.36V205.344C144.672 209.76 141.088 213.344 136.672 213.344C132.256 213.344 128.672 209.76 128.672 205.344V190.848L107.376 200.816V256L166 227.792V173.376L144.672 183.36Z" fill="#0085FF"/>
<path d="M196.783 94.48C192.975 92.176 188.063 93.44 185.807 97.232L156.191 146.592L170.543 153.776L199.535 105.456C201.807 101.664 200.575 96.752 196.783 94.48Z" fill="#FC573B"/>
<path d="M131.759 134.352L146.479 104.912C148.463 100.96 146.847 96.1601 142.895 94.1761C138.943 92.2081 134.143 93.8081 132.159 97.7601L117.439 127.2L131.759 134.352Z" fill="#FC573B"/>
<path d="M72.3199 134.528L86.5919 127.28L71.8239 97.7601C69.8399 93.8241 65.0559 92.1921 61.0879 94.1761C57.1359 96.1601 55.5199 100.96 57.5039 104.912L72.3199 134.528Z" fill="#FC573B"/>
<path d="M48.1438 146.8L18.1758 97.2C15.8878 93.424 10.9598 92.192 7.19984 94.48C3.42384 96.768 2.19184 101.68 4.49584 105.472L33.8398 154.048L48.1438 146.8Z" fill="#FC573B"/>
<path d="M102 0C46.1279 0 0.671875 44.256 0.671875 98.672C0.671875 103.088 4.25588 106.672 8.67188 106.672H195.344C199.76 106.672 203.344 103.088 203.344 98.672C203.328 44.256 157.872 0 102 0Z" fill="#FC573B"/>
</svg>
