<svg width="256" height="256" viewBox="0 0 256 256" fill="none" xmlns="http://www.w3.org/2000/svg">
<path d="M154.272 256C153.92 256 153.552 255.984 153.2 255.952C149.184 255.632 145.52 253.6 143.152 250.336L130.768 233.344L112.272 219.648C109.04 217.264 107.008 213.584 106.704 209.584C106.4 205.584 107.856 201.648 110.688 198.816C114.848 194.64 121.04 193.456 126.464 195.824L137.936 200.832L162.672 174.176L116.56 149.776C112.4 147.28 109.936 143.456 109.392 139.088C108.864 134.704 110.336 130.416 113.456 127.296C116.592 124.144 121.072 122.832 125.424 123.776L194.944 138.512L219.536 112.384C222.896 108.816 228.368 106.736 234.56 106.64C241.344 106.448 246.816 108.56 250.432 112.176C254.048 115.792 256.064 121.584 255.968 128.064C255.872 134.256 253.792 139.728 250.24 143.088L224.032 167.808L240.032 238.128C241.056 242.496 239.76 247.072 236.544 250.288C233.456 253.392 229.136 254.896 224.832 254.368C220.48 253.856 216.656 251.424 214.352 247.68L188.544 199.984L161.936 224.72L166.944 236.208C169.312 241.616 168.128 247.808 163.952 251.984C161.408 254.56 157.904 256 154.272 256Z" fill="#0085FF"/>
<path d="M205.328 0H160V88C160 91.072 158.24 93.888 155.456 95.216C154.368 95.744 153.184 96 152 96C150.224 96 148.448 95.408 146.992 94.24L112 66.24L76.992 94.24C74.592 96.176 71.296 96.544 68.528 95.2C65.76 93.888 64 91.072 64 88V0H18.672C8.368 0 0 8.368 0 18.672V205.344C0 215.632 8.368 224 18.672 224H89.072C87.12 220.032 85.792 215.728 85.456 211.216C84.688 201.008 88.4 190.992 95.632 183.76C101.2 178.176 108.32 174.656 116 173.632C116 173.632 105.936 168.304 105.616 168.112C95.92 162.304 89.584 152.672 88.24 141.728C86.912 130.752 90.624 120.032 98.416 112.24C104.848 105.776 113.472 102.192 122.672 102.192C125.136 102.192 127.6 102.464 130 102.976L187.68 115.2L204.048 97.808C209.184 92.368 216.192 88.624 224.016 86.752V18.672C224 8.368 215.632 0 205.328 0Z" fill="#FC573B"/>
</svg>
