<svg width="256" height="256" viewBox="0 0 256 256" fill="none" xmlns="http://www.w3.org/2000/svg">
<path d="M109.328 0H85.328V45.328C85.328 49.744 81.744 53.328 77.328 53.328H50.656C46.24 53.328 42.656 49.744 42.656 45.328V0H18.656C8.36801 0 0 8.368 0 18.672V109.344C0 119.632 8.368 128 18.672 128H109.344C119.632 128 128 119.632 128 109.328V18.672C128 8.368 119.632 0 109.328 0ZM98.672 101.328H77.344C72.928 101.328 69.344 97.744 69.344 93.328C69.344 88.912 72.928 85.328 77.344 85.328H98.672C103.088 85.328 106.672 88.912 106.672 93.328C106.672 97.744 103.088 101.328 98.672 101.328Z" fill="#0085FF"/>
<path d="M80.0001 202.672C65.2801 202.672 53.3281 214.624 53.3281 229.344C53.3281 244.064 65.2801 256 80.0001 256C94.7201 256 106.672 244.048 106.672 229.328C106.672 214.608 94.7201 202.672 80.0001 202.672Z" fill="#EA0303"/>
<path d="M208 202.672C193.28 202.672 181.328 214.624 181.328 229.344C181.328 244.064 193.28 256 208 256C222.72 256 234.672 244.048 234.672 229.328C234.672 214.608 222.72 202.672 208 202.672Z" fill="#EA0303"/>
<path d="M160 114.672V226.672C160 231.04 156.368 234.672 152 234.672H116.8C117.008 232.96 117.328 231.152 117.328 229.344C117.328 208.752 100.592 192 80.0001 192C59.4081 192 42.6721 208.752 42.6721 229.328C42.6721 231.136 42.9921 232.96 43.2001 234.656H29.3281C24.9601 234.656 21.3281 231.024 21.3281 226.656V149.328H109.328C131.408 149.328 149.328 131.408 149.328 109.328V106.656H152C156.368 106.672 160 110.288 160 114.672Z" fill="#EA0303"/>
<path d="M205.328 144.528H178.656C174.24 144.528 170.656 148.112 170.656 152.528V226.656C170.656 226.976 170.8 227.232 170.832 227.552C171.792 207.808 188.032 192 208 192C228.576 192 245.328 208.752 245.328 229.328C245.328 231.152 245.04 232.912 244.784 234.656H247.984C252.4 234.656 255.984 231.072 255.984 226.656V195.2C256 167.264 233.264 144.528 205.328 144.528Z" fill="#EA0303"/>
</svg>
