<svg width="256" height="256" viewBox="0 0 256 256" fill="none" xmlns="http://www.w3.org/2000/svg">
<path d="M30.496 10.192L0.880005 52.368C0.304005 53.504 0.0960018 54.752 0.0800018 55.984H0V64H8H23.296H98.656V0H47.104C40.064 0 33.68 3.904 30.496 10.192Z" fill="#0085FF"/>
<path d="M213.312 56.064C213.328 54.72 213.008 53.36 212.336 52.144L180.128 9.664C176.848 3.696 170.576 0 163.776 0H114.656V64H185.872H205.328H213.328L213.312 56.064Z" fill="#0085FF"/>
<path d="M85.44 211.216C84.672 200.992 88.384 190.976 95.632 183.744C101.2 178.16 108.304 174.656 115.984 173.632C115.984 173.632 105.92 168.304 105.584 168.096C95.904 162.288 89.584 152.672 88.224 141.744C86.912 130.72 90.624 120.016 98.384 112.256C104.832 105.776 113.456 102.192 122.64 102.192C125.104 102.192 127.568 102.464 129.984 102.976L187.648 115.2L204.032 97.808C206.656 95.024 209.872 92.816 213.328 90.928V74.688H0V194.688C0 204.976 8.368 213.36 18.672 213.36H85.84C85.728 212.624 85.488 211.936 85.44 211.216Z" fill="#0085FF"/>
<path d="M154.272 256C153.92 256 153.552 255.984 153.2 255.952C149.184 255.632 145.52 253.6 143.152 250.336L130.768 233.344L112.272 219.648C109.04 217.264 107.008 213.584 106.704 209.584C106.4 205.584 107.856 201.648 110.688 198.816C114.848 194.64 121.04 193.456 126.464 195.824L137.936 200.832L162.672 174.176L116.56 149.776C112.4 147.28 109.936 143.456 109.392 139.088C108.864 134.704 110.336 130.416 113.456 127.296C116.592 124.144 121.072 122.832 125.424 123.776L194.944 138.512L219.536 112.384C222.896 108.816 228.368 106.736 234.56 106.64C241.344 106.448 246.816 108.56 250.432 112.176C254.048 115.792 256.064 121.584 255.968 128.064C255.872 134.256 253.792 139.728 250.24 143.088L224.032 167.808L240.032 238.128C241.056 242.496 239.76 247.072 236.544 250.288C233.456 253.392 229.136 254.896 224.832 254.368C220.48 253.856 216.656 251.424 214.352 247.68L188.544 199.984L161.936 224.72L166.944 236.208C169.312 241.616 168.128 247.808 163.952 251.984C161.408 254.56 157.904 256 154.272 256Z" fill="#FFD200"/>
</svg>
