<svg width="256" height="214" viewBox="0 0 256 214" fill="none" xmlns="http://www.w3.org/2000/svg">
<path d="M256 93.672V101.672H200C192.64 101.672 186.672 95.704 186.672 88.344V43H205.344C233.28 43 256 65.72 256 93.672Z" fill="#FC573B"/>
<path d="M256 117.672V184.344C256 188.712 252.368 192.344 248 192.344H234.24C234.56 190.632 234.672 188.824 234.672 187.016C234.672 166.424 217.92 149.688 197.344 149.688C176.768 149.688 160 166.408 160 187C160 188.808 160.112 190.632 160.432 192.328H157.344C152.976 192.328 149.344 188.696 149.344 184.328V51C149.344 46.632 152.976 43 157.344 43H170.672V88.328C170.672 104.536 183.792 117.656 200 117.656L256 117.672Z" fill="#FC573B"/>
<path d="M120 0.328125H8C3.632 0.328125 0 3.96012 0 8.32812V184.328C0 184.536 -4.91738e-07 184.856 0.112 185.08C1.072 165.352 17.392 149.672 37.344 149.672C50.992 149.672 62.832 157.032 69.344 167.912C75.856 157.032 87.696 149.672 101.344 149.672C121.296 149.672 137.616 165.352 138.576 185.08C138.688 184.872 138.688 184.552 138.688 184.328V19.0001C138.672 8.76012 130.24 0.328125 120 0.328125ZM48 131C48 135.368 44.368 139 40 139C35.632 139 32 135.368 32 131V40.3281C32 35.9601 35.632 32.3281 40 32.3281C44.368 32.3281 48 35.9601 48 40.3281V131ZM101.328 131C101.328 135.368 97.696 139 93.328 139C88.96 139 85.328 135.368 85.328 131V40.3281C85.328 35.9601 88.96 32.3281 93.328 32.3281C97.696 32.3281 101.328 35.9601 101.328 40.3281V131Z" fill="#FC573B"/>
<path d="M197.328 213.672C182.624 213.672 170.656 201.704 170.656 187C170.656 172.296 182.624 160.328 197.328 160.328C212.032 160.328 224 172.296 224 187C224 201.704 212.032 213.672 197.328 213.672Z" fill="#0085FF"/>
<path d="M101.328 213.672C86.6242 213.672 74.6562 201.704 74.6562 187C74.6562 172.296 86.6242 160.328 101.328 160.328C116.032 160.328 128 172.296 128 187C128 201.704 116.032 213.672 101.328 213.672Z" fill="#0085FF"/>
<path d="M37.3282 213.672C22.6242 213.672 10.6562 201.704 10.6562 187C10.6562 172.296 22.6242 160.328 37.3282 160.328C52.0322 160.328 64.0002 172.296 64.0002 187C64.0002 201.704 52.0322 213.672 37.3282 213.672Z" fill="#0085FF"/>
</svg>
