<svg width="256" height="182" viewBox="0 0 256 182" fill="none" xmlns="http://www.w3.org/2000/svg">
<path d="M202.672 181.672C187.952 181.672 176 169.704 176 155C176 140.296 187.952 128.328 202.672 128.328C217.376 128.328 229.344 140.296 229.344 155C229.328 169.704 217.376 181.672 202.672 181.672Z" fill="#0085FF"/>
<path d="M48.0001 181.672C33.2961 181.672 21.3281 169.704 21.3281 155C21.3281 140.296 33.2801 128.328 48.0001 128.328C62.7201 128.328 74.6721 140.296 74.6721 155C74.6721 169.704 62.7041 181.672 48.0001 181.672Z" fill="#0085FF"/>
<path d="M157.328 64.3279H218.656C220.944 64.3279 223.136 64.8879 225.248 65.6879L219.792 43.8799C216.528 30.8079 204.816 21.6719 191.328 21.6719H157.312C152.897 21.6719 149.312 25.2559 149.312 29.6719V66.2159C151.76 65.0479 154.464 64.3279 157.328 64.3279Z" fill="#EA0303"/>
<path d="M252.288 94.92L222.96 76.248C221.68 75.432 220.192 75 218.672 75H157.344C152.928 75 149.344 78.584 149.344 83V152.328C149.344 156.744 152.928 160.328 157.344 160.328H165.888C165.632 158.568 165.344 156.824 165.344 155C165.344 134.424 182.096 117.672 202.672 117.672C223.248 117.672 240 134.424 240 155C240 156.824 239.712 158.584 239.456 160.328H248C252.416 160.328 256 156.744 256 152.328V101.656C256 98.936 254.608 96.392 252.288 94.92Z" fill="#EA0303"/>
<path d="M130.672 0.327881H8C3.584 0.327881 0 3.91188 0 8.32788V152.328C0 156.744 3.584 160.328 8 160.328H11.2C10.944 158.568 10.656 156.824 10.656 155C10.656 134.424 27.408 117.672 47.984 117.672C68.56 117.672 85.312 134.424 85.312 155C85.312 156.824 85.024 158.584 84.768 160.328H130.64C135.056 160.328 138.64 156.744 138.64 152.328V8.32788C138.672 3.91188 135.088 0.327881 130.672 0.327881Z" fill="#EA0303"/>
</svg>
