<svg width="256" height="256" viewBox="0 0 256 256" fill="none" xmlns="http://www.w3.org/2000/svg">
<path d="M80.0001 256C65.2961 256 53.3281 244.032 53.3281 229.328C53.3281 214.624 65.2961 202.656 80.0001 202.656C94.7041 202.656 106.672 214.624 106.672 229.328C106.672 244.032 94.7041 256 80.0001 256Z" fill="#FFD200"/>
<path d="M208 256C193.296 256 181.328 244.032 181.328 229.328C181.328 214.624 193.296 202.656 208 202.656C222.704 202.656 234.672 214.624 234.672 229.328C234.672 244.032 222.704 256 208 256Z" fill="#FFD200"/>
<path d="M205.328 144.528H178.656C174.24 144.528 170.656 148.112 170.656 152.528V226.656C170.656 226.976 170.8 227.232 170.832 227.552C171.792 207.808 188.032 192 208 192C228.576 192 245.328 208.752 245.328 229.328C245.328 231.152 245.04 232.912 244.784 234.656H247.984C252.4 234.656 255.984 231.072 255.984 226.656V195.2C256 167.264 233.264 144.528 205.328 144.528Z" fill="#FFD200"/>
<path d="M152 106.672H139.856C130.448 124.368 114.688 138.176 95.5198 144.848C95.1678 145.008 94.8158 145.104 94.4638 145.232C86.5598 147.856 78.1278 149.328 69.3438 149.328C60.5597 149.328 52.1438 147.856 44.2238 145.232C43.8718 145.104 43.5038 144.992 43.1678 144.848C35.2318 142.096 27.9198 138.048 21.3438 133.088V226.672C21.3438 231.088 24.9278 234.672 29.3438 234.672H43.1998C42.9438 232.912 42.6558 231.168 42.6558 229.344C42.6718 208.752 59.4238 192 79.9998 192C100.576 192 117.328 208.752 117.328 229.328C117.328 231.152 117.04 232.912 116.784 234.656H151.984C156.4 234.656 159.984 231.072 159.984 226.656V114.656C160 110.256 156.416 106.672 152 106.672Z" fill="#FFD200"/>
<path d="M135.056 91.264C135.12 91.12 135.168 90.96 135.216 90.816C137.424 84.048 138.672 76.832 138.672 69.328C138.672 61.824 137.44 54.608 135.216 47.84C135.152 47.696 135.12 47.536 135.056 47.392C128.16 26.8 111.872 10.512 91.28 3.616C91.136 3.552 90.976 3.50399 90.832 3.45599C84.048 1.23199 76.832 0 69.328 0C61.824 0 54.608 1.23199 47.84 3.45599C47.696 3.51999 47.536 3.552 47.392 3.616C26.8 10.512 10.512 26.8 3.616 47.392C3.552 47.536 3.50399 47.696 3.45599 47.84C1.23199 54.624 0 61.824 0 69.328C0 76.832 1.23199 84.048 3.45599 90.816C3.51999 90.96 3.552 91.12 3.616 91.264C10.512 111.856 26.8 128.144 47.392 135.04C47.536 135.104 47.696 135.152 47.84 135.2C54.608 137.408 61.824 138.656 69.328 138.656C76.832 138.656 84.048 137.424 90.816 135.2C90.96 135.136 91.12 135.104 91.264 135.04C111.872 128.16 128.16 111.872 135.056 91.264ZM96 115.248V96H115.248C110.592 103.984 103.984 110.592 96 115.248ZM16 69.328C16 65.68 16.368 62.112 17.072 58.656H42.656V80H17.072C16.368 76.544 16 72.992 16 69.328ZM58.672 58.672H80V80H58.672V58.672ZM96 58.672H121.584C122.288 62.112 122.656 65.68 122.656 69.344C122.656 73.008 122.288 76.544 121.584 80H96V58.672ZM115.248 42.672H96V23.424C103.984 28.08 110.592 34.672 115.248 42.672ZM80 17.072V42.656H58.672V17.072C62.112 16.368 65.68 16 69.328 16C72.976 16 76.544 16.368 80 17.072ZM42.672 23.424V42.672H23.424C28.08 34.672 34.672 28.08 42.672 23.424ZM23.424 96H42.672V115.248C34.672 110.592 28.08 103.984 23.424 96ZM58.672 121.584V96H80V121.584C76.56 122.288 72.992 122.656 69.328 122.656C65.664 122.656 62.112 122.288 58.672 121.584Z" fill="#0085FF"/>
</svg>
