<svg width="256" height="204" viewBox="0 0 256 204" fill="none" xmlns="http://www.w3.org/2000/svg">
<path d="M226.32 160.672L240.864 144.672H248C252.416 144.672 256 141.088 256 136.672C256 132.256 252.416 128.672 248 128.672H237.376H237.312H8.00027C5.63227 128.672 3.37627 129.728 1.85627 131.552C0.336273 133.376 -0.303724 135.776 0.128276 138.112L4.22427 160.672H226.32Z" fill="#FFD200"/>
<path d="M6.17578 171.328L10.7998 196.768C11.4878 200.576 14.7998 203.328 18.6718 203.328H184C186.256 203.328 188.4 202.368 189.92 200.704L216.624 171.328H6.17578Z" fill="#FFD200"/>
<path d="M48 53.9999V8.67187C48 4.25587 44.416 0.671875 40 0.671875H8C3.584 0.671875 0 4.25587 0 8.67187V53.9999H48Z" fill="#0085FF"/>
<path d="M48 118V72.6719C48 68.2559 44.416 64.6719 40 64.6719H8C3.584 64.6719 0 68.2559 0 72.6719V118H48Z" fill="#0085FF"/>
<path d="M106.672 118V72.6719C106.672 68.2559 103.088 64.6719 98.6719 64.6719H66.6719C62.2559 64.6719 58.6719 68.2559 58.6719 72.6719V118H106.672Z" fill="#0085FF"/>
<path d="M181.328 118V83.3276C181.328 78.9116 177.744 75.3276 173.328 75.3276H136C131.584 75.3276 128 78.9116 128 83.3276V118H181.328Z" fill="#0085FF"/>
<path d="M245.328 118V83.3276C245.328 78.9116 241.744 75.3276 237.328 75.3276H200C195.584 75.3276 192 78.9116 192 83.3276V118H245.328Z" fill="#0085FF"/>
<path d="M202.672 64.672V30C202.672 25.584 199.088 22 194.672 22H157.344C152.928 22 149.344 25.584 149.344 30V64.672H202.672Z" fill="#0085FF"/>
</svg>
