<svg width="256" height="256" viewBox="0 0 256 256" fill="none" xmlns="http://www.w3.org/2000/svg">
<path d="M136 8V21.328H120V8C120 3.632 123.632 0 128 0C132.368 0 136 3.632 136 8Z" fill="#FFD200"/>
<path d="M162.672 32H93.3438C88.9278 32 85.3438 35.584 85.3438 40V74.672H170.672V40C170.672 35.584 167.088 32 162.672 32Z" fill="#FFD200"/>
<path d="M61.3281 85.3279C56.9601 85.3279 53.3281 88.9599 53.3281 93.3279V132.688L120 108.576V85.3279H61.3281Z" fill="#FFD200"/>
<path d="M194.672 85.3279H136V108.48L202.672 132.688V93.3279C202.672 88.9599 199.04 85.3279 194.672 85.3279Z" fill="#FFD200"/>
<path d="M218.352 149.648L130.672 117.968C128.96 117.328 127.04 117.328 125.344 117.968L37.664 149.648C33.824 151.04 31.584 155.088 32.544 159.04L43.952 208.848C44.16 208.736 44.384 208.736 44.592 208.736C46.08 208.416 47.264 208.416 48 208.416C57.072 208.416 65.28 212.576 69.872 219.728C73.92 225.808 80.544 229.328 88 229.328C95.472 229.328 102.08 225.808 106.24 219.616C110.72 212.576 118.928 208.416 128 208.416C137.072 208.416 145.28 212.576 149.872 219.728C153.92 225.808 160.544 229.328 168 229.328C175.472 229.328 182.08 225.808 186.24 219.616C190.72 212.576 198.928 208.416 208 208.416C208.752 208.416 209.92 208.416 211.408 208.736C211.616 208.736 211.84 208.736 212.048 208.848L223.456 159.04C224.432 155.088 222.192 151.04 218.352 149.648Z" fill="#FFD200"/>
<path d="M256 248C256 252.368 252.368 256 248 256H8C3.632 256 0 252.368 0 248C0 243.632 3.632 240 8 240C19.088 240 29.12 234.56 35.088 225.488C37.536 221.648 41.808 219.52 46.4 219.296C46.928 219.088 47.472 219.088 48 219.088C53.12 219.088 58.128 221.216 60.912 225.488C66.88 234.56 76.912 240 88 240C99.088 240 109.12 234.56 115.088 225.488C117.856 221.216 122.88 219.088 128 219.088C133.12 219.088 138.128 221.216 140.912 225.488C146.88 234.56 156.912 240 168 240C179.088 240 189.12 234.56 195.088 225.488C197.856 221.216 202.88 219.088 208 219.088C208.528 219.088 209.072 219.088 209.6 219.296C214.192 219.504 218.448 221.648 220.912 225.488C226.88 234.56 236.912 240 248 240C252.368 240 256 243.632 256 248Z" fill="#0085FF"/>
</svg>
