<svg width="256" height="256" viewBox="0 0 256 256" fill="none" xmlns="http://www.w3.org/2000/svg">
<path d="M69.328 128C67.648 128 65.968 127.472 64.56 126.416C57.952 121.504 0 77.344 0 39.872C0 17.888 17.936 0 40 0C51.344 0 61.904 4.75199 69.328 12.736C76.768 4.75199 87.328 0 98.672 0C120.736 0 138.672 17.888 138.672 39.872C138.672 77.328 80.72 121.504 74.112 126.416C72.688 127.472 71.008 128 69.328 128Z" fill="#0085FF"/>
<path d="M80.0001 202.672C65.2801 202.672 53.3281 214.624 53.3281 229.344C53.3281 244.064 65.2801 256 80.0001 256C94.7201 256 106.672 244.048 106.672 229.328C106.672 214.608 94.7201 202.672 80.0001 202.672Z" fill="#FFD200"/>
<path d="M208 202.672C193.28 202.672 181.328 214.624 181.328 229.344C181.328 244.064 193.28 256 208 256C222.72 256 234.672 244.048 234.672 229.328C234.672 214.608 222.72 202.672 208 202.672Z" fill="#FFD200"/>
<path d="M160 114.672V226.672C160 231.04 156.368 234.672 152 234.672H116.8C117.008 232.96 117.328 231.152 117.328 229.344C117.328 208.752 100.592 192 80.0001 192C59.4081 192 42.6721 208.752 42.6721 229.328C42.6721 231.136 42.9921 232.96 43.2001 234.656H29.3281C24.9601 234.656 21.3281 231.024 21.3281 226.656V117.44C33.6961 129.488 45.4401 138.768 51.8401 143.568C56.9601 147.296 63.0401 149.328 69.3281 149.328C75.6161 149.328 81.6961 147.296 86.8161 143.568C94.9281 137.488 111.984 124.048 127.456 106.656H152C156.368 106.672 160 110.288 160 114.672Z" fill="#FFD200"/>
<path d="M205.328 144.528H178.656C174.24 144.528 170.656 148.112 170.656 152.528V226.656C170.656 226.976 170.8 227.232 170.832 227.552C171.792 207.808 188.032 192 208 192C228.576 192 245.328 208.752 245.328 229.328C245.328 231.152 245.04 232.912 244.784 234.656H247.984C252.4 234.656 255.984 231.072 255.984 226.656V195.2C256 167.264 233.264 144.528 205.328 144.528Z" fill="#FFD200"/>
</svg>
