<svg width="256" height="256" viewBox="0 0 256 256" fill="none" xmlns="http://www.w3.org/2000/svg">
<path d="M79.2798 256C78.7998 256 78.3358 255.984 77.8558 255.952C72.4958 255.536 67.6158 252.816 64.4478 248.48L42.1278 217.888C41.5838 217.152 40.9438 216.512 40.2238 215.968L7.48777 191.84C3.16777 188.656 0.463769 183.76 0.0477688 178.416C-0.352231 173.072 1.58377 167.824 5.37577 164.032C11.0238 158.384 19.3758 156.8 26.6718 160L51.4718 170.832L101.92 116.48C102.816 115.504 102.816 114.4 102.736 113.84C102.656 113.28 102.352 112.208 101.2 111.52L14.4158 65.6C8.92776 62.304 5.59977 57.152 4.87977 51.248C4.15977 45.328 6.15976 39.52 10.3678 35.312C14.4798 31.168 20.3198 29.44 26.0478 30.72L152.88 57.584C154.048 57.84 155.2 57.472 155.984 56.656L201.472 8.33596C206.336 3.18396 214.528 0.159964 223.968 0.0159639C233.616 -0.160036 242.704 2.91196 247.904 8.12796C253.12 13.344 256.144 22.304 256 32.08C255.872 41.52 252.832 49.712 247.696 54.56C247.696 54.56 247.696 54.56 247.68 54.56L199.232 100.224C198.368 101.04 198.016 102.224 198.272 103.36L227.456 231.664C228.816 237.408 227.12 243.392 222.896 247.6C218.72 251.776 212.96 253.776 207.056 253.104C201.184 252.416 196.032 249.12 192.928 244.08L144.4 154.384C143.92 153.632 142.88 153.344 142.304 153.264C141.744 153.2 140.64 153.2 139.696 154.096L85.4558 204.512L96.2878 229.328C99.4718 236.624 97.9038 244.992 92.2718 250.624C88.7998 254.08 84.1278 256 79.2798 256Z" fill="#0085FF"/>
</svg>
