<svg width="256" height="256" viewBox="0 0 256 256" fill="none" xmlns="http://www.w3.org/2000/svg">
<path d="M101.264 228.176C105.648 227.008 109.488 225.04 111.696 222.416C116.432 216.8 123.824 213.584 132.016 213.584C140.192 213.584 147.6 216.8 152.32 222.416C155.856 226.624 163.072 229.344 170.688 229.344C178.192 229.344 185.568 226.56 189.04 222.432C193.776 216.816 201.168 213.6 209.36 213.6C217.552 213.6 224.944 216.816 229.664 222.432C231.904 225.104 235.712 227.072 240.096 228.224L255.44 169.952C256.432 166.16 254.544 162.208 250.96 160.608L173.92 126.24C171.84 125.312 169.472 125.312 167.392 126.24L90.3843 160.592C86.8003 162.192 84.9123 166.144 85.9043 169.936L101.264 228.176Z" fill="#EA0303"/>
<path d="M248 256C232.368 256 217.872 249.856 209.232 239.568C200.8 249.856 186.304 256 170.672 256C155.04 256 140.544 249.856 131.904 239.568C123.456 249.856 108.96 256 93.3281 256C88.9121 256 85.3281 252.416 85.3281 248C85.3281 243.584 88.9121 240 93.3281 240C104.128 240 114.288 235.888 119.856 229.28C125.52 222.56 138.496 222.56 144.144 229.28C149.712 235.888 159.872 240 170.672 240C181.472 240 191.632 235.888 197.2 229.28C202.864 222.56 215.84 222.56 221.488 229.28C227.04 235.888 237.2 240 248 240C252.416 240 256 243.584 256 248C256 252.416 252.416 256 248 256Z" fill="#EA0303"/>
<path d="M162.672 106.672V116.704L134.4 129.28C138.672 123.408 141.648 116.48 142.928 109.008L143.36 106.656L162.672 106.672Z" fill="#EA0303"/>
<path d="M226.672 106.672H178.672V116.672L234.672 141.648V114.656C234.672 110.256 231.088 106.672 226.672 106.672Z" fill="#EA0303"/>
<path d="M178.672 53.328V40C178.672 35.584 175.088 32 170.672 32C166.256 32 162.672 35.584 162.672 40V53.328H178.672Z" fill="#EA0303"/>
<path d="M202.672 72V96H145.28L148.592 78.288C149.44 73.488 149.552 68.688 148.912 64H194.672C199.04 64 202.672 67.632 202.672 72Z" fill="#EA0303"/>
<path d="M121.488 52.368C116.256 46.176 108.576 42.656 100.48 42.656H82.24C83.312 38.288 84.16 32.944 84.16 27.504C84.16 8.64 73.712 0 64 0C48.752 0 48.752 15.888 48.752 22.608C48.752 28.368 44.48 33.92 39.792 38.176C41.6 41.808 42.672 45.856 42.672 50.128V112C42.672 114.992 42.144 117.76 41.28 120.432C50.24 124.16 64.752 128 85.872 128H94.832C108.384 128 119.68 118.288 121.92 105.168L127.568 74.656C128.96 66.672 126.72 58.56 121.488 52.368Z" fill="#0085FF"/>
<path d="M16 128C7.168 128 0 120.832 0 112V50.0962C0 41.2642 7.168 34.0962 16 34.0962C24.832 34.0962 32 41.2642 32 50.0962V112C32 120.832 24.832 128 16 128Z" fill="#0085FF"/>
</svg>
