<svg width="256" height="256" viewBox="0 0 256 256" fill="none" xmlns="http://www.w3.org/2000/svg">
<path d="M66.6721 61.328H29.3281C24.9121 61.328 21.3281 57.744 21.3281 53.328V26.672C21.3281 11.968 33.2961 0 48.0001 0C62.7041 0 74.6721 11.968 74.6721 26.672V53.344C74.6721 57.744 71.0881 61.328 66.6721 61.328ZM37.3281 45.328H58.6561V26.672C58.6721 20.784 53.8881 16 48.0001 16C42.1121 16 37.3281 20.784 37.3281 26.672V45.328Z" fill="#0085FF"/>
<path d="M77.328 117.328H18.672C8.368 117.328 0 108.96 0 98.6719V61.3439C0 51.0559 8.368 42.6719 18.672 42.6719H77.344C87.632 42.6719 96.016 51.0399 96.016 61.3439V98.6719C96 108.96 87.632 117.328 77.328 117.328Z" fill="#0085FF"/>
<path d="M80.0001 202.672C65.2801 202.672 53.3281 214.624 53.3281 229.344C53.3281 244.064 65.2801 256 80.0001 256C94.7201 256 106.672 244.048 106.672 229.328C106.672 214.608 94.7201 202.672 80.0001 202.672Z" fill="#FC573B"/>
<path d="M208 202.672C193.28 202.672 181.328 214.624 181.328 229.344C181.328 244.064 193.28 256 208 256C222.72 256 234.672 244.048 234.672 229.328C234.672 214.608 222.72 202.672 208 202.672Z" fill="#FC573B"/>
<path d="M160 114.672V226.672C160 231.04 156.368 234.672 152 234.672H116.8C117.008 232.96 117.328 231.152 117.328 229.344C117.328 208.752 100.592 192 80.0001 192C59.4081 192 42.6721 208.752 42.6721 229.328C42.6721 231.136 42.9921 232.96 43.2001 234.656H29.3281C24.9601 234.656 21.3281 231.024 21.3281 226.656V138.656H77.3281C96.6401 138.656 112.736 124.896 116.48 106.656H152C156.368 106.672 160 110.288 160 114.672Z" fill="#FC573B"/>
<path d="M205.328 144.528H178.656C174.24 144.528 170.656 148.112 170.656 152.528V226.656C170.656 226.976 170.8 227.232 170.832 227.552C171.792 207.808 188.032 192 208 192C228.576 192 245.328 208.752 245.328 229.328C245.328 231.152 245.04 232.912 244.784 234.656H247.984C252.4 234.656 255.984 231.072 255.984 226.656V195.2C256 167.264 233.264 144.528 205.328 144.528Z" fill="#FC573B"/>
</svg>
