<svg width="256" height="256" viewBox="0 0 256 256" fill="none" xmlns="http://www.w3.org/2000/svg">
<path d="M101.264 228.176C105.648 227.008 109.488 225.04 111.696 222.416C116.432 216.8 123.824 213.584 132.016 213.584C140.192 213.584 147.6 216.8 152.32 222.416C155.856 226.624 163.072 229.344 170.688 229.344C178.192 229.344 185.568 226.56 189.04 222.432C193.776 216.816 201.168 213.6 209.36 213.6C217.552 213.6 224.944 216.816 229.664 222.432C231.904 225.104 235.712 227.072 240.096 228.224L255.44 169.952C256.432 166.16 254.544 162.208 250.96 160.608L173.92 126.24C171.84 125.312 169.472 125.312 167.392 126.24L90.3843 160.592C86.8003 162.192 84.9123 166.144 85.9043 169.936L101.264 228.176Z" fill="#FC573B"/>
<path d="M248 256C232.368 256 217.872 249.856 209.232 239.568C200.8 249.856 186.304 256 170.672 256C155.04 256 140.544 249.856 131.904 239.568C123.456 249.856 108.96 256 93.3281 256C88.9121 256 85.3281 252.416 85.3281 248C85.3281 243.584 88.9121 240 93.3281 240C104.128 240 114.288 235.888 119.856 229.28C125.52 222.56 138.496 222.56 144.144 229.28C149.712 235.888 159.872 240 170.672 240C181.472 240 191.632 235.888 197.2 229.28C202.864 222.56 215.84 222.56 221.488 229.28C227.04 235.888 237.2 240 248 240C252.416 240 256 243.584 256 248C256 252.416 252.416 256 248 256Z" fill="#FC573B"/>
<path d="M162.672 106.672V116.704L106.672 141.664V137.824C119.584 130.352 130.352 119.584 137.824 106.672H162.672Z" fill="#FC573B"/>
<path d="M226.672 106.672H178.672V116.672L234.672 141.648V114.656C234.672 110.256 231.088 106.672 226.672 106.672Z" fill="#FC573B"/>
<path d="M178.672 53.328V40C178.672 35.584 175.088 32 170.672 32C166.256 32 162.672 35.584 162.672 40V53.328H178.672Z" fill="#FC573B"/>
<path d="M202.672 72V96H143.04C147.088 86.08 149.328 75.312 149.328 64H194.656C199.04 64 202.672 67.632 202.672 72Z" fill="#FC573B"/>
<path d="M120 56C115.584 56 112 59.584 112 64C112 90.464 90.464 112 64 112C37.536 112 16 90.464 16 64C16 37.536 37.536 16 64 16C73.776 16 82.736 18.784 90.32 24H85.92C81.504 24 77.92 27.584 77.92 32C77.92 36.416 81.504 40 85.92 40H109.344C109.6 40 109.824 39.872 110.08 39.856C110.64 39.808 111.152 39.696 111.696 39.536C112.208 39.376 112.688 39.168 113.152 38.912C113.392 38.784 113.648 38.752 113.872 38.608C114.08 38.464 114.176 38.256 114.368 38.096C114.784 37.744 115.152 37.36 115.488 36.944C115.808 36.544 116.096 36.144 116.32 35.696C116.56 35.248 116.72 34.8 116.864 34.32C117.024 33.792 117.136 33.28 117.184 32.736C117.2 32.496 117.328 32.288 117.328 32.032V8C117.328 3.584 113.744 0 109.328 0C104.912 0 101.328 3.584 101.328 8V12.352C90.688 4.41601 77.824 0 64 0C28.704 0 0 28.704 0 64C0 99.296 28.704 128 64 128C99.296 128 128 99.296 128 64C128 59.584 124.416 56 120 56Z" fill="#0085FF"/>
</svg>
