<svg width="256" height="256" viewBox="0 0 256 256" fill="none" xmlns="http://www.w3.org/2000/svg">
<path d="M143.12 17.664L106.592 0L11.1836 46.192L47.0236 65.472L143.12 17.664Z" fill="#FFD200"/>
<path d="M164.464 27.9839L67.248 76.3519L106.592 97.5199L202.128 46.1919L164.464 27.9839Z" fill="#FFD200"/>
<path d="M154.272 256C153.92 256 153.552 255.984 153.2 255.952C149.184 255.632 145.52 253.6 143.152 250.336L130.768 233.344L112.272 219.648C109.04 217.264 107.008 213.584 106.704 209.584C106.4 205.584 107.856 201.648 110.688 198.816C114.848 194.64 121.04 193.456 126.464 195.824L137.936 200.832L162.672 174.176L116.56 149.776C112.4 147.28 109.936 143.456 109.392 139.088C108.864 134.704 110.336 130.416 113.456 127.296C116.592 124.144 121.072 122.832 125.424 123.776L194.944 138.512L219.536 112.384C222.896 108.816 228.368 106.736 234.56 106.64C241.344 106.448 246.816 108.56 250.432 112.176C254.048 115.792 256.064 121.584 255.968 128.064C255.872 134.256 253.792 139.728 250.24 143.088L224.032 167.808L240.032 238.128C241.056 242.496 239.76 247.072 236.544 250.288C233.456 253.392 229.136 254.896 224.832 254.368C220.48 253.856 216.656 251.424 214.352 247.68L188.544 199.984L161.936 224.72L166.944 236.208C169.312 241.616 168.128 247.808 163.952 251.984C161.408 254.56 157.904 256 154.272 256Z" fill="#0085FF"/>
<path d="M187.648 115.185L204.032 97.7931C206.656 95.0091 209.872 92.8011 213.328 90.9131V61.4731L134.416 103.921L187.648 115.185Z" fill="#FFD200"/>
<path d="M95.632 183.744C96.112 183.248 96.672 182.88 97.184 182.416V160.912C92.384 155.552 89.136 148.992 88.224 141.744C86.992 131.376 90.336 121.376 97.184 113.76L53.872 90.4481V120.512C53.872 125.68 49.664 129.872 44.464 129.872C39.264 129.872 35.056 125.68 35.056 120.512V80.3201L0 61.4561V155.616L86.096 202C87.392 195.168 90.592 188.768 95.632 183.744Z" fill="#FFD200"/>
</svg>
