<svg width="256" height="256" viewBox="0 0 256 256" fill="none" xmlns="http://www.w3.org/2000/svg">
<path d="M213.072 42.6721H0.272003C0.272003 43.2001 0.127999 43.7121 0.223999 44.2401C0.159999 44.6081 0 44.9441 0 45.3281V82.6561C0 87.0721 3.584 90.6561 8 90.6561H205.328C209.744 90.6561 213.328 87.0721 213.328 82.6561V45.3281C213.328 44.9441 213.168 44.6081 213.104 44.2241C213.216 43.7121 213.056 43.2001 213.072 42.6721Z" fill="#EA0303"/>
<path d="M206.368 32L179.2 2.576C177.696 0.928004 175.568 0 173.328 0H40C37.776 0 35.632 0.928004 34.128 2.576L6.95996 32H206.368Z" fill="#EA0303"/>
<path d="M154.272 256C153.92 256 153.552 255.984 153.2 255.952C149.184 255.632 145.52 253.6 143.152 250.336L130.768 233.344L112.272 219.648C109.04 217.264 107.008 213.584 106.704 209.584C106.4 205.584 107.856 201.648 110.688 198.816C114.848 194.64 121.04 193.456 126.464 195.824L137.936 200.832L162.672 174.176L116.56 149.776C112.4 147.28 109.936 143.456 109.392 139.088C108.864 134.704 110.336 130.416 113.456 127.296C116.592 124.144 121.072 122.832 125.424 123.776L194.944 138.512L219.536 112.384C222.896 108.816 228.368 106.736 234.56 106.64C241.344 106.448 246.816 108.56 250.432 112.176C254.048 115.792 256.064 121.584 255.968 128.064C255.872 134.256 253.792 139.728 250.24 143.088L224.032 167.808L240.032 238.128C241.056 242.496 239.76 247.072 236.544 250.288C233.456 253.392 229.136 254.896 224.832 254.368C220.48 253.856 216.656 251.424 214.352 247.68L188.544 199.984L161.936 224.72L166.944 236.208C169.312 241.616 168.128 247.808 163.952 251.984C161.408 254.56 157.904 256 154.272 256Z" fill="#0085FF"/>
<path d="M85.4399 211.216C84.6719 200.992 88.3839 190.976 95.6319 183.744C101.2 178.16 108.304 174.656 115.984 173.632C115.984 173.632 105.92 168.304 105.584 168.096C96.5919 162.704 90.6879 153.968 88.7839 144H82.6719C78.2559 144 74.6719 140.416 74.6719 136C74.6719 131.584 78.2559 128 82.6719 128H89.4079C91.0079 122.128 93.9519 116.672 98.3839 112.24C104.832 105.76 113.456 102.176 122.64 102.176C125.104 102.176 127.568 102.448 129.984 102.96L187.648 115.184L200.688 101.328H10.6719V205.328C10.6719 209.744 14.2559 213.328 18.6719 213.328H85.8399C85.7279 212.624 85.4879 211.936 85.4399 211.216Z" fill="#EA0303"/>
</svg>
