<svg width="256" height="256" viewBox="0 0 256 256" fill="none" xmlns="http://www.w3.org/2000/svg">
<path d="M101.264 228.176C105.648 227.008 109.488 225.04 111.696 222.416C116.432 216.8 123.824 213.584 132.016 213.584C140.192 213.584 147.6 216.8 152.32 222.416C155.856 226.624 163.072 229.344 170.688 229.344C178.192 229.344 185.568 226.56 189.04 222.432C193.776 216.816 201.168 213.6 209.36 213.6C217.552 213.6 224.944 216.816 229.664 222.432C231.904 225.104 235.712 227.072 240.096 228.224L255.44 169.952C256.432 166.16 254.544 162.208 250.96 160.608L173.92 126.24C171.84 125.312 169.472 125.312 167.392 126.24L90.3843 160.592C86.8003 162.192 84.9123 166.144 85.9043 169.936L101.264 228.176Z" fill="#0085FF"/>
<path d="M248 256C232.368 256 217.872 249.856 209.232 239.568C200.8 249.856 186.304 256 170.672 256C155.04 256 140.544 249.856 131.904 239.568C123.456 249.856 108.96 256 93.3281 256C88.9121 256 85.3281 252.416 85.3281 248C85.3281 243.584 88.9121 240 93.3281 240C104.128 240 114.288 235.888 119.856 229.28C125.52 222.56 138.496 222.56 144.144 229.28C149.712 235.888 159.872 240 170.672 240C181.472 240 191.632 235.888 197.2 229.28C202.864 222.56 215.84 222.56 221.488 229.28C227.04 235.888 237.2 240 248 240C252.416 240 256 243.584 256 248C256 252.416 252.416 256 248 256Z" fill="#0085FF"/>
<path d="M162.672 106.672H114.672C110.256 106.672 106.672 110.256 106.672 114.672V141.648L162.672 116.672V106.672Z" fill="#0085FF"/>
<path d="M226.672 106.672H178.672V116.672L234.672 141.648V114.656C234.672 110.256 231.088 106.672 226.672 106.672Z" fill="#0085FF"/>
<path d="M178.672 53.328V40C178.672 35.584 175.088 32 170.672 32C166.256 32 162.672 35.584 162.672 40V53.328H178.672Z" fill="#0085FF"/>
<path d="M202.672 96V72C202.672 67.584 199.088 64 194.672 64H146.672C142.256 64 138.672 67.584 138.672 72V96H202.672Z" fill="#0085FF"/>
<path d="M101.328 16.4641L56 0.464057C54.272 -0.143943 52.4 -0.143943 50.672 0.464057L5.34399 16.4641C2.12799 17.5841 0 20.6081 0 24.0001V60C0 104.704 48.064 126.416 50.112 127.312C51.136 127.776 52.224 128 53.328 128C54.432 128 55.52 127.776 56.56 127.312C58.608 126.416 106.672 104.704 106.672 60V24.0001C106.672 20.6081 104.528 17.5841 101.328 16.4641ZM82.608 54.176L54.736 83.1041C53.232 84.6721 51.136 85.5521 48.976 85.5521C48.896 85.5521 48.816 85.5521 48.752 85.5521C46.496 85.4881 44.384 84.4801 42.912 82.7681L28.128 65.536C25.248 62.176 25.632 57.136 28.992 54.256C32.352 51.376 37.392 51.7601 40.272 55.1041L49.328 65.6641L71.104 43.0721C74.192 39.8881 79.248 39.808 82.416 42.864C85.568 45.92 85.664 50.992 82.608 54.176Z" fill="#FFD200"/>
</svg>
