<svg width="256" height="256" viewBox="0 0 256 256" fill="none" xmlns="http://www.w3.org/2000/svg">
<path d="M101.264 228.176C105.648 227.008 109.488 225.04 111.696 222.416C116.432 216.8 123.824 213.584 132.016 213.584C140.192 213.584 147.6 216.8 152.32 222.416C155.856 226.624 163.072 229.344 170.688 229.344C178.192 229.344 185.568 226.56 189.04 222.432C193.776 216.816 201.168 213.6 209.36 213.6C217.552 213.6 224.944 216.816 229.664 222.432C231.904 225.104 235.712 227.072 240.096 228.224L255.44 169.952C256.432 166.16 254.544 162.208 250.96 160.608L173.92 126.24C171.84 125.312 169.472 125.312 167.392 126.24L90.3843 160.592C86.8003 162.192 84.9123 166.144 85.9043 169.936L101.264 228.176Z" fill="#FFD200"/>
<path d="M248 256C232.368 256 217.872 249.856 209.232 239.568C200.8 249.856 186.304 256 170.672 256C155.04 256 140.544 249.856 131.904 239.568C123.456 249.856 108.96 256 93.3281 256C88.9121 256 85.3281 252.416 85.3281 248C85.3281 243.584 88.9121 240 93.3281 240C104.128 240 114.288 235.888 119.856 229.28C125.52 222.56 138.496 222.56 144.144 229.28C149.712 235.888 159.872 240 170.672 240C181.472 240 191.632 235.888 197.2 229.28C202.864 222.56 215.84 222.56 221.488 229.28C227.04 235.888 237.2 240 248 240C252.416 240 256 243.584 256 248C256 252.416 252.416 256 248 256Z" fill="#FFD200"/>
<path d="M162.672 106.672V116.704L139.312 127.056C144.32 120.864 148.592 114.048 151.904 106.688H162.672V106.672Z" fill="#FFD200"/>
<path d="M226.672 106.672H178.672V116.672L234.672 141.648V114.656C234.672 110.256 231.088 106.672 226.672 106.672Z" fill="#FFD200"/>
<path d="M178.672 53.328V40C178.672 35.584 175.088 32 170.672 32C166.256 32 162.672 35.584 162.672 40V53.328H178.672Z" fill="#FFD200"/>
<path d="M202.672 72V96H156.064C158.608 87.568 160 78.608 160 69.328C160 67.52 160 65.696 159.792 64H194.672C199.04 64 202.672 67.632 202.672 72Z" fill="#FFD200"/>
<path d="M118.752 20.8C118.608 20.64 118.56 20.432 118.4 20.272C118.24 20.112 118.032 20.064 117.872 19.92C105.36 7.616 88.224 0 69.328 0C31.104 0 0 31.104 0 69.328C0 88.224 7.61601 105.344 19.904 117.872C20.048 118.032 20.096 118.24 20.256 118.4C20.416 118.56 20.624 118.608 20.784 118.752C33.296 131.056 50.432 138.672 69.328 138.672C107.552 138.672 138.656 107.568 138.656 69.344C138.672 50.448 131.056 33.312 118.752 20.8ZM69.328 16C81.152 16 91.968 20 100.832 26.528L26.528 100.832C19.984 91.984 16 81.152 16 69.328C16 39.92 39.92 16 69.328 16ZM69.328 122.672C57.504 122.672 46.688 118.672 37.824 112.144L112.128 37.84C118.656 46.688 122.656 57.52 122.656 69.328C122.672 98.736 98.736 122.672 69.328 122.672Z" fill="#0085FF"/>
</svg>
