<svg width="256" height="236" viewBox="0 0 256 236" fill="none" xmlns="http://www.w3.org/2000/svg">
<path d="M130.672 150H8C3.632 150 0 153.632 0 158V206C0 206.208 -4.91738e-07 206.528 0.112 206.752C1.072 187.024 17.392 171.344 37.344 171.344C47.792 171.344 57.296 175.616 64.016 182.656C70.736 175.616 80.224 171.344 90.688 171.344C111.28 171.344 128.016 188.096 128.016 208.672C128.016 210.48 127.904 212.304 127.584 214H130.672C135.04 214 138.672 210.368 138.672 206V158C138.672 153.632 135.04 150 130.672 150Z" fill="#FC573B"/>
<path d="M74.672 16.6719V8.67188C74.672 4.25588 71.088 0.671875 66.672 0.671875H24C19.584 0.671875 16 4.25588 16 8.67188V16.6719H74.672Z" fill="#FC573B"/>
<path d="M8 139.328H114.512C130.688 128.272 141.344 109.696 141.344 88.6559C141.344 54.8319 113.84 27.3279 80.016 27.3279H8C3.584 27.3279 0 30.9119 0 35.3279V141.2C2.432 140.048 5.12 139.328 8 139.328ZM29.328 75.3279H88C92.416 75.3279 96 78.9119 96 83.3279C96 87.7439 92.416 91.3279 88 91.3279H29.328C24.912 91.3279 21.328 87.7439 21.328 83.3279C21.328 78.9119 24.912 75.3279 29.328 75.3279ZM29.328 96.6719H66.656C71.072 96.6719 74.656 100.256 74.656 104.672C74.656 109.088 71.072 112.672 66.656 112.672H29.328C24.912 112.672 21.328 109.088 21.328 104.672C21.328 100.256 24.912 96.6719 29.328 96.6719Z" fill="#FC573B"/>
<path d="M197.328 126C197.328 127.472 198.528 128.672 200 128.672H254.32L228.784 75.2799C225.696 68.8319 219.104 64.6719 211.952 64.6719H197.344L197.328 126Z" fill="#FC573B"/>
<path d="M256 144.672V195.344C256 205.568 247.568 214 237.328 214H234.24C234.56 212.288 234.672 210.48 234.672 208.672C234.672 188.08 217.92 171.344 197.344 171.344C176.768 171.344 160 188.08 160 208.672C160 210.48 160.112 212.304 160.432 214H157.344C152.976 214 149.344 210.368 149.344 206V72.6719C149.344 68.3039 152.976 64.6719 157.344 64.6719H181.344V126C181.344 136.24 189.776 144.672 200.016 144.672H256Z" fill="#FC573B"/>
<path d="M197.328 235.328C182.624 235.328 170.656 223.36 170.656 208.656C170.656 193.952 182.608 181.984 197.328 181.984C212.048 181.984 224 193.968 224 208.672C224 223.376 212.048 235.328 197.328 235.328Z" fill="#0085FF"/>
<path d="M90.672 235.328C75.968 235.328 64 223.36 64 208.656C64 193.968 75.952 182 90.672 182C105.376 182 117.344 193.968 117.344 208.672C117.328 223.376 105.376 235.328 90.672 235.328Z" fill="#0085FF"/>
<path d="M37.3282 235.328C22.6242 235.328 10.6562 223.36 10.6562 208.656C10.6562 193.952 22.6082 181.984 37.3282 181.984C52.0482 182 64.0002 193.968 64.0002 208.672C64.0002 223.376 52.0482 235.328 37.3282 235.328Z" fill="#0085FF"/>
</svg>
