<svg width="256" height="256" viewBox="0 0 256 256" fill="none" xmlns="http://www.w3.org/2000/svg">
<path d="M101.264 228.176C105.648 227.008 109.488 225.04 111.696 222.416C116.432 216.8 123.824 213.584 132.016 213.584C140.192 213.584 147.6 216.8 152.32 222.416C155.856 226.624 163.072 229.344 170.688 229.344C178.192 229.344 185.568 226.56 189.04 222.432C193.776 216.816 201.168 213.6 209.36 213.6C217.552 213.6 224.944 216.816 229.664 222.432C231.904 225.104 235.712 227.072 240.096 228.224L255.44 169.952C256.432 166.16 254.544 162.208 250.96 160.608L173.92 126.24C171.84 125.312 169.472 125.312 167.392 126.24L90.3843 160.592C86.8003 162.192 84.9123 166.144 85.9043 169.936L101.264 228.176Z" fill="#FFD200"/>
<path d="M248 256C232.368 256 217.872 249.856 209.232 239.568C200.8 249.856 186.304 256 170.672 256C155.04 256 140.544 249.856 131.904 239.568C123.456 249.856 108.96 256 93.3281 256C88.9121 256 85.3281 252.416 85.3281 248C85.3281 243.584 88.9121 240 93.3281 240C104.128 240 114.288 235.888 119.856 229.28C125.52 222.56 138.496 222.56 144.144 229.28C149.712 235.888 159.872 240 170.672 240C181.472 240 191.632 235.888 197.2 229.28C202.864 222.56 215.84 222.56 221.488 229.28C227.04 235.888 237.2 240 248 240C252.416 240 256 243.584 256 248C256 252.416 252.416 256 248 256Z" fill="#FFD200"/>
<path d="M162.672 106.672V116.704L138.784 127.376C144.112 121.184 148.496 114.144 151.904 106.688H162.672V106.672Z" fill="#FFD200"/>
<path d="M226.672 106.672H178.672V116.672L234.672 141.648V114.656C234.672 110.256 231.088 106.672 226.672 106.672Z" fill="#FFD200"/>
<path d="M178.672 53.328V40C178.672 35.584 175.088 32 170.672 32C166.256 32 162.672 35.584 162.672 40V53.328H178.672Z" fill="#FFD200"/>
<path d="M202.672 72V96H155.952C158.608 87.248 160 78.288 160 69.328C160 67.52 160 65.808 159.792 64H194.672C199.04 64 202.672 67.632 202.672 72Z" fill="#FFD200"/>
<path d="M135.056 91.264C135.12 91.12 135.168 90.96 135.216 90.816C137.424 84.048 138.672 76.832 138.672 69.328C138.672 61.824 137.44 54.608 135.216 47.84C135.152 47.696 135.12 47.536 135.056 47.392C128.16 26.8 111.872 10.512 91.28 3.616C91.136 3.552 90.976 3.50399 90.832 3.45599C84.048 1.23199 76.832 0 69.328 0C61.824 0 54.608 1.23199 47.84 3.45599C47.696 3.51999 47.536 3.552 47.392 3.616C26.8 10.512 10.512 26.8 3.616 47.392C3.552 47.536 3.50399 47.696 3.45599 47.84C1.23199 54.624 0 61.824 0 69.328C0 76.832 1.23199 84.048 3.45599 90.816C3.51999 90.96 3.552 91.12 3.616 91.264C10.512 111.856 26.8 128.144 47.392 135.04C47.536 135.104 47.696 135.152 47.84 135.2C54.608 137.408 61.824 138.656 69.328 138.656C76.832 138.656 84.048 137.424 90.816 135.2C90.96 135.136 91.12 135.104 91.264 135.04C111.872 128.16 128.16 111.872 135.056 91.264ZM96 115.248V96H115.248C110.592 103.984 103.984 110.592 96 115.248ZM16 69.328C16 65.68 16.368 62.112 17.072 58.656H42.656V80H17.072C16.368 76.544 16 72.992 16 69.328ZM58.672 58.672H80V80H58.672V58.672ZM96 58.672H121.584C122.288 62.112 122.656 65.68 122.656 69.344C122.656 73.008 122.288 76.544 121.584 80H96V58.672ZM115.248 42.672H96V23.424C103.984 28.08 110.592 34.672 115.248 42.672ZM80 17.072V42.656H58.672V17.072C62.112 16.368 65.68 16 69.328 16C72.976 16 76.544 16.368 80 17.072ZM42.672 23.424V42.672H23.424C28.08 34.672 34.672 28.08 42.672 23.424ZM23.424 96H42.672V115.248C34.672 110.592 28.08 103.984 23.424 96ZM58.672 121.584V96H80V121.584C76.56 122.288 72.992 122.656 69.328 122.656C65.664 122.656 62.112 122.288 58.672 121.584Z" fill="#0085FF"/>
</svg>
