<svg width="256" height="256" viewBox="0 0 256 256" fill="none" xmlns="http://www.w3.org/2000/svg">
<path d="M255.472 169.92L240.112 228.16C235.744 227.088 231.904 225.072 229.664 222.4C224.976 216.752 217.504 213.552 209.296 213.552C201.184 213.552 193.728 216.752 189.024 222.4C185.616 226.56 178.144 229.328 170.672 229.328C163.104 229.328 155.84 226.656 152.32 222.4C147.632 216.752 140.16 213.552 132.048 213.552C123.84 213.552 116.368 216.752 111.68 222.4C109.44 225.072 105.6 226.992 101.232 228.16L85.8723 169.92C84.9123 166.192 86.8323 162.24 90.3523 160.64L167.36 126.192C169.488 125.344 171.84 125.344 173.968 126.192L250.976 160.64C254.512 162.24 256.432 166.192 255.472 169.92Z" fill="#FFD200"/>
<path d="M248 256C232.368 256 217.872 249.856 209.232 239.568C200.8 249.856 186.304 256 170.672 256C155.04 256 140.544 249.856 131.904 239.568C123.456 249.856 108.96 256 93.3281 256C88.9121 256 85.3281 252.416 85.3281 248C85.3281 243.584 88.9121 240 93.3281 240C104.128 240 114.288 235.888 119.856 229.28C125.52 222.56 138.496 222.56 144.144 229.28C149.712 235.888 159.872 240 170.672 240C181.472 240 191.632 235.888 197.2 229.28C202.864 222.56 215.84 222.56 221.488 229.28C227.04 235.888 237.2 240 248 240C252.416 240 256 243.584 256 248C256 252.416 252.416 256 248 256Z" fill="#FFD200"/>
<path d="M162.672 106.672V116.704L106.672 141.664V127.36C113.28 121.488 120.544 114.448 127.472 106.672H162.672Z" fill="#FFD200"/>
<path d="M226.672 106.672H178.672V116.672L234.672 141.648V114.656C234.672 110.256 231.088 106.672 226.672 106.672Z" fill="#FFD200"/>
<path d="M178.672 53.328V40C178.672 35.584 175.088 32 170.672 32C166.256 32 162.672 35.584 162.672 40V53.328H178.672Z" fill="#FFD200"/>
<path d="M202.672 72V96H138.672V93.232C145.488 84.048 151.36 74.24 155.2 64H194.672C199.04 64 202.672 67.632 202.672 72Z" fill="#FFD200"/>
<path d="M69.328 128C67.648 128 65.968 127.472 64.56 126.416C57.952 121.504 0 77.344 0 39.872C0 17.888 17.936 0 40 0C51.344 0 61.904 4.75199 69.328 12.736C76.768 4.75199 87.328 0 98.672 0C120.736 0 138.672 17.888 138.672 39.872C138.672 77.328 80.72 121.504 74.112 126.416C72.688 127.472 71.008 128 69.328 128Z" fill="#0085FF"/>
</svg>
