<svg width="256" height="256" viewBox="0 0 256 256" fill="none" xmlns="http://www.w3.org/2000/svg">
<path d="M101.264 228.176C105.648 227.008 109.488 225.04 111.696 222.416C116.432 216.8 123.824 213.584 132.016 213.584C140.192 213.584 147.6 216.8 152.32 222.416C155.856 226.624 163.072 229.344 170.688 229.344C178.192 229.344 185.568 226.56 189.04 222.432C193.776 216.816 201.168 213.6 209.36 213.6C217.552 213.6 224.944 216.816 229.664 222.432C231.904 225.104 235.712 227.072 240.096 228.224L255.44 169.952C256.432 166.16 254.544 162.208 250.96 160.608L173.92 126.24C171.84 125.312 169.472 125.312 167.392 126.24L90.3843 160.592C86.8003 162.192 84.9123 166.144 85.9043 169.936L101.264 228.176Z" fill="#EA0303"/>
<path d="M248 256C232.368 256 217.872 249.856 209.232 239.568C200.8 249.856 186.304 256 170.672 256C155.04 256 140.544 249.856 131.904 239.568C123.456 249.856 108.96 256 93.3281 256C88.9121 256 85.3281 252.416 85.3281 248C85.3281 243.584 88.9121 240 93.3281 240C104.128 240 114.288 235.888 119.856 229.28C125.52 222.56 138.496 222.56 144.144 229.28C149.712 235.888 159.872 240 170.672 240C181.472 240 191.632 235.888 197.2 229.28C202.864 222.56 215.84 222.56 221.488 229.28C227.04 235.888 237.2 240 248 240C252.416 240 256 243.584 256 248C256 252.416 252.416 256 248 256Z" fill="#EA0303"/>
<path d="M162.672 106.672V116.704L149.232 122.672C149.76 117.232 148.704 111.68 146.032 106.672H162.672Z" fill="#EA0303"/>
<path d="M226.672 106.672H178.672V116.672L234.672 141.648V114.656C234.672 110.256 231.088 106.672 226.672 106.672Z" fill="#EA0303"/>
<path d="M178.672 53.328V40C178.672 35.584 175.088 32 170.672 32C166.256 32 162.672 35.584 162.672 40V53.328H178.672Z" fill="#EA0303"/>
<path d="M202.672 96V72C202.672 67.584 199.088 64 194.672 64H146.672C142.256 64 138.672 67.584 138.672 72V96H202.672Z" fill="#EA0303"/>
<path d="M125.664 114.336L96.144 84.816C102.672 75.968 106.672 65.136 106.672 53.312C106.672 23.92 82.736 0 53.328 0C23.92 0 0 23.92 0 53.328C0 82.736 23.92 106.656 53.328 106.656C65.152 106.656 75.968 102.656 84.832 96.128L114.352 125.648C115.904 127.216 117.952 128 120 128C122.048 128 124.096 127.216 125.664 125.664C128.784 122.528 128.784 117.472 125.664 114.336ZM16 53.328C16 32.752 32.752 16 53.328 16C73.904 16 90.656 32.752 90.656 53.328C90.656 63.552 86.512 72.816 79.84 79.552C79.792 79.6 79.728 79.616 79.664 79.664C79.616 79.712 79.6 79.776 79.552 79.84C72.8 86.512 63.536 90.656 53.328 90.656C32.752 90.672 16 73.92 16 53.328Z" fill="#0085FF"/>
</svg>
