<svg width="256" height="256" viewBox="0 0 256 256" fill="none" xmlns="http://www.w3.org/2000/svg">
<path d="M69.328 0C31.104 0 0 31.104 0 69.328C0 107.552 31.104 138.656 69.328 138.656C107.552 138.656 138.656 107.552 138.656 69.328C138.656 31.104 107.568 0 69.328 0ZM76.688 109.76C76.256 110.72 75.728 111.568 74.976 112.32C74.224 113.072 73.376 113.712 72.416 114.032C71.456 114.464 70.384 114.672 69.328 114.672C68.256 114.672 67.296 114.464 66.24 114.032C65.28 113.6 64.432 113.072 63.68 112.32C62.192 110.832 61.344 108.8 61.344 106.672C61.344 104.544 62.192 102.512 63.68 101.008C64.432 100.256 65.28 99.728 66.24 99.312C68.272 98.464 70.4 98.464 72.432 99.312C73.392 99.728 74.24 100.272 74.992 101.008C75.744 101.76 76.272 102.608 76.704 103.568C77.136 104.64 77.344 105.6 77.344 106.656C77.328 107.728 77.12 108.8 76.688 109.76ZM85.088 72.176C82.176 74.304 77.328 78.848 77.328 85.536V88C77.328 92.416 73.744 96 69.328 96C64.912 96 61.328 92.416 61.328 88V85.552C61.328 75.504 66.544 65.936 75.632 59.28C78.4 57.248 80 54.096 80 50.672C80 44.784 75.216 40 69.328 40C63.44 40 58.656 44.784 58.656 50.672C58.656 55.088 55.072 58.672 50.656 58.672C46.24 58.672 42.656 55.088 42.656 50.672C42.656 35.968 54.624 24 69.328 24C84.032 24 96 35.968 96 50.672C96 59.136 91.92 67.168 85.088 72.176Z" fill="#0085FF"/>
<path d="M80.0001 202.672C65.2801 202.672 53.3281 214.624 53.3281 229.344C53.3281 244.064 65.2801 256 80.0001 256C94.7201 256 106.672 244.048 106.672 229.328C106.672 214.608 94.7201 202.672 80.0001 202.672Z" fill="#FC573B"/>
<path d="M208 202.672C193.28 202.672 181.328 214.624 181.328 229.344C181.328 244.064 193.28 256 208 256C222.72 256 234.672 244.048 234.672 229.328C234.672 214.608 222.72 202.672 208 202.672Z" fill="#FC573B"/>
<path d="M160 114.672V226.672C160 231.04 156.368 234.672 152 234.672H116.8C117.008 232.96 117.328 231.152 117.328 229.344C117.328 208.752 100.592 192 80.0001 192C59.4081 192 42.6721 208.752 42.6721 229.328C42.6721 231.136 42.9921 232.96 43.2001 234.656H29.3281C24.9601 234.656 21.3281 231.024 21.3281 226.656V146.24C35.2001 154.992 51.7281 160 69.3281 160C106.016 160 137.696 138.128 151.888 106.672H152C156.368 106.672 160 110.288 160 114.672Z" fill="#FC573B"/>
<path d="M205.328 144.528H178.656C174.24 144.528 170.656 148.112 170.656 152.528V226.656C170.656 226.976 170.8 227.232 170.832 227.552C171.792 207.808 188.032 192 208 192C228.576 192 245.328 208.752 245.328 229.328C245.328 231.152 245.04 232.912 244.784 234.656H247.984C252.4 234.656 255.984 231.072 255.984 226.656V195.2C256 167.264 233.264 144.528 205.328 144.528Z" fill="#FC573B"/>
</svg>
