<svg width="256" height="256" viewBox="0 0 256 256" fill="none" xmlns="http://www.w3.org/2000/svg">
<path d="M0 99.024L58.624 128V71.312L0 43.104V99.024Z" fill="#FFD200"/>
<path d="M102.256 39.44C102.56 39.6 102.816 39.84 103.104 40.032L122.288 30.352L64.0477 0L45.0557 9.888L102.256 39.44Z" fill="#FFD200"/>
<path d="M27.3121 19.1201L5.74414 30.3521L64.0481 59.7601L85.2481 49.0561L27.3121 19.1201Z" fill="#FFD200"/>
<path d="M106.672 53.3761V75.9521C106.672 80.4961 103.088 84.1761 98.672 84.1761C94.256 84.1761 90.672 80.4961 90.672 75.9521V61.0721L69.376 71.3121V128L128 99.0241V43.1201L106.672 53.3761Z" fill="#FFD200"/>
<path d="M80.0001 202.672C65.2801 202.672 53.3281 214.624 53.3281 229.344C53.3281 244.064 65.2801 256 80.0001 256C94.7201 256 106.672 244.048 106.672 229.328C106.672 214.608 94.7201 202.672 80.0001 202.672Z" fill="#0085FF"/>
<path d="M208 202.672C193.28 202.672 181.328 214.624 181.328 229.344C181.328 244.064 193.28 256 208 256C222.72 256 234.672 244.048 234.672 229.328C234.672 214.608 222.72 202.672 208 202.672Z" fill="#0085FF"/>
<path d="M160 114.672V226.672C160 231.04 156.368 234.672 152 234.672H116.8C117.008 232.96 117.328 231.152 117.328 229.344C117.328 208.752 100.592 192 80.0001 192C59.4081 192 42.6721 208.752 42.6721 229.328C42.6721 231.136 42.9921 232.96 43.2001 234.656H29.3281C24.9601 234.656 21.3281 231.024 21.3281 226.656V133.328L49.1681 147.088C52.1601 148.576 55.3601 149.328 58.6561 149.328C60.4641 149.328 62.1761 149.008 63.9841 148.576C65.7921 149.008 67.5041 149.328 69.3121 149.328C72.6241 149.328 75.8241 148.576 78.8001 147.088L137.472 118.176C142.384 115.728 146 111.568 147.824 106.656H151.984C156.368 106.672 160 110.288 160 114.672Z" fill="#0085FF"/>
<path d="M205.328 144.528H178.656C174.24 144.528 170.656 148.112 170.656 152.528V226.656C170.656 226.976 170.8 227.232 170.832 227.552C171.792 207.808 188.032 192 208 192C228.576 192 245.328 208.752 245.328 229.328C245.328 231.152 245.04 232.912 244.784 234.656H247.984C252.4 234.656 255.984 231.072 255.984 226.656V195.2C256 167.264 233.264 144.528 205.328 144.528Z" fill="#0085FF"/>
</svg>
