<svg width="256" height="220" viewBox="0 0 256 220" fill="none" xmlns="http://www.w3.org/2000/svg">
<path d="M202.672 219.328C187.968 219.328 176 207.36 176 192.656C176 177.952 187.952 165.984 202.672 165.984C217.376 165.984 229.344 177.952 229.344 192.656C229.328 207.376 217.376 219.328 202.672 219.328Z" fill="#0085FF"/>
<path d="M80.0001 219.328C65.2961 219.328 53.3281 207.36 53.3281 192.656C53.3281 177.952 65.2801 165.984 80.0001 165.984C94.7201 165.984 106.672 177.952 106.672 192.656C106.672 207.376 94.7041 219.328 80.0001 219.328Z" fill="#0085FF"/>
<path d="M26.672 219.329C11.952 219.329 0 207.377 0 192.673C0 177.969 11.952 166.001 26.672 166.001C41.376 166.001 53.344 177.969 53.344 192.673C53.328 207.377 41.376 219.329 26.672 219.329Z" fill="#0085FF"/>
<path d="M157.328 102H218.656C220.224 102 221.728 102.416 223.248 102.8L215.84 65.7601C215.088 62.0161 211.808 59.3281 208 59.3281H157.328C152.912 59.3281 149.328 62.9121 149.328 67.3281V103.872C151.76 102.704 154.464 102 157.328 102Z" fill="#EA0303"/>
<path d="M243.728 121.312L221.44 113.104C220.48 112.896 219.632 112.672 218.672 112.672H157.344C152.976 112.672 149.344 116.304 149.344 120.672V190C149.344 194.368 152.976 198 157.344 198H165.776C165.456 196.288 165.344 194.48 165.344 192.672C165.344 172.08 182.096 155.344 202.672 155.344C223.264 155.344 240 172.096 240 192.672C240 194.48 239.888 196.304 239.568 198H248C252.368 198 256 194.368 256 190V138.8C256 131.008 251.088 123.968 243.728 121.312Z" fill="#EA0303"/>
<path d="M173.328 0.672119H112C109.328 0.672119 106.768 2.06412 105.392 4.19212L65.072 64.6721H8C3.632 64.6721 0 68.3041 0 72.6721V166.64C6.72 159.6 16.208 155.328 26.672 155.328C37.12 155.328 46.624 159.6 53.344 166.64C60.064 159.6 69.552 155.328 80.016 155.328C100.608 155.328 117.344 172.08 117.344 192.656C117.344 194.464 117.232 196.288 116.912 197.984H130.672C135.04 197.984 138.672 194.352 138.672 189.984V43.3121H173.344C177.712 43.3121 181.344 39.6801 181.344 35.3121V8.64012C181.328 4.28812 177.712 0.672119 173.328 0.672119ZM48 136.672C48 141.088 44.416 144.672 40 144.672C35.584 144.672 32 141.088 32 136.672V110C32 105.584 35.584 102 40 102C44.416 102 48 105.584 48 110V136.672ZM80 136.672C80 141.088 76.416 144.672 72 144.672C67.584 144.672 64 141.088 64 136.672V110C64 105.584 67.584 102 72 102C76.416 102 80 105.584 80 110V136.672ZM112 136.672C112 141.088 108.416 144.672 104 144.672C99.584 144.672 96 141.088 96 136.672V88.6721C96 84.2561 99.584 80.6721 104 80.6721C108.416 80.6721 112 84.2561 112 88.6721V136.672Z" fill="#EA0303"/>
</svg>
