<svg width="214" height="256" viewBox="0 0 214 256" fill="none" xmlns="http://www.w3.org/2000/svg">
<path d="M163 256H157.672C147.368 256 139 247.632 139 237.328V200C139 195.584 142.584 192 147 192H173.672C178.088 192 181.672 195.584 181.672 200V237.328C181.672 247.632 173.288 256 163 256Z" fill="#0085FF"/>
<path d="M56.3281 256H51.0001C40.7121 256 32.3281 247.632 32.3281 237.328V200C32.3281 195.584 35.9121 192 40.3281 192H67.0001C71.4161 192 75.0001 195.584 75.0001 200V237.328C75.0001 247.632 66.6321 256 56.3281 256Z" fill="#0085FF"/>
<path d="M205.672 208H8.32812C3.91213 208 0.328125 204.416 0.328125 200C0.328125 195.584 3.91213 192 8.32812 192H205.656C210.072 192 213.656 195.584 213.656 200C213.656 204.416 210.088 208 205.672 208Z" fill="#EA0303"/>
<path d="M131 90.6721H115V109.344C115 113.76 111.416 117.344 107 117.344C102.584 117.344 99 113.76 99 109.344V90.6721H83C78.584 90.6721 75 94.2561 75 98.6721V130.672C75 135.088 78.584 138.672 83 138.672H131C135.416 138.672 139 135.088 139 130.672V98.6721C139 94.2561 135.416 90.6721 131 90.6721Z" fill="#EA0303"/>
<path d="M93.672 144H80.344V162.672C80.344 167.088 76.76 170.672 72.344 170.672C67.928 170.672 64.344 167.088 64.344 162.672V144H51C46.584 144 43 147.584 43 152V184C43 188.416 46.584 192 51 192H93.672C98.088 192 101.672 188.416 101.672 184V152C101.672 147.584 98.088 144 93.672 144Z" fill="#EA0303"/>
<path d="M163 144H149.672V162.672C149.672 167.088 146.088 170.672 141.672 170.672C137.256 170.672 133.672 167.088 133.672 162.672V144H120.344C115.928 144 112.344 147.584 112.344 152V184C112.344 188.416 115.928 192 120.344 192H163C167.416 192 171 188.416 171 184V152C171 147.584 167.416 144 163 144Z" fill="#EA0303"/>
<path d="M163 0H50.9999C34.8239 0 21.6719 13.152 21.6719 29.328V200C21.6719 204.416 25.2559 208 29.6719 208H184.344C188.76 208 192.344 204.416 192.344 200V29.328C192.328 13.152 179.176 0 163 0ZM61.6719 21.328H152.344C156.76 21.328 160.344 24.912 160.344 29.328C160.344 33.744 156.76 37.328 152.344 37.328H61.6719C57.2559 37.328 53.6719 33.744 53.6719 29.328C53.6719 24.912 57.2559 21.328 61.6719 21.328ZM61.6719 48H152.344C156.76 48 160.344 51.584 160.344 56C160.344 60.416 156.76 64 152.344 64H61.6719C57.2559 64 53.6719 60.416 53.6719 56C53.6719 51.584 57.2559 48 61.6719 48ZM181.672 184C181.672 194.288 173.304 202.672 163 202.672H120.328C115.096 202.672 110.392 200.496 107 197.024C103.608 200.496 98.8879 202.672 93.6719 202.672H50.9999C40.7119 202.672 32.3279 194.304 32.3279 184V152C32.3279 141.712 40.6959 133.328 50.9999 133.328H64.5999C64.4719 132.448 64.3279 131.568 64.3279 130.656V98.656C64.3279 88.368 72.6959 79.984 82.9999 79.984H131C141.288 79.984 149.672 88.352 149.672 98.656V130.656C149.672 131.568 149.528 132.448 149.4 133.328H163C173.288 133.328 181.672 141.696 181.672 152V184Z" fill="#EA0303"/>
<path d="M85.6719 218.672H128.344V234.672H85.6719V218.672Z" fill="#EA0303"/>
</svg>
