<svg width="256" height="256" viewBox="0 0 256 256" fill="none" xmlns="http://www.w3.org/2000/svg">
<path d="M101.264 228.176C105.648 227.008 109.488 225.04 111.696 222.416C116.432 216.8 123.824 213.584 132.016 213.584C140.192 213.584 147.6 216.8 152.32 222.416C155.856 226.624 163.072 229.344 170.688 229.344C178.192 229.344 185.568 226.56 189.04 222.432C193.776 216.816 201.168 213.6 209.36 213.6C217.552 213.6 224.944 216.816 229.664 222.432C231.904 225.104 235.712 227.072 240.096 228.224L255.44 169.952C256.432 166.16 254.544 162.208 250.96 160.608L173.92 126.24C171.84 125.312 169.472 125.312 167.392 126.24L90.3843 160.592C86.8003 162.192 84.9123 166.144 85.9043 169.936L101.264 228.176Z" fill="#FC573B"/>
<path d="M248 256C232.368 256 217.872 249.856 209.232 239.568C200.8 249.856 186.304 256 170.672 256C155.04 256 140.544 249.856 131.904 239.568C123.456 249.856 108.96 256 93.3281 256C88.9121 256 85.3281 252.416 85.3281 248C85.3281 243.584 88.9121 240 93.3281 240C104.128 240 114.288 235.888 119.856 229.28C125.52 222.56 138.496 222.56 144.144 229.28C149.712 235.888 159.872 240 170.672 240C181.472 240 191.632 235.888 197.2 229.28C202.864 222.56 215.84 222.56 221.488 229.28C227.04 235.888 237.2 240 248 240C252.416 240 256 243.584 256 248C256 252.416 252.416 256 248 256Z" fill="#FC573B"/>
<path d="M162.672 106.672V116.704L139.312 127.056C144.32 120.864 148.592 114.048 151.904 106.688H162.672V106.672Z" fill="#FC573B"/>
<path d="M226.672 106.672H178.672V116.672L234.672 141.648V114.656C234.672 110.256 231.088 106.672 226.672 106.672Z" fill="#FC573B"/>
<path d="M178.672 53.328V40C178.672 35.584 175.088 32 170.672 32C166.256 32 162.672 35.584 162.672 40V53.328H178.672Z" fill="#FC573B"/>
<path d="M202.672 72V96H156.064C158.608 87.568 160 78.608 160 69.328C160 67.52 160 65.808 159.888 64H194.656C199.04 64 202.672 67.632 202.672 72Z" fill="#FC573B"/>
<path d="M69.328 0C31.104 0 0 31.104 0 69.328C0 107.552 31.104 138.656 69.328 138.656C107.552 138.656 138.656 107.552 138.656 69.328C138.656 31.104 107.568 0 69.328 0ZM76.688 109.76C76.256 110.72 75.728 111.568 74.976 112.32C74.224 113.072 73.376 113.712 72.416 114.032C71.456 114.464 70.384 114.672 69.328 114.672C68.256 114.672 67.296 114.464 66.24 114.032C65.28 113.6 64.432 113.072 63.68 112.32C62.192 110.832 61.344 108.8 61.344 106.672C61.344 104.544 62.192 102.512 63.68 101.008C64.432 100.256 65.28 99.728 66.24 99.312C68.272 98.464 70.4 98.464 72.432 99.312C73.392 99.728 74.24 100.272 74.992 101.008C75.744 101.76 76.272 102.608 76.704 103.568C77.136 104.64 77.344 105.6 77.344 106.656C77.328 107.728 77.12 108.8 76.688 109.76ZM85.088 72.176C82.176 74.304 77.328 78.848 77.328 85.536V88C77.328 92.416 73.744 96 69.328 96C64.912 96 61.328 92.416 61.328 88V85.552C61.328 75.504 66.544 65.936 75.632 59.28C78.4 57.248 80 54.096 80 50.672C80 44.784 75.216 40 69.328 40C63.44 40 58.656 44.784 58.656 50.672C58.656 55.088 55.072 58.672 50.656 58.672C46.24 58.672 42.656 55.088 42.656 50.672C42.656 35.968 54.624 24 69.328 24C84.032 24 96 35.968 96 50.672C96 59.136 91.92 67.168 85.088 72.176Z" fill="#0085FF"/>
</svg>
