<svg width="256" height="256" viewBox="0 0 256 256" fill="none" xmlns="http://www.w3.org/2000/svg">
<path d="M101.264 228.176C105.648 227.008 109.488 225.04 111.696 222.416C116.432 216.8 123.824 213.584 132.016 213.584C140.192 213.584 147.6 216.8 152.32 222.416C155.856 226.624 163.072 229.344 170.688 229.344C178.192 229.344 185.568 226.56 189.04 222.432C193.776 216.816 201.168 213.6 209.36 213.6C217.552 213.6 224.944 216.816 229.664 222.432C231.904 225.104 235.712 227.072 240.096 228.224L255.44 169.952C256.432 166.16 254.544 162.208 250.96 160.608L173.92 126.24C171.84 125.312 169.472 125.312 167.392 126.24L90.3843 160.592C86.8003 162.192 84.9123 166.144 85.9043 169.936L101.264 228.176Z" fill="#FC573B"/>
<path d="M248 256C232.368 256 217.872 249.856 209.232 239.568C200.8 249.856 186.304 256 170.672 256C155.04 256 140.544 249.856 131.904 239.568C123.456 249.856 108.96 256 93.3281 256C88.9121 256 85.3281 252.416 85.3281 248C85.3281 243.584 88.9121 240 93.3281 240C104.128 240 114.288 235.888 119.856 229.28C125.52 222.56 138.496 222.56 144.144 229.28C149.712 235.888 159.872 240 170.672 240C181.472 240 191.632 235.888 197.2 229.28C202.864 222.56 215.84 222.56 221.488 229.28C227.04 235.888 237.2 240 248 240C252.416 240 256 243.584 256 248C256 252.416 252.416 256 248 256Z" fill="#FC573B"/>
<path d="M162.672 106.672H114.672C110.256 106.672 106.672 110.256 106.672 114.672V141.648L162.672 116.672V106.672Z" fill="#FC573B"/>
<path d="M226.672 106.672H178.672V116.672L234.672 141.648V114.656C234.672 110.256 231.088 106.672 226.672 106.672Z" fill="#FC573B"/>
<path d="M178.672 53.328V40C178.672 35.584 175.088 32 170.672 32C166.256 32 162.672 35.584 162.672 40V53.328H178.672Z" fill="#FC573B"/>
<path d="M202.672 96V72C202.672 67.584 199.088 64 194.672 64H146.672C142.256 64 138.672 67.584 138.672 72V96H202.672Z" fill="#FC573B"/>
<path d="M66.6721 61.328H29.3281C24.9121 61.328 21.3281 57.744 21.3281 53.328V26.672C21.3281 11.968 33.2961 0 48.0001 0C62.7041 0 74.6721 11.968 74.6721 26.672V53.344C74.6721 57.744 71.0881 61.328 66.6721 61.328ZM37.3281 45.328H58.6561V26.672C58.6721 20.784 53.8881 16 48.0001 16C42.1121 16 37.3281 20.784 37.3281 26.672V45.328Z" fill="#0085FF"/>
<path d="M77.328 117.328H18.672C8.368 117.328 0 108.96 0 98.6721V61.3441C0 51.0561 8.368 42.6721 18.672 42.6721H77.344C87.632 42.6721 96.016 51.0401 96.016 61.3441V98.6721C96 108.96 87.632 117.328 77.328 117.328Z" fill="#0085FF"/>
</svg>
