<svg width="256" height="256" viewBox="0 0 256 256" fill="none" xmlns="http://www.w3.org/2000/svg">
<path d="M125.872 70.5119C125.712 70.3999 106.64 56.752 69.4084 56.752C31.6644 56.752 12.9764 70.384 12.8004 70.528C11.3604 71.6 9.68043 72.112 8.01643 72.112C7.12043 72.112 6.27243 71.808 5.44043 71.52C6.92843 90.736 14.3204 108.8 25.9204 120.864C37.1044 132.512 52.1444 138.672 69.4084 138.672C86.6244 138.672 101.664 132.512 112.88 120.864C126.448 106.784 132.208 87.088 133.328 71.488C130.88 72.368 128.096 72.1919 125.872 70.5119ZM35.7764 76.912C35.7764 71.088 40.5124 66.352 46.3364 66.352C52.1604 66.352 56.8964 71.088 56.8964 76.912C56.8964 82.736 52.1604 87.4719 46.3364 87.4719C40.5124 87.4719 35.7764 82.736 35.7764 76.912ZM89.6964 109.76C84.2724 115.2 77.0564 118.192 69.3924 118.192C61.7124 118.192 54.4964 115.2 49.0724 109.76C45.9524 106.624 45.9524 101.568 49.0884 98.4479C52.2244 95.3279 57.2804 95.328 60.4004 98.464C62.8004 100.864 65.9844 102.192 69.3764 102.192C72.7684 102.192 75.9684 100.864 78.3844 98.464C81.5044 95.328 86.5764 95.3279 89.6964 98.4479C92.8164 101.568 92.8164 106.624 89.6964 109.76ZM92.6084 87.4719C86.7844 87.4719 82.0484 82.736 82.0484 76.912C82.0484 71.088 86.7844 66.352 92.6084 66.352C98.4324 66.352 103.168 71.088 103.168 76.912C103.152 82.736 98.4324 87.4719 92.6084 87.4719Z" fill="#0085FF"/>
<path d="M69.3917 30.0799C97.2477 30.0799 116.928 36.3999 128.768 41.8079L125.936 28.9439C123.568 18.2719 115.168 9.79187 104.528 7.32787L75.7597 0.719872C71.6157 -0.240128 67.2157 -0.224128 63.0237 0.719872L34.1437 7.34386C23.5037 9.79186 15.0877 18.2719 12.7357 28.9599L9.8877 41.8719C21.7757 36.4479 41.5997 30.0799 69.3917 30.0799Z" fill="#0085FF"/>
<path d="M8.01615 72.112C5.58415 72.112 3.16815 71.0079 1.60015 68.8959C-1.03985 65.3599 -0.319856 60.336 3.21614 57.696C4.14414 57.008 26.4001 40.752 69.4081 40.752C112.416 40.752 134.56 57.024 135.488 57.712C139.024 60.368 139.744 65.376 137.088 68.912C134.432 72.432 129.424 73.1679 125.888 70.5119C125.728 70.3999 106.656 56.752 69.4241 56.752C31.6801 56.752 12.9921 70.384 12.8161 70.528C11.3601 71.6 9.66415 72.112 8.01615 72.112Z" fill="#0085FF"/>
<path d="M80.0001 202.672C65.2801 202.672 53.3281 214.624 53.3281 229.344C53.3281 244.064 65.2801 256 80.0001 256C94.7201 256 106.672 244.048 106.672 229.328C106.672 214.608 94.7201 202.672 80.0001 202.672Z" fill="#FC573B"/>
<path d="M208 202.672C193.28 202.672 181.328 214.624 181.328 229.344C181.328 244.064 193.28 256 208 256C222.72 256 234.672 244.048 234.672 229.328C234.672 214.608 222.72 202.672 208 202.672Z" fill="#FC573B"/>
<path d="M160 114.672V226.672C160 231.04 156.368 234.672 152 234.672H116.8C117.008 232.96 117.328 231.152 117.328 229.344C117.328 208.752 100.592 192 80.0001 192C59.4081 192 42.6721 208.752 42.6721 229.328C42.6721 231.136 42.9921 232.96 43.2001 234.656H29.3281C24.9601 234.656 21.3281 231.024 21.3281 226.656V144.96C34.8801 154.88 51.3121 160 69.4401 160C92.5921 160 112.848 151.568 128.208 135.68C136.96 126.608 142.816 116.368 146.768 106.672H152C156.368 106.672 160 110.304 160 114.672Z" fill="#FC573B"/>
<path d="M205.328 144.528H178.656C174.24 144.528 170.656 148.112 170.656 152.528V226.656C170.656 226.976 170.8 227.232 170.832 227.552C171.792 207.808 188.032 192 208 192C228.576 192 245.328 208.752 245.328 229.328C245.328 231.152 245.04 232.912 244.784 234.656H247.984C252.4 234.656 255.984 231.072 255.984 226.656V195.2C256 167.264 233.264 144.528 205.328 144.528Z" fill="#FC573B"/>
</svg>
