<svg width="256" height="256" viewBox="0 0 256 256" fill="none" xmlns="http://www.w3.org/2000/svg">
<path d="M53.328 0C23.92 0 0 24.224 0 54C0 95.088 46.16 135.056 48.128 136.752C49.616 138.032 51.472 138.672 53.328 138.672C55.184 138.672 57.04 138.032 58.528 136.752C60.496 135.072 106.656 95.104 106.656 54C106.672 24.224 82.736 0 53.328 0ZM53.328 74.672C41.568 74.672 32 65.104 32 53.344C32 41.584 41.568 32 53.328 32C65.088 32 74.656 41.568 74.656 53.328C74.656 65.088 65.088 74.672 53.328 74.672Z" fill="#FFD200"/>
<path d="M80.0001 202.672C65.2801 202.672 53.3281 214.624 53.3281 229.344C53.3281 244.064 65.2801 256 80.0001 256C94.7201 256 106.672 244.048 106.672 229.328C106.672 214.608 94.7201 202.672 80.0001 202.672Z" fill="#0085FF"/>
<path d="M208 202.672C193.28 202.672 181.328 214.624 181.328 229.344C181.328 244.064 193.28 256 208 256C222.72 256 234.672 244.048 234.672 229.328C234.672 214.608 222.72 202.672 208 202.672Z" fill="#0085FF"/>
<path d="M160 114.672V226.672C160 231.04 156.368 234.672 152 234.672H116.8C117.008 232.96 117.328 231.152 117.328 229.344C117.328 208.752 100.592 192 80.0001 192C59.4081 192 42.6721 208.752 42.6721 229.328C42.6721 231.136 42.9921 232.96 43.2001 234.656H29.3281C24.9601 234.656 21.3281 231.024 21.3281 226.656V124.688C30.7201 135.68 39.1361 143.04 41.1681 144.848C44.5761 147.728 48.8481 149.328 53.3281 149.328C57.8081 149.328 62.0801 147.728 65.4881 144.848C68.4801 142.176 85.3281 127.36 98.9761 106.656H152C156.368 106.672 160 110.288 160 114.672Z" fill="#0085FF"/>
<path d="M205.328 144.528H178.656C174.24 144.528 170.656 148.112 170.656 152.528V226.656C170.656 226.976 170.8 227.232 170.832 227.552C171.792 207.808 188.032 192 208 192C228.576 192 245.328 208.752 245.328 229.328C245.328 231.152 245.04 232.912 244.784 234.656H247.984C252.4 234.656 255.984 231.072 255.984 226.656V195.2C256 167.264 233.264 144.528 205.328 144.528Z" fill="#0085FF"/>
</svg>
