<svg width="256" height="256" viewBox="0 0 256 256" fill="none" xmlns="http://www.w3.org/2000/svg">
<path d="M69.3281 96V160H154.656V96H69.3281ZM106.672 141.328C106.672 145.744 103.088 149.328 98.6721 149.328C94.2561 149.328 90.6721 145.744 90.6721 141.328V114.656C90.6721 110.24 94.2561 106.656 98.6721 106.656C103.088 106.656 106.672 110.24 106.672 114.656V141.328ZM133.328 141.328C133.328 145.744 129.744 149.328 125.328 149.328C120.912 149.328 117.328 145.744 117.328 141.328V114.656C117.328 110.24 120.912 106.656 125.328 106.656C129.744 106.656 133.328 110.24 133.328 114.656V141.328Z" fill="#FFD200"/>
<path d="M253.168 202.672C254.96 198.336 256 193.664 256 188.768V178.672C256 174.256 252.416 170.672 248 170.672H8C3.584 170.672 0 174.256 0 178.672V202.672H253.168Z" fill="#0085FF"/>
<path d="M0 213.328V248C0 252.416 3.584 256 8 256H207.936C212.352 256 215.92 252.272 215.936 247.872C215.968 236.672 222.704 226.736 233.104 222.576C238.336 220.48 242.864 217.296 246.496 213.344L0 213.328Z" fill="#0085FF"/>
<path d="M58.6719 160V50.6721C58.6719 46.2561 55.0879 42.6721 50.6719 42.6721H18.6719C14.2559 42.6721 10.6719 46.2561 10.6719 50.6721V160H58.6719Z" fill="#FFD200"/>
<path d="M242.672 96H165.344V160H250.672V104C250.672 99.584 247.088 96 242.672 96ZM202.672 141.328C202.672 145.744 199.088 149.328 194.672 149.328C190.256 149.328 186.672 145.744 186.672 141.328V114.656C186.672 110.24 190.256 106.656 194.672 106.656C199.088 106.656 202.672 110.24 202.672 114.656V141.328ZM229.328 141.328C229.328 145.744 225.744 149.328 221.328 149.328C216.912 149.328 213.328 145.744 213.328 141.328V114.656C213.328 110.24 216.912 106.656 221.328 106.656C225.744 106.656 229.328 110.24 229.328 114.656V141.328Z" fill="#FFD200"/>
<path d="M146.672 21.3281H77.3438C72.9278 21.3281 69.3438 24.9121 69.3438 29.3281V85.3281H154.672V29.3281C154.672 24.9121 151.088 21.3281 146.672 21.3281ZM106.672 66.6721C106.672 71.0881 103.088 74.6721 98.6718 74.6721C94.2558 74.6721 90.6718 71.0881 90.6718 66.6721V40.0001C90.6718 35.5841 94.2558 32.0001 98.6718 32.0001C103.088 32.0001 106.672 35.5841 106.672 40.0001V66.6721ZM133.328 66.6721C133.328 71.0881 129.744 74.6721 125.328 74.6721C120.912 74.6721 117.328 71.0881 117.328 66.6721V40.0001C117.328 35.5841 120.912 32.0001 125.328 32.0001C129.744 32.0001 133.328 35.5841 133.328 40.0001V66.6721Z" fill="#FFD200"/>
<path d="M42.6719 32V8C42.6719 3.584 39.0879 0 34.6719 0C30.2559 0 26.6719 3.584 26.6719 8V32H42.6719Z" fill="#FFD200"/>
</svg>
