<svg width="256" height="236" viewBox="0 0 256 236" fill="none" xmlns="http://www.w3.org/2000/svg">
<path d="M194.672 27.3279H61.344C27.504 27.3279 0 54.8479 0 88.6719C0 109.696 10.64 128.288 26.832 139.344H229.184C245.36 128.272 256 109.696 256 88.6719C256 54.8479 228.496 27.3279 194.672 27.3279ZM184 107.328H146.672C142.256 107.328 138.672 103.744 138.672 99.3279C138.672 94.9119 142.256 91.3279 146.672 91.3279H184C188.416 91.3279 192 94.9119 192 99.3279C192 103.744 188.416 107.328 184 107.328ZM205.328 80.6719H146.656C142.24 80.6719 138.656 77.0879 138.656 72.6719C138.656 68.2559 142.24 64.6719 146.656 64.6719H205.328C209.744 64.6719 213.328 68.2559 213.328 72.6719C213.328 77.0879 209.744 80.6719 205.328 80.6719Z" fill="#0085FF"/>
<path d="M194.672 16.6719V8.67188C194.672 4.25588 191.088 0.671875 186.672 0.671875H144C139.584 0.671875 136 4.25588 136 8.67188V16.6719H194.672Z" fill="#0085FF"/>
<path d="M218.08 235.328C203.376 235.328 191.408 223.36 191.408 208.656C191.408 193.952 203.36 181.984 218.08 181.984C232.8 181.984 244.752 193.952 244.752 208.656C244.736 223.376 232.784 235.328 218.08 235.328Z" fill="#FFD200"/>
<path d="M164.736 235.328C150.032 235.328 138.064 223.36 138.064 208.656C138.064 193.952 150.016 181.984 164.736 181.984C179.456 181.984 191.408 193.952 191.408 208.656C191.408 223.376 179.456 235.328 164.736 235.328Z" fill="#FFD200"/>
<path d="M90.0802 235.328C75.3762 235.328 63.4082 223.36 63.4082 208.656C63.4082 193.952 75.3602 181.984 90.0802 181.984C104.8 181.984 116.752 193.952 116.752 208.656C116.736 223.376 104.784 235.328 90.0802 235.328Z" fill="#FFD200"/>
<path d="M36.7365 235.328C22.0324 235.328 10.0645 223.36 10.0645 208.656C10.0805 193.968 22.0324 182 36.7365 182C51.4405 182 63.4085 193.968 63.4085 208.672C63.4085 223.376 51.4405 235.328 36.7365 235.328Z" fill="#FFD200"/>
<path d="M248 150H8C3.584 150 0 153.584 0 158V202.8C2.848 185.008 18.16 171.344 36.736 171.344C47.184 171.344 56.624 175.68 63.408 182.64C70.192 175.696 79.632 171.344 90.08 171.344C110.656 171.344 127.408 188.096 127.408 208.672C127.408 188.096 144.16 171.344 164.736 171.344C175.184 171.344 184.624 175.68 191.408 182.64C198.192 175.696 207.632 171.344 218.08 171.344C238.656 171.344 255.408 188.096 255.408 208.672C255.408 209.904 255.168 211.072 255.04 212.272C255.6 211.184 256 209.984 256 208.672V158C256 153.584 252.416 150 248 150Z" fill="#FFD200"/>
</svg>
