<svg width="256" height="256" viewBox="0 0 256 256" fill="none" xmlns="http://www.w3.org/2000/svg">
<path d="M69.328 0C31.104 0 0 31.104 0 69.328C0 107.552 31.104 138.656 69.328 138.656C107.552 138.656 138.656 107.552 138.656 69.328C138.656 31.104 107.568 0 69.328 0ZM58.672 90.672C61.616 90.672 64 93.056 64 96C64 98.944 61.616 101.328 58.672 101.328H32C29.056 101.328 26.672 98.944 26.672 96V82.672C26.672 72.384 34.304 64 43.68 64H47.008C50.496 64 53.344 60.4 53.344 56C53.344 51.6 50.496 48 47.008 48H32C29.056 48 26.672 45.616 26.672 42.672C26.672 39.728 29.056 37.344 32 37.344H47.008C56.384 37.344 64.016 45.712 64.016 56.016C64.016 66.32 56.384 74.688 47.008 74.688H43.68C40.192 74.688 37.344 78.288 37.344 82.688V90.688H58.672V90.672ZM112 69.328V96C112 98.944 109.616 101.328 106.672 101.328C103.728 101.328 101.344 98.944 101.344 96V74.672H91.68C82.304 74.672 74.672 66.304 74.672 56V42.672C74.672 39.728 77.056 37.344 80 37.344C82.944 37.344 85.328 39.728 85.328 42.672V56C85.328 60.4 88.176 64 91.664 64H101.328V42.672C101.328 39.728 103.712 37.344 106.656 37.344C109.6 37.344 111.984 39.728 111.984 42.672V69.328H112Z" fill="#0085FF"/>
<path d="M80.0001 202.672C65.2801 202.672 53.3281 214.624 53.3281 229.344C53.3281 244.064 65.2801 256 80.0001 256C94.7201 256 106.672 244.048 106.672 229.328C106.672 214.608 94.7201 202.672 80.0001 202.672Z" fill="#FFD200"/>
<path d="M208 202.672C193.28 202.672 181.328 214.624 181.328 229.344C181.328 244.064 193.28 256 208 256C222.72 256 234.672 244.048 234.672 229.328C234.672 214.608 222.72 202.672 208 202.672Z" fill="#FFD200"/>
<path d="M160 114.672V226.672C160 231.04 156.368 234.672 152 234.672H116.8C117.008 232.96 117.328 231.152 117.328 229.344C117.328 208.752 100.592 192 80.0001 192C59.4081 192 42.6721 208.752 42.6721 229.328C42.6721 231.136 42.9921 232.96 43.2001 234.656H29.3281C24.9601 234.656 21.3281 231.024 21.3281 226.656V146.24C35.2001 154.992 51.7281 160 69.3281 160C106.016 160 137.696 138.128 151.888 106.672H152C156.368 106.672 160 110.288 160 114.672Z" fill="#FFD200"/>
<path d="M205.328 144.528H178.656C174.24 144.528 170.656 148.112 170.656 152.528V226.656C170.656 226.976 170.8 227.232 170.832 227.552C171.792 207.808 188.032 192 208 192C228.576 192 245.328 208.752 245.328 229.328C245.328 231.152 245.04 232.912 244.784 234.656H247.984C252.4 234.656 255.984 231.072 255.984 226.656V195.2C256 167.264 233.264 144.528 205.328 144.528Z" fill="#FFD200"/>
</svg>
