<svg width="256" height="256" viewBox="0 0 256 256" fill="none" xmlns="http://www.w3.org/2000/svg">
<path d="M64 0C28.704 0 0 28.704 0 64C0 99.296 28.704 128 64 128C99.296 128 128 99.296 128 64C128 28.704 99.296 0 64 0ZM101.36 49.696L64.032 92.368C62.096 94.592 59.312 95.904 56.368 96C56.256 96 56.128 96 56.016 96C53.2 96 50.48 94.88 48.48 92.88L27.152 71.552C22.992 67.392 22.992 60.64 27.152 56.464C31.312 52.288 38.064 52.304 42.24 56.464L55.504 69.728L85.328 35.632C89.216 31.216 95.936 30.752 100.384 34.624C104.784 38.528 105.232 45.248 101.36 49.696Z" fill="#0085FF"/>
<path d="M80.0001 202.672C65.2801 202.672 53.3281 214.624 53.3281 229.344C53.3281 244.064 65.2801 256 80.0001 256C94.7201 256 106.672 244.048 106.672 229.328C106.672 214.608 94.7201 202.672 80.0001 202.672Z" fill="#FFD200"/>
<path d="M208 202.672C193.28 202.672 181.328 214.624 181.328 229.344C181.328 244.064 193.28 256 208 256C222.72 256 234.672 244.048 234.672 229.328C234.672 214.608 222.72 202.672 208 202.672Z" fill="#FFD200"/>
<path d="M160 114.672V226.672C160 231.04 156.368 234.672 152 234.672H116.8C117.008 232.96 117.328 231.152 117.328 229.344C117.328 208.752 100.592 192 80.0001 192C59.4081 192 42.6721 208.752 42.6721 229.328C42.6721 231.136 42.9921 232.96 43.2001 234.656H29.3281C24.9601 234.656 21.3281 231.024 21.3281 226.656V137.808C33.9201 145.168 48.5281 149.328 64.0001 149.328C95.4721 149.328 123.088 132.16 137.808 106.656H152C156.368 106.672 160 110.288 160 114.672Z" fill="#FFD200"/>
<path d="M205.328 144.528H178.656C174.24 144.528 170.656 148.112 170.656 152.528V226.656C170.656 226.976 170.8 227.232 170.832 227.552C171.792 207.808 188.032 192 208 192C228.576 192 245.328 208.752 245.328 229.328C245.328 231.152 245.04 232.912 244.784 234.656H247.984C252.4 234.656 255.984 231.072 255.984 226.656V195.2C256 167.264 233.264 144.528 205.328 144.528Z" fill="#FFD200"/>
</svg>
