<svg width="256" height="252" viewBox="0 0 256 252" fill="none" xmlns="http://www.w3.org/2000/svg">
<path d="M216 251.328H29.3277C26.6557 251.328 24.1597 249.984 22.6717 247.76L1.34371 215.76C-0.288289 213.312 -0.448283 210.144 0.943717 207.552C2.33572 204.96 5.05572 203.328 7.99972 203.328H146.672C159.904 203.328 170.672 192.56 170.672 179.328C170.672 174.912 174.256 171.328 178.672 171.328H248C250.768 171.328 253.344 172.768 254.8 175.12C256.256 177.472 256.384 180.432 255.152 182.912L223.152 246.912C221.808 249.616 219.024 251.328 216 251.328Z" fill="#0085FF"/>
<path d="M234.672 131.328V160.656H218.672V131.328C218.672 126.96 222.304 123.328 226.672 123.328C231.04 123.328 234.672 126.96 234.672 131.328Z" fill="#0085FF"/>
<path d="M10.6719 128.672V192.672H95.9999V128.672H10.6719ZM47.9999 174C47.9999 178.416 44.4159 182 39.9999 182C35.5839 182 31.9999 178.416 31.9999 174V147.328C31.9999 142.912 35.5839 139.328 39.9999 139.328C44.4159 139.328 47.9999 142.912 47.9999 147.328V174ZM74.6719 174C74.6719 178.416 71.0879 182 66.6719 182C62.2559 182 58.6719 178.416 58.6719 174V147.328C58.6719 142.912 62.2559 139.328 66.6719 139.328C71.0879 139.328 74.6719 142.912 74.6719 147.328V174Z" fill="#FFD200"/>
<path d="M106.672 128.672V192.672H146.672C153.28 192.672 158.832 187.76 159.792 181.36C156.8 180.288 154.672 177.312 154.672 174V147.328C154.672 142.96 158.304 139.328 162.672 139.328C167.04 139.328 170.672 142.96 170.672 147.328V162.576C173.12 161.296 175.792 160.656 178.672 160.656H192V128.656L106.672 128.672ZM144 174C144 178.368 140.368 182 136 182C131.632 182 128 178.368 128 174V147.328C128 142.96 131.632 139.328 136 139.328C140.368 139.328 144 142.96 144 147.328V174Z" fill="#FFD200"/>
<path d="M10.6719 64.6719V118H95.9999V64.6719H10.6719ZM47.9999 99.3279C47.9999 103.744 44.4159 107.328 39.9999 107.328C35.5839 107.328 31.9999 103.744 31.9999 99.3279V83.3279C31.9999 78.9119 35.5839 75.3279 39.9999 75.3279C44.4159 75.3279 47.9999 78.9119 47.9999 83.3279V99.3279ZM74.6719 99.3279C74.6719 103.744 71.0879 107.328 66.6719 107.328C62.2559 107.328 58.6719 103.744 58.6719 99.3279V83.3279C58.6719 78.9119 62.2559 75.3279 66.6719 75.3279C71.0879 75.3279 74.6719 78.9119 74.6719 83.3279V99.3279Z" fill="#FFD200"/>
<path d="M87.9999 0.671875H18.6719C14.2559 0.671875 10.6719 4.25587 10.6719 8.67187V53.9999H95.9999V8.67187C95.9999 4.25587 92.4159 0.671875 87.9999 0.671875ZM47.9999 35.3279C47.9999 39.7439 44.4159 43.3279 39.9999 43.3279C35.5839 43.3279 31.9999 39.7439 31.9999 35.3279V19.3279C31.9999 14.9119 35.5839 11.3279 39.9999 11.3279C44.4159 11.3279 47.9999 14.9119 47.9999 19.3279V35.3279ZM74.6719 35.3279C74.6719 39.7439 71.0879 43.3279 66.6719 43.3279C62.2559 43.3279 58.6719 39.7439 58.6719 35.3279V19.3279C58.6719 14.9119 62.2559 11.3279 66.6719 11.3279C71.0879 11.3279 74.6719 14.9119 74.6719 19.3279V35.3279Z" fill="#FFD200"/>
<path d="M184 64.6719H106.672V118H192V72.6719C192 68.2559 188.416 64.6719 184 64.6719ZM144 99.3279C144 103.744 140.416 107.328 136 107.328C131.584 107.328 128 103.744 128 99.3279V83.3279C128 78.9119 131.584 75.3279 136 75.3279C140.416 75.3279 144 78.9119 144 83.3279V99.3279ZM170.672 99.3279C170.672 103.744 167.088 107.328 162.672 107.328C158.256 107.328 154.672 103.744 154.672 99.3279V83.3279C154.672 78.9119 158.256 75.3279 162.672 75.3279C167.088 75.3279 170.672 78.9119 170.672 83.3279V99.3279Z" fill="#FFD200"/>
</svg>
