<svg width="204" height="256" viewBox="0 0 204 256" fill="none" xmlns="http://www.w3.org/2000/svg">
<path d="M147.327 138.672H128.655V184C128.655 188.416 125.071 192 120.655 192H83.3274C78.9114 192 75.3274 188.416 75.3274 184V138.672H56.6554C46.3674 138.672 37.9834 147.04 37.9834 157.344V237.344C37.9994 247.632 46.3674 256 56.6714 256H147.343C157.631 256 165.999 247.632 165.999 237.328V157.328C165.999 147.04 157.631 138.672 147.327 138.672ZM136.671 234.672H115.343C110.927 234.672 107.343 231.088 107.343 226.672C107.343 222.256 110.927 218.672 115.343 218.672H136.671C141.087 218.672 144.671 222.256 144.671 226.672C144.671 231.088 141.087 234.672 136.671 234.672Z" fill="#0085FF"/>
<path d="M196.784 94.48C192.976 92.176 188.08 93.44 185.808 97.232L164.128 133.36C168.88 136.704 172.56 141.408 174.656 146.912L199.52 105.456C201.808 101.664 200.576 96.752 196.784 94.48Z" fill="#FFD200"/>
<path d="M134.944 128L146.496 104.912C148.48 100.96 146.864 96.1601 142.912 94.1761C138.96 92.2081 134.16 93.8081 132.176 97.7601L117.056 128H134.944Z" fill="#FFD200"/>
<path d="M69.0559 128H86.9439L71.8239 97.7601C69.8399 93.8241 65.0559 92.1921 61.0879 94.1761C57.1359 96.1601 55.5199 100.96 57.5039 104.912L69.0559 128Z" fill="#FFD200"/>
<path d="M39.9678 133.264L18.1758 97.2C15.8878 93.424 10.9598 92.192 7.19984 94.48C3.42384 96.768 2.19184 101.68 4.49584 105.472L29.4078 146.704C31.5358 141.248 35.2158 136.576 39.9678 133.264Z" fill="#FFD200"/>
<path d="M102 0C46.1279 0 0.671875 44.256 0.671875 98.672C0.671875 103.088 4.25588 106.672 8.67188 106.672H195.344C199.76 106.672 203.344 103.088 203.344 98.672C203.328 44.256 157.872 0 102 0Z" fill="#FFD200"/>
</svg>
