<svg width="257" height="214" viewBox="0 0 257 214" fill="none" xmlns="http://www.w3.org/2000/svg">
<path d="M198.216 213.672C183.512 213.672 171.544 201.704 171.544 187C171.544 172.296 183.512 160.328 198.216 160.328C212.92 160.328 224.888 172.296 224.888 187C224.888 201.704 212.92 213.672 198.216 213.672Z" fill="#0085FF"/>
<path d="M158.216 48.3279H232.84C224.744 20.6319 199.16 0.327881 168.888 0.327881H158.216C153.8 0.327881 150.216 3.91188 150.216 8.32788V50.1999C152.648 49.0479 155.352 48.3279 158.216 48.3279Z" fill="#0085FF"/>
<path d="M91.5597 213.672C76.8557 213.672 64.8877 201.704 64.8877 187C64.8877 172.296 76.8557 160.328 91.5597 160.328C106.264 160.328 118.232 172.296 118.232 187C118.216 201.704 106.248 213.672 91.5597 213.672Z" fill="#0085FF"/>
<path d="M120.888 0.327881H0.423828V161.512C7.23983 154.264 16.8398 149.672 27.5438 149.672C41.1918 149.672 53.0318 157.112 59.5438 168.088C66.0558 157.128 77.8958 149.672 91.5438 149.672C112.12 149.672 128.872 166.424 128.872 187C128.872 188.824 128.584 190.584 128.328 192.328H131.528C135.944 192.328 139.528 188.744 139.528 184.328V18.9999C139.56 8.71188 131.176 0.327881 120.888 0.327881ZM43.5438 131C43.5438 135.416 39.9598 139 35.5438 139C31.1278 139 27.5438 135.416 27.5438 131V40.3279C27.5438 35.9119 31.1278 32.3279 35.5438 32.3279C39.9598 32.3279 43.5438 35.9119 43.5438 40.3279V131ZM96.8878 131C96.8878 135.416 93.3038 139 88.8878 139C84.4718 139 80.8878 135.416 80.8878 131V40.3279C80.8878 35.9119 84.4718 32.3279 88.8878 32.3279C93.3038 32.3279 96.8878 35.9119 96.8878 40.3279V131Z" fill="#EA0303"/>
<path d="M27.5441 213.672C12.8401 213.672 0.87207 201.704 0.87207 187C0.87207 172.296 12.8401 160.328 27.5441 160.328C42.2481 160.328 54.2161 172.296 54.2161 187C54.2161 201.704 42.2481 213.672 27.5441 213.672Z" fill="#0085FF"/>
<path d="M200.888 85.672H256.888V67C256.888 62.584 253.304 59 248.888 59H158.216C153.8 59 150.216 62.584 150.216 67V184.328C150.216 188.744 153.8 192.328 158.216 192.328H161.416C161.16 190.568 160.872 188.824 160.872 187C160.872 166.424 177.624 149.672 198.2 149.672C218.776 149.672 235.56 166.424 235.56 187C235.56 188.824 235.272 190.584 235.016 192.328H238.216C248.504 192.328 256.888 183.96 256.888 173.656V128.328H200.888C196.472 128.328 192.888 124.744 192.888 120.328V93.656C192.888 89.256 196.472 85.672 200.888 85.672Z" fill="#EA0303"/>
</svg>
