<svg width="256" height="256" viewBox="0 0 256 256" fill="none" xmlns="http://www.w3.org/2000/svg">
<path d="M178.672 53.328V40C178.672 35.584 175.088 32 170.672 32C166.256 32 162.672 35.584 162.672 40V53.328H178.672Z" fill="#FC573B"/>
<path d="M255.472 169.92L240.112 228.16C235.744 227.088 231.904 225.072 229.664 222.4C224.976 216.752 217.504 213.552 209.296 213.552C201.184 213.552 193.728 216.752 189.024 222.4C185.616 226.56 178.144 229.328 170.672 229.328C163.104 229.328 155.84 226.656 152.32 222.4C147.632 216.752 140.16 213.552 132.048 213.552C123.84 213.552 116.368 216.752 111.68 222.4C109.44 225.072 105.6 226.992 101.232 228.16L85.8723 169.92C84.9123 166.192 86.8323 162.24 90.3523 160.64L91.7283 160H120C134.928 160 147.2 148.912 149.12 134.4V134.288L167.36 126.176C169.488 125.328 171.84 125.328 173.968 126.176L250.976 160.624C254.512 162.24 256.432 166.192 255.472 169.92Z" fill="#FC573B"/>
<path d="M248 256C232.368 256 217.872 249.856 209.232 239.568C200.784 249.856 186.304 256 170.672 256C155.04 256 140.544 249.856 131.904 239.568C123.456 249.856 108.96 256 93.3281 256C88.9121 256 85.3281 252.416 85.3281 248C85.3281 243.584 88.9121 240 93.3281 240C104.128 240 114.288 235.888 119.856 229.28C125.52 222.56 138.496 222.56 144.144 229.28C149.712 235.888 159.872 240 170.672 240C181.472 240 191.632 235.888 197.2 229.28C202.864 222.56 215.84 222.56 221.488 229.28C227.04 235.888 237.2 240 248 240C252.416 240 256 243.584 256 248C256 252.416 252.416 256 248 256Z" fill="#FC573B"/>
<path d="M162.672 106.672V116.688L149.328 122.672V106.672H162.672Z" fill="#FC573B"/>
<path d="M226.672 106.672H178.672V116.672L234.672 141.648V114.656C234.672 110.256 231.088 106.672 226.672 106.672Z" fill="#FC573B"/>
<path d="M202.672 71.9999V95.9999H149.344V74.6719C149.344 72.8639 149.024 71.0399 148.592 69.3439C149.024 67.6319 149.344 65.8239 149.344 64.0159H194.672C199.04 63.9999 202.672 67.6319 202.672 71.9999Z" fill="#FC573B"/>
<path d="M120 138.672H8C3.584 138.672 0 135.088 0 130.672V74.6719H128V130.672C128 135.088 124.416 138.672 120 138.672Z" fill="#0085FF"/>
<path d="M26.672 0C23.36 0 20.4 2.032 19.2 5.104L0.528 53.104C0.192 53.984 0.016 54.912 0 55.84V64H8H36.704H58.656V0H26.672Z" fill="#0085FF"/>
<path d="M128 55.84C127.984 54.912 127.808 53.984 127.456 53.104L108.784 5.104C107.6 2.032 104.64 0 101.328 0H69.3281V64H91.2801H120H128V55.84Z" fill="#0085FF"/>
</svg>
