<svg width="256" height="256" viewBox="0 0 256 256" fill="none" xmlns="http://www.w3.org/2000/svg">
<path d="M253.168 202.672C254.96 198.336 256 193.664 256 188.768V178.672C256 174.256 252.416 170.672 248 170.672H8C3.584 170.672 0 174.256 0 178.672V202.672H253.168Z" fill="#FC573B"/>
<path d="M0 213.328V248C0 252.416 3.584 256 8 256H207.936C212.352 256 215.92 252.272 215.936 247.872C215.968 236.672 222.704 226.736 233.104 222.576C238.336 220.48 242.864 217.296 246.496 213.344L0 213.328Z" fill="#FC573B"/>
<path d="M117.328 128H170.656V160H117.328V128Z" fill="#0085FF"/>
<path d="M181.328 128H234.656V160H181.328V128Z" fill="#0085FF"/>
<path d="M117.328 85.3279H170.656V117.328H117.328V85.3279Z" fill="#0085FF"/>
<path d="M170.672 74.6721V50.6721C170.672 46.2561 167.088 42.6721 162.672 42.6721H125.344C120.928 42.6721 117.344 46.2561 117.344 50.6721V74.6721H170.672Z" fill="#0085FF"/>
<path d="M234.672 117.328V93.3279C234.672 88.9119 231.088 85.3279 226.672 85.3279H181.344V117.328H234.672Z" fill="#0085FF"/>
<path d="M88.0001 64H85.3281V106.672H88.0001C92.4161 106.672 96.0001 103.088 96.0001 98.672V72C96.0001 67.584 92.4161 64 88.0001 64Z" fill="#0085FF"/>
<path d="M58.6719 32V8C58.6719 3.584 55.0879 0 50.6719 0C46.2559 0 42.6719 3.584 42.6719 8V32H58.6719Z" fill="#0085FF"/>
<path d="M39.9999 106.672C35.5839 106.672 31.9999 103.088 31.9999 98.6721V72.0001C31.9999 67.5841 35.5839 64.0001 39.9999 64.0001H85.3279V50.6721C85.3279 46.2561 81.7439 42.6721 77.3279 42.6721H18.6719C14.2559 42.6721 10.6719 46.2561 10.6719 50.6721V160H85.3439V106.672H39.9999Z" fill="#0085FF"/>
</svg>
