<svg width="256" height="256" viewBox="0 0 256 256" fill="none" xmlns="http://www.w3.org/2000/svg">
<path d="M101.264 228.176C105.648 227.008 109.488 225.04 111.696 222.416C116.432 216.8 123.824 213.584 132.016 213.584C140.192 213.584 147.6 216.8 152.32 222.416C155.856 226.624 163.072 229.344 170.688 229.344C178.192 229.344 185.568 226.56 189.04 222.432C193.776 216.816 201.168 213.6 209.36 213.6C217.552 213.6 224.944 216.816 229.664 222.432C231.904 225.104 235.712 227.072 240.096 228.224L255.44 169.952C256.432 166.16 254.544 162.208 250.96 160.608L173.92 126.24C171.84 125.312 169.472 125.312 167.392 126.24L90.3843 160.592C86.8003 162.192 84.9123 166.144 85.9043 169.936L101.264 228.176Z" fill="#FC573B"/>
<path d="M248 256C232.368 256 217.872 249.856 209.232 239.568C200.8 249.856 186.304 256 170.672 256C155.04 256 140.544 249.856 131.904 239.568C123.456 249.856 108.96 256 93.3281 256C88.9121 256 85.3281 252.416 85.3281 248C85.3281 243.584 88.9121 240 93.3281 240C104.128 240 114.288 235.888 119.856 229.28C125.52 222.56 138.496 222.56 144.144 229.28C149.712 235.888 159.872 240 170.672 240C181.472 240 191.632 235.888 197.2 229.28C202.864 222.56 215.84 222.56 221.488 229.28C227.04 235.888 237.2 240 248 240C252.416 240 256 243.584 256 248C256 252.416 252.416 256 248 256Z" fill="#FC573B"/>
<path d="M162.672 106.672V116.704L139.312 127.056C144.32 120.864 148.592 114.048 151.904 106.688H162.672V106.672Z" fill="#FC573B"/>
<path d="M226.672 106.672H178.672V116.672L234.672 141.648V114.656C234.672 110.256 231.088 106.672 226.672 106.672Z" fill="#FC573B"/>
<path d="M178.672 53.328V40C178.672 35.584 175.088 32 170.672 32C166.256 32 162.672 35.584 162.672 40V53.328H178.672Z" fill="#FC573B"/>
<path d="M202.672 72V96H156.064C158.608 87.568 160 78.608 160 69.328C160 67.52 160 65.808 159.888 64H194.656C199.04 64 202.672 67.632 202.672 72Z" fill="#FC573B"/>
<path d="M69.328 0C31.104 0 0 31.104 0 69.328C0 107.552 31.104 138.656 69.328 138.656C107.552 138.656 138.656 107.552 138.656 69.328C138.656 31.104 107.568 0 69.328 0ZM58.672 90.672C61.616 90.672 64 93.056 64 96C64 98.944 61.616 101.328 58.672 101.328H32C29.056 101.328 26.672 98.944 26.672 96V82.672C26.672 72.384 34.304 64 43.68 64H47.008C50.496 64 53.344 60.4 53.344 56C53.344 51.6 50.496 48 47.008 48H32C29.056 48 26.672 45.616 26.672 42.672C26.672 39.728 29.056 37.344 32 37.344H47.008C56.384 37.344 64.016 45.712 64.016 56.016C64.016 66.32 56.384 74.688 47.008 74.688H43.68C40.192 74.688 37.344 78.288 37.344 82.688V90.688H58.672V90.672ZM112 69.328V96C112 98.944 109.616 101.328 106.672 101.328C103.728 101.328 101.344 98.944 101.344 96V74.672H91.68C82.304 74.672 74.672 66.304 74.672 56V42.672C74.672 39.728 77.056 37.344 80 37.344C82.944 37.344 85.328 39.728 85.328 42.672V56C85.328 60.4 88.176 64 91.664 64H101.328V42.672C101.328 39.728 103.712 37.344 106.656 37.344C109.6 37.344 111.984 39.728 111.984 42.672V69.328H112Z" fill="#0085FF"/>
</svg>
